M48
; DRILL file {KiCad 7.0.1} date Thu Mar 27 18:28:51 2025
; FORMAT={-:-/ absolute / inch / decimal}
; #@! TF.CreationDate,2025-03-27T18:28:51+02:00
; #@! TF.GenerationSoftware,Kicad,Pcbnew,7.0.1
; #@! TF.FileFunction,Plated,1,2,PTH
FMAT,2
INCH
; #@! TA.AperFunction,Plated,PTH,ViaDrill
T1C0.0157
; #@! TA.AperFunction,Plated,PTH,ComponentDrill
T2C0.0295
; #@! TA.AperFunction,Plated,PTH,ComponentDrill
T3C0.0394
; #@! TA.AperFunction,Plated,PTH,ComponentDrill
T4C0.0669
; #@! TA.AperFunction,Plated,PTH,ComponentDrill
T5C0.1260
%
G90
G05
T1
X4.241Y-4.535
X4.286Y-4.365
X4.425Y-4.48
X4.545Y-4.63
X4.5803Y-4.9181
X4.5803Y-4.9681
X4.5953Y-4.8481
X4.65Y-5.025
X4.6503Y-4.8481
X4.8Y-5.7
X4.8007Y-4.9186
X4.8007Y-4.9686
X4.857Y-4.992
X4.89Y-5.67
X4.89Y-5.95
X4.94Y-4.53
X4.985Y-4.819
X4.987Y-5.596
X5.027Y-5.203
X5.033Y-4.847
X5.035Y-4.695
X5.06Y-5.62
X5.1Y-5.32
X5.13Y-4.22
X5.16Y-5.62
X5.17Y-4.31
X5.196Y-5.596
X5.2476Y-5.477
X5.26Y-4.53
X5.26Y-4.57
X5.348Y-4.265
X5.396Y-4.519
X5.3974Y-4.5583
X5.398Y-5.601
X5.493Y-5.545
X5.493Y-5.476
X5.495Y-5.651
X5.498Y-5.9368
X5.525Y-5.039
X5.5703Y-5.9368
X5.579Y-5.089
X5.596Y-5.166
X5.62Y-4.62
X5.641Y-5.165
X5.647Y-4.124
X5.679Y-5.248
X5.69Y-5.18
X5.697Y-5.954
X5.699Y-4.693
X5.73Y-5.17
X5.743Y-5.663
X5.75Y-4.56
X5.77Y-5.089
X5.794Y-5.665
X5.798Y-5.985
X5.816Y-4.644
X5.816Y-5.171
X5.816Y-5.263
X5.82Y-4.8
X5.82Y-5.312
X5.837Y-5.504
X5.85Y-4.111
X5.851Y-4.974
X5.859Y-5.076
X5.86Y-4.8
X5.883Y-5.2835
X5.898Y-4.609
X5.912Y-4.816
X5.9133Y-5.238
X5.9136Y-5.18
X5.921Y-5.06
X5.921Y-5.06
X5.9527Y-5.238
X5.953Y-5.18
X5.96Y-5.4
X5.96Y-5.4
X5.96Y-5.4
X5.96Y-5.44
X5.96Y-5.498
X5.992Y-5.239
X5.993Y-4.808
X5.993Y-5.179
X6.047Y-5.238
X6.052Y-4.804
X6.056Y-5.086
X6.056Y-5.1809
X6.1096Y-5.6557
X6.111Y-4.684
X6.143Y-4.571
X6.1615Y-5.656
X6.213Y-5.341
X6.214Y-5.385
X6.216Y-5.515
X6.2603Y-5.5647
X6.296Y-4.63
X6.402Y-4.64
X6.419Y-5.274
X6.445Y-5.815
X6.479Y-5.273
X6.536Y-5.058
X6.536Y-5.451
X6.602Y-5.448
X6.621Y-4.85
X6.681Y-5.549
X6.7215Y-5.66
X6.725Y-5.475
X6.7272Y-4.7574
X6.769Y-4.4384
X6.865Y-5.805
X6.881Y-4.716
X6.881Y-4.761
T2
X4.3799Y-5.8366
X4.3799Y-5.9154
T3
X4.743Y-5.757
X4.743Y-5.857
X4.843Y-5.757
X4.843Y-5.857
X4.943Y-5.757
X4.943Y-5.857
X5.043Y-5.757
X5.043Y-5.857
X5.143Y-5.757
X5.143Y-5.857
X5.243Y-5.757
X5.243Y-5.857
X5.343Y-5.757
X5.343Y-5.857
X5.443Y-5.757
X5.443Y-5.857
X5.543Y-5.757
X5.543Y-5.857
X5.643Y-5.757
X5.643Y-5.857
X5.743Y-5.757
X5.743Y-5.857
X5.843Y-5.757
X5.843Y-5.857
X5.943Y-5.757
X5.943Y-5.857
X6.043Y-5.757
X6.043Y-5.857
X6.143Y-5.757
X6.143Y-5.857
X6.243Y-5.757
X6.243Y-5.857
T4
X4.3307Y-5.2579
X4.3307Y-5.4429
X4.3307Y-5.628
T5
X5.498Y-3.9236
X5.498Y-4.3173
X5.498Y-4.711
T0
M30
