%TF.GenerationSoftware,KiCad,Pcbnew,7.0.1*%
%TF.CreationDate,2025-03-27T17:21:39+02:00*%
%TF.ProjectId,EEE3088F_MM_Power_Project,45454533-3038-4384-965f-4d4d5f506f77,rev?*%
%TF.SameCoordinates,Original*%
%TF.FileFunction,Soldermask,Top*%
%TF.FilePolarity,Negative*%
%FSLAX46Y46*%
G04 Gerber Fmt 4.6, Leading zero omitted, Abs format (unit mm)*
G04 Created by KiCad (PCBNEW 7.0.1) date 2025-03-27 17:21:39*
%MOMM*%
%LPD*%
G01*
G04 APERTURE LIST*
G04 Aperture macros list*
%AMRoundRect*
0 Rectangle with rounded corners*
0 $1 Rounding radius*
0 $2 $3 $4 $5 $6 $7 $8 $9 X,Y pos of 4 corners*
0 Add a 4 corners polygon primitive as box body*
4,1,4,$2,$3,$4,$5,$6,$7,$8,$9,$2,$3,0*
0 Add four circle primitives for the rounded corners*
1,1,$1+$1,$2,$3*
1,1,$1+$1,$4,$5*
1,1,$1+$1,$6,$7*
1,1,$1+$1,$8,$9*
0 Add four rect primitives between the rounded corners*
20,1,$1+$1,$2,$3,$4,$5,0*
20,1,$1+$1,$4,$5,$6,$7,0*
20,1,$1+$1,$6,$7,$8,$9,0*
20,1,$1+$1,$8,$9,$2,$3,0*%
G04 Aperture macros list end*
%ADD10O,1.700000X1.700000*%
%ADD11R,1.700000X1.700000*%
%ADD12C,5.600000*%
%ADD13RoundRect,0.250000X-1.412500X-0.550000X1.412500X-0.550000X1.412500X0.550000X-1.412500X0.550000X0*%
%ADD14R,2.500000X2.500000*%
%ADD15RoundRect,0.250000X-0.625000X0.350000X-0.625000X-0.350000X0.625000X-0.350000X0.625000X0.350000X0*%
%ADD16O,1.750000X1.200000*%
%ADD17R,0.600000X1.300000*%
%ADD18R,3.500000X2.500000*%
%ADD19RoundRect,0.155000X0.155000X-0.212500X0.155000X0.212500X-0.155000X0.212500X-0.155000X-0.212500X0*%
%ADD20RoundRect,0.250000X0.650000X-0.412500X0.650000X0.412500X-0.650000X0.412500X-0.650000X-0.412500X0*%
%ADD21RoundRect,0.150000X-0.512500X-0.150000X0.512500X-0.150000X0.512500X0.150000X-0.512500X0.150000X0*%
%ADD22RoundRect,0.237500X0.300000X0.237500X-0.300000X0.237500X-0.300000X-0.237500X0.300000X-0.237500X0*%
%ADD23RoundRect,0.250000X1.412500X0.550000X-1.412500X0.550000X-1.412500X-0.550000X1.412500X-0.550000X0*%
%ADD24R,1.296012X1.757506*%
%ADD25RoundRect,0.155000X0.212500X0.155000X-0.212500X0.155000X-0.212500X-0.155000X0.212500X-0.155000X0*%
%ADD26C,0.649987*%
%ADD27R,2.020015X1.500000*%
%ADD28R,0.500000X1.150013*%
%ADD29R,0.259995X1.150013*%
%ADD30RoundRect,0.237500X-0.250000X-0.237500X0.250000X-0.237500X0.250000X0.237500X-0.250000X0.237500X0*%
%ADD31RoundRect,0.237500X-0.237500X0.250000X-0.237500X-0.250000X0.237500X-0.250000X0.237500X0.250000X0*%
%ADD32RoundRect,0.160000X0.160000X-0.197500X0.160000X0.197500X-0.160000X0.197500X-0.160000X-0.197500X0*%
%ADD33RoundRect,0.237500X0.237500X-0.300000X0.237500X0.300000X-0.237500X0.300000X-0.237500X-0.300000X0*%
%ADD34R,5.700000X1.700000*%
%ADD35O,0.350013X1.300000*%
%ADD36R,2.740005X2.740005*%
%ADD37RoundRect,0.237500X-0.237500X0.300000X-0.237500X-0.300000X0.237500X-0.300000X0.237500X0.300000X0*%
%ADD38RoundRect,0.160000X-0.160000X0.197500X-0.160000X-0.197500X0.160000X-0.197500X0.160000X0.197500X0*%
%ADD39R,0.900000X0.500000*%
%ADD40R,1.000000X1.500000*%
%ADD41R,1.500000X1.358903*%
%ADD42RoundRect,0.250000X-0.550000X1.412500X-0.550000X-1.412500X0.550000X-1.412500X0.550000X1.412500X0*%
%ADD43RoundRect,0.250000X-0.412500X-0.650000X0.412500X-0.650000X0.412500X0.650000X-0.412500X0.650000X0*%
%ADD44R,0.350013X0.500000*%
%ADD45R,1.600000X1.000000*%
%ADD46O,1.251994X0.364008*%
%ADD47R,0.364008X0.650013*%
%ADD48RoundRect,0.160000X0.197500X0.160000X-0.197500X0.160000X-0.197500X-0.160000X0.197500X-0.160000X0*%
%ADD49RoundRect,0.155000X-0.155000X0.212500X-0.155000X-0.212500X0.155000X-0.212500X0.155000X0.212500X0*%
%ADD50R,1.500000X2.000000*%
%ADD51R,3.800000X2.000000*%
%ADD52RoundRect,0.237500X-0.300000X-0.237500X0.300000X-0.237500X0.300000X0.237500X-0.300000X0.237500X0*%
%ADD53RoundRect,0.250000X-0.625000X0.400000X-0.625000X-0.400000X0.625000X-0.400000X0.625000X0.400000X0*%
%ADD54R,2.000000X2.000000*%
%ADD55RoundRect,0.155000X-0.212500X-0.155000X0.212500X-0.155000X0.212500X0.155000X-0.212500X0.155000X0*%
%ADD56R,1.200000X0.600000*%
%ADD57R,2.400000X3.300000*%
%ADD58R,1.500000X1.000000*%
%ADD59R,2.500000X2.100000*%
%ADD60C,2.500000*%
G04 APERTURE END LIST*
D10*
%TO.C,J2*%
X120472200Y-148767800D03*
X120472200Y-146227800D03*
X123012200Y-148767800D03*
X123012200Y-146227800D03*
X125552200Y-148767800D03*
X125552200Y-146227800D03*
X128092200Y-148767800D03*
X128092200Y-146227800D03*
X130632200Y-148767800D03*
X130632200Y-146227800D03*
X133172200Y-148767800D03*
X133172200Y-146227800D03*
X135712200Y-148767800D03*
X135712200Y-146227800D03*
X138252200Y-148767800D03*
X138252200Y-146227800D03*
X140792200Y-148767800D03*
X140792200Y-146227800D03*
X143332200Y-148767800D03*
X143332200Y-146227800D03*
X145872200Y-148767800D03*
X145872200Y-146227800D03*
X148412200Y-148767800D03*
X148412200Y-146227800D03*
X150952200Y-148767800D03*
X150952200Y-146227800D03*
X153492200Y-148767800D03*
X153492200Y-146227800D03*
X156032200Y-148767800D03*
X156032200Y-146227800D03*
X158572200Y-148767800D03*
D11*
X158572200Y-146227800D03*
%TD*%
D12*
%TO.C,H1*%
X139649200Y-119659099D03*
%TD*%
%TO.C,H3*%
X139649200Y-109659099D03*
%TD*%
%TO.C,H2*%
X139649200Y-99659099D03*
%TD*%
D13*
%TO.C,C31*%
X120070800Y-132156200D03*
X125145800Y-132156200D03*
%TD*%
D14*
%TO.C,5V_R1_TP1*%
X119126000Y-110490000D03*
%TD*%
D15*
%TO.C,J1*%
X111250000Y-148250000D03*
D16*
X111250000Y-150250000D03*
%TD*%
D17*
%TO.C,U4*%
X169824403Y-129956804D03*
X168554400Y-129956804D03*
X167284398Y-129956804D03*
X166014395Y-129956804D03*
X166014395Y-135356600D03*
X167284398Y-135356600D03*
X168554400Y-135356600D03*
X169824403Y-135356600D03*
D18*
X167919399Y-132656829D03*
%TD*%
D19*
%TO.C,C11*%
X144246600Y-135441500D03*
X144246600Y-134306500D03*
%TD*%
D20*
%TO.C,C2*%
X107442000Y-105829500D03*
X107442000Y-102704500D03*
%TD*%
D14*
%TO.C,L_TP_1*%
X103428800Y-118262400D03*
%TD*%
D21*
%TO.C,U1*%
X107701500Y-112080000D03*
X107701500Y-113030000D03*
X107701500Y-113980000D03*
X109976500Y-113980000D03*
X109976500Y-113030000D03*
X109976500Y-112080000D03*
%TD*%
D22*
%TO.C,C9*%
X162609700Y-119075200D03*
X160884700Y-119075200D03*
%TD*%
D23*
%TO.C,C30*%
X125171200Y-139293600D03*
X120096200Y-139293600D03*
%TD*%
D14*
%TO.C,9-5V_R1_TP1*%
X162941000Y-136144000D03*
%TD*%
D24*
%TO.C,C4*%
X127762000Y-111597691D03*
X127762000Y-114970309D03*
%TD*%
D25*
%TO.C,C16*%
X155846400Y-135280400D03*
X154711400Y-135280400D03*
%TD*%
D14*
%TO.C,5V_R2_TP1*%
X119253000Y-118364000D03*
%TD*%
D25*
%TO.C,C33*%
X156015500Y-117094000D03*
X154880500Y-117094000D03*
%TD*%
D26*
%TO.C,U7*%
X166174918Y-146108677D03*
X171954954Y-146108677D03*
D27*
X174394883Y-145608550D03*
X174394883Y-149608550D03*
X163734989Y-149608550D03*
X163734989Y-145608550D03*
D28*
X165865038Y-145034000D03*
X166664885Y-145034000D03*
D29*
X167815000Y-145034000D03*
X168815000Y-145034000D03*
X169314872Y-145034000D03*
X170314618Y-145034000D03*
D28*
X171464987Y-145034000D03*
X172265088Y-145034000D03*
D29*
X170815000Y-145034000D03*
X169815000Y-145034000D03*
X168314872Y-145034000D03*
X167314872Y-145034000D03*
%TD*%
D30*
%TO.C,R5*%
X112511500Y-128159000D03*
X114336500Y-128159000D03*
%TD*%
D31*
%TO.C,R15*%
X174498000Y-141962500D03*
X174498000Y-143787500D03*
%TD*%
D32*
%TO.C,R10*%
X171907200Y-114957900D03*
X171907200Y-113762900D03*
%TD*%
D13*
%TO.C,C20*%
X150982600Y-111531400D03*
X156057600Y-111531400D03*
%TD*%
D33*
%TO.C,C17*%
X148844000Y-132231300D03*
X148844000Y-130506300D03*
%TD*%
%TO.C,C14*%
X146583400Y-132256700D03*
X146583400Y-130531700D03*
%TD*%
D31*
%TO.C,R3*%
X113665000Y-111863500D03*
X113665000Y-113688500D03*
%TD*%
D14*
%TO.C,CHRG_SelectR2_TP1*%
X175336200Y-116636800D03*
%TD*%
D25*
%TO.C,C12*%
X146532600Y-135483600D03*
X145397600Y-135483600D03*
%TD*%
D34*
%TO.C,L3*%
X173583600Y-127330200D03*
X173583600Y-122830200D03*
%TD*%
D35*
%TO.C,U8*%
X142936717Y-142600813D03*
X143586705Y-142600813D03*
X144236692Y-142600813D03*
X144886933Y-142600813D03*
X145536921Y-142600813D03*
X146186908Y-142600813D03*
X146836895Y-142600813D03*
X147486883Y-142600813D03*
X147486883Y-136900787D03*
X146836895Y-136900787D03*
X146186908Y-136900787D03*
X145536921Y-136900787D03*
X144886933Y-136900787D03*
X144236692Y-136900787D03*
X143586705Y-136900787D03*
X142936717Y-136900787D03*
D36*
X145211800Y-139750800D03*
%TD*%
D14*
%TO.C,5V_TP1*%
X112191800Y-102260400D03*
%TD*%
D37*
%TO.C,C7*%
X155498800Y-122657700D03*
X155498800Y-124382700D03*
%TD*%
D38*
%TO.C,R13*%
X164490399Y-126889702D03*
X164490399Y-128084702D03*
%TD*%
%TO.C,R4*%
X114935000Y-113702500D03*
X114935000Y-114897500D03*
%TD*%
D30*
%TO.C,R2*%
X111863500Y-110363000D03*
X113688500Y-110363000D03*
%TD*%
D34*
%TO.C,L2*%
X103428800Y-115254600D03*
X103428800Y-110754600D03*
%TD*%
D14*
%TO.C,CHRG_SelectR1_TP1*%
X168122600Y-116916200D03*
%TD*%
D39*
%TO.C,U12*%
X150977600Y-117073676D03*
X150977600Y-118023638D03*
X150977600Y-118973600D03*
X153577550Y-118973600D03*
X153577550Y-117073676D03*
%TD*%
D40*
%TO.C,JP2*%
X114011500Y-120909000D03*
X112711500Y-120909000D03*
%TD*%
D14*
%TO.C,CHRG_VinR_TP1*%
X159943800Y-115265200D03*
%TD*%
D32*
%TO.C,R12*%
X164490399Y-132563800D03*
X164490399Y-131368800D03*
%TD*%
D41*
%TO.C,C5*%
X127818898Y-117856000D03*
X125419102Y-117856000D03*
%TD*%
D39*
%TO.C,U14*%
X128117600Y-137668000D03*
X128117600Y-138617962D03*
X128117600Y-139567924D03*
X130717550Y-139567924D03*
X130717550Y-137668000D03*
%TD*%
D14*
%TO.C,9V_TP1*%
X133858000Y-130048000D03*
%TD*%
D23*
%TO.C,C21*%
X156133800Y-104419400D03*
X151058800Y-104419400D03*
%TD*%
D19*
%TO.C,C15*%
X153593800Y-135238300D03*
X153593800Y-134103300D03*
%TD*%
D30*
%TO.C,R6*%
X112511500Y-122909000D03*
X114336500Y-122909000D03*
%TD*%
D42*
%TO.C,C10*%
X158775403Y-127106600D03*
X158775403Y-132181600D03*
%TD*%
D14*
%TO.C,9-5V_VSense_TP1*%
X162915600Y-139700000D03*
%TD*%
D43*
%TO.C,C1*%
X110159000Y-115951000D03*
X113284000Y-115951000D03*
%TD*%
D44*
%TO.C,U9*%
X170799987Y-141969924D03*
X171449975Y-141969924D03*
X172099962Y-141969924D03*
X172099962Y-139969924D03*
X171449975Y-139969924D03*
X170799987Y-139969924D03*
D45*
X171449975Y-140969924D03*
%TD*%
D30*
%TO.C,R8*%
X156999300Y-122021600D03*
X158824300Y-122021600D03*
%TD*%
D46*
%TO.C,U2*%
X120562560Y-125884108D03*
X120562560Y-125234121D03*
X120562560Y-124584133D03*
X120562560Y-123933892D03*
X118110440Y-123933892D03*
X118110440Y-124584133D03*
X118110440Y-125234121D03*
X118110440Y-125884108D03*
%TD*%
D14*
%TO.C,Shunt_TP1*%
X105086500Y-127409000D03*
%TD*%
D47*
%TO.C,U6*%
X173130974Y-118830800D03*
X172480987Y-118830800D03*
X171831000Y-118830800D03*
X171831000Y-120730724D03*
X172480987Y-120730724D03*
X173130974Y-120730724D03*
%TD*%
D14*
%TO.C,3V3_TP1*%
X128016000Y-102362000D03*
%TD*%
D48*
%TO.C,R17*%
X126632300Y-125857000D03*
X125437300Y-125857000D03*
%TD*%
%TO.C,R16*%
X126632300Y-126856400D03*
X125437300Y-126856400D03*
%TD*%
D49*
%TO.C,C28*%
X130683000Y-135068500D03*
X130683000Y-136203500D03*
%TD*%
D37*
%TO.C,C3*%
X123393200Y-123749900D03*
X123393200Y-125474900D03*
%TD*%
D30*
%TO.C,R7*%
X157001200Y-123520200D03*
X158826200Y-123520200D03*
%TD*%
D14*
%TO.C,CHRG_SelectR1_TP2*%
X168122600Y-113334800D03*
%TD*%
D50*
%TO.C,U3*%
X134761000Y-111531000D03*
X132461000Y-111531000D03*
D51*
X132461000Y-117831000D03*
D50*
X130161000Y-111531000D03*
%TD*%
D14*
%TO.C,9-5V_R2_TP1*%
X162941000Y-143205200D03*
%TD*%
D52*
%TO.C,C8*%
X171755899Y-129227702D03*
X173480899Y-129227702D03*
%TD*%
D40*
%TO.C,JP1*%
X112786500Y-130409000D03*
X114086500Y-130409000D03*
%TD*%
D14*
%TO.C,CHRG_SelectR2_TP2*%
X175336200Y-113106200D03*
%TD*%
D53*
%TO.C,R1*%
X110086500Y-124109000D03*
X110086500Y-127209000D03*
%TD*%
D49*
%TO.C,C32*%
X128117600Y-135009000D03*
X128117600Y-136144000D03*
%TD*%
D32*
%TO.C,R9*%
X171907200Y-117243900D03*
X171907200Y-116048900D03*
%TD*%
D54*
%TO.C,D2*%
X172618399Y-136126600D03*
X172618399Y-131726804D03*
%TD*%
D55*
%TO.C,C23*%
X147692300Y-117068600D03*
X148827300Y-117068600D03*
%TD*%
D54*
%TO.C,D1*%
X107482898Y-108331000D03*
X103083102Y-108331000D03*
%TD*%
D32*
%TO.C,R11*%
X172923200Y-114945800D03*
X172923200Y-113750800D03*
%TD*%
D14*
%TO.C,L_TP_2*%
X102997000Y-104902000D03*
%TD*%
D56*
%TO.C,U5*%
X166700204Y-124447302D03*
X166700204Y-123177299D03*
X166700204Y-121907297D03*
X166700204Y-120637294D03*
X160883592Y-120637294D03*
X160883592Y-121907297D03*
X160883592Y-123177299D03*
X160883592Y-124447302D03*
D57*
X163791898Y-122542298D03*
%TD*%
D14*
%TO.C,5V_FB_TP1*%
X119126000Y-114300000D03*
%TD*%
%TO.C,Shunt_TP2*%
X105086500Y-123909000D03*
%TD*%
D38*
%TO.C,R14*%
X164490399Y-129120300D03*
X164490399Y-130315300D03*
%TD*%
D58*
%TO.C,JP3*%
X114336500Y-124909000D03*
X114336500Y-126209000D03*
%TD*%
D14*
%TO.C,CHRG_VinR_TP2*%
X163576000Y-115265200D03*
%TD*%
D35*
%TO.C,U10*%
X152294834Y-142494000D03*
X152944822Y-142494000D03*
X153594809Y-142494000D03*
X154245050Y-142494000D03*
X154895038Y-142494000D03*
X155545025Y-142494000D03*
X156195012Y-142494000D03*
X156845000Y-142494000D03*
X156845000Y-136793974D03*
X156195012Y-136793974D03*
X155545025Y-136793974D03*
X154895038Y-136793974D03*
X154245050Y-136793974D03*
X153594809Y-136793974D03*
X152944822Y-136793974D03*
X152294834Y-136793974D03*
D36*
X154569917Y-139643987D03*
%TD*%
D52*
%TO.C,C6*%
X166804000Y-137210800D03*
X168529000Y-137210800D03*
%TD*%
D14*
%TO.C,BAT_TP1*%
X131876800Y-102260400D03*
%TD*%
%TO.C,GND_TP1*%
X146278600Y-102946200D03*
%TD*%
D59*
%TO.C,U11*%
X110000000Y-133549975D03*
D60*
X110000000Y-138250000D03*
X110000000Y-142950025D03*
%TD*%
D25*
%TO.C,C13*%
X169579100Y-139471400D03*
X168444100Y-139471400D03*
%TD*%
M02*
