%TF.GenerationSoftware,KiCad,Pcbnew,7.0.1-0*%
%TF.CreationDate,2025-03-26T17:39:27+02:00*%
%TF.ProjectId,EEE3088F_MM_Power_Project,45454533-3038-4384-965f-4d4d5f506f77,rev?*%
%TF.SameCoordinates,Original*%
%TF.FileFunction,Paste,Top*%
%TF.FilePolarity,Positive*%
%FSLAX46Y46*%
G04 Gerber Fmt 4.6, Leading zero omitted, Abs format (unit mm)*
G04 Created by KiCad (PCBNEW 7.0.1-0) date 2025-03-26 17:39:27*
%MOMM*%
%LPD*%
G01*
G04 APERTURE LIST*
G04 Aperture macros list*
%AMRoundRect*
0 Rectangle with rounded corners*
0 $1 Rounding radius*
0 $2 $3 $4 $5 $6 $7 $8 $9 X,Y pos of 4 corners*
0 Add a 4 corners polygon primitive as box body*
4,1,4,$2,$3,$4,$5,$6,$7,$8,$9,$2,$3,0*
0 Add four circle primitives for the rounded corners*
1,1,$1+$1,$2,$3*
1,1,$1+$1,$4,$5*
1,1,$1+$1,$6,$7*
1,1,$1+$1,$8,$9*
0 Add four rect primitives between the rounded corners*
20,1,$1+$1,$2,$3,$4,$5,0*
20,1,$1+$1,$4,$5,$6,$7,0*
20,1,$1+$1,$6,$7,$8,$9,0*
20,1,$1+$1,$8,$9,$2,$3,0*%
G04 Aperture macros list end*
%ADD10RoundRect,0.250000X-1.412500X-0.550000X1.412500X-0.550000X1.412500X0.550000X-1.412500X0.550000X0*%
%ADD11R,1.300000X0.600000*%
%ADD12R,2.500000X3.500000*%
%ADD13RoundRect,0.250000X-0.412500X-0.650000X0.412500X-0.650000X0.412500X0.650000X-0.412500X0.650000X0*%
%ADD14RoundRect,0.150000X-0.512500X-0.150000X0.512500X-0.150000X0.512500X0.150000X-0.512500X0.150000X0*%
%ADD15RoundRect,0.237500X-0.300000X-0.237500X0.300000X-0.237500X0.300000X0.237500X-0.300000X0.237500X0*%
%ADD16R,1.757506X1.296012*%
%ADD17RoundRect,0.155000X-0.212500X-0.155000X0.212500X-0.155000X0.212500X0.155000X-0.212500X0.155000X0*%
%ADD18R,2.020015X1.500000*%
%ADD19R,0.500000X1.150013*%
%ADD20R,0.259995X1.150013*%
%ADD21RoundRect,0.237500X-0.250000X-0.237500X0.250000X-0.237500X0.250000X0.237500X-0.250000X0.237500X0*%
%ADD22RoundRect,0.160000X-0.197500X-0.160000X0.197500X-0.160000X0.197500X0.160000X-0.197500X0.160000X0*%
%ADD23R,1.100000X3.700000*%
%ADD24O,0.350013X1.300000*%
%ADD25R,2.740005X2.740005*%
%ADD26R,0.500000X0.900000*%
%ADD27R,1.500000X1.358903*%
%ADD28R,0.500000X0.350013*%
%ADD29R,1.000000X1.600000*%
%ADD30O,1.251994X0.364008*%
%ADD31R,0.364008X0.650013*%
%ADD32R,2.000000X1.500000*%
%ADD33R,2.000000X3.800000*%
%ADD34R,2.000000X2.000000*%
%ADD35R,0.600000X1.200000*%
%ADD36R,3.300000X2.400000*%
G04 APERTURE END LIST*
D10*
%TO.C,C31*%
X178168503Y-51175050D03*
X183243503Y-51175050D03*
%TD*%
D11*
%TO.C,U4*%
X111335084Y-81697148D03*
X111335084Y-82967151D03*
X111335084Y-84237153D03*
X111335084Y-85507156D03*
X116734880Y-85507156D03*
X116734880Y-84237153D03*
X116734880Y-82967151D03*
X116734880Y-81697148D03*
D12*
X114035109Y-83602152D03*
%TD*%
D13*
%TO.C,C2*%
X119317500Y-84800000D03*
X122442500Y-84800000D03*
%TD*%
D14*
%TO.C,U1*%
X104962500Y-91320000D03*
X104962500Y-92270000D03*
X104962500Y-93220000D03*
X107237500Y-93220000D03*
X107237500Y-92270000D03*
X107237500Y-91320000D03*
%TD*%
D15*
%TO.C,C9*%
X92887500Y-90690000D03*
X94612500Y-90690000D03*
%TD*%
D10*
%TO.C,C30*%
X178168503Y-43025050D03*
X183243503Y-43025050D03*
%TD*%
D16*
%TO.C,C4*%
X121565691Y-54722000D03*
X124938309Y-54722000D03*
%TD*%
D17*
%TO.C,C33*%
X190738503Y-63945050D03*
X191873503Y-63945050D03*
%TD*%
D18*
%TO.C,U7*%
X197850904Y-40599606D03*
X197850904Y-44599606D03*
X187191010Y-44599606D03*
X187191010Y-40599606D03*
D19*
X189321059Y-40025056D03*
X190120906Y-40025056D03*
D20*
X191271021Y-40025056D03*
X192271021Y-40025056D03*
X192770893Y-40025056D03*
X193770639Y-40025056D03*
D19*
X194921008Y-40025056D03*
X195721109Y-40025056D03*
D20*
X194271021Y-40025056D03*
X193271021Y-40025056D03*
X191770893Y-40025056D03*
X190770893Y-40025056D03*
%TD*%
D21*
%TO.C,R5*%
X97187500Y-83160000D03*
X99012500Y-83160000D03*
%TD*%
%TO.C,R15*%
X166700000Y-58490000D03*
X168525000Y-58490000D03*
%TD*%
D22*
%TO.C,R10*%
X101302500Y-86360000D03*
X102497500Y-86360000D03*
%TD*%
D10*
%TO.C,C20*%
X157925000Y-58800000D03*
X163000000Y-58800000D03*
%TD*%
D23*
%TO.C,L1*%
X111100000Y-71315000D03*
X114100000Y-71315000D03*
%TD*%
D15*
%TO.C,C17*%
X166750000Y-55980000D03*
X168475000Y-55980000D03*
%TD*%
%TO.C,C14*%
X166750000Y-53470000D03*
X168475000Y-53470000D03*
%TD*%
D21*
%TO.C,R3*%
X97187500Y-80650000D03*
X99012500Y-80650000D03*
%TD*%
D24*
%TO.C,U8*%
X187104943Y-54920076D03*
X187754931Y-54920076D03*
X188404918Y-54920076D03*
X189055159Y-54920076D03*
X189705147Y-54920076D03*
X190355134Y-54920076D03*
X191005121Y-54920076D03*
X191655109Y-54920076D03*
X191655109Y-49220050D03*
X191005121Y-49220050D03*
X190355134Y-49220050D03*
X189705147Y-49220050D03*
X189055159Y-49220050D03*
X188404918Y-49220050D03*
X187754931Y-49220050D03*
X187104943Y-49220050D03*
D25*
X189380026Y-52070063D03*
%TD*%
D15*
%TO.C,C7*%
X92887500Y-85670000D03*
X94612500Y-85670000D03*
%TD*%
D22*
%TO.C,R13*%
X101302500Y-92330000D03*
X102497500Y-92330000D03*
%TD*%
%TO.C,R4*%
X101302500Y-82380000D03*
X102497500Y-82380000D03*
%TD*%
D21*
%TO.C,R2*%
X92837500Y-93200000D03*
X94662500Y-93200000D03*
%TD*%
D26*
%TO.C,U12*%
X187136044Y-60000000D03*
X188086006Y-60000000D03*
X189035968Y-60000000D03*
X189035968Y-57400050D03*
X187136044Y-57400050D03*
%TD*%
D22*
%TO.C,R12*%
X101302500Y-90340000D03*
X102497500Y-90340000D03*
%TD*%
D27*
%TO.C,C5*%
X120975000Y-66195107D03*
X123374796Y-66195107D03*
%TD*%
D26*
%TO.C,U14*%
X196100076Y-60000000D03*
X197050038Y-60000000D03*
X198000000Y-60000000D03*
X198000000Y-57400050D03*
X196100076Y-57400050D03*
%TD*%
D10*
%TO.C,C21*%
X157925000Y-66950000D03*
X163000000Y-66950000D03*
%TD*%
D21*
%TO.C,R6*%
X97187500Y-85670000D03*
X99012500Y-85670000D03*
%TD*%
D10*
%TO.C,C10*%
X112212500Y-64420000D03*
X117287500Y-64420000D03*
%TD*%
D13*
%TO.C,C1*%
X119317500Y-81450000D03*
X122442500Y-81450000D03*
%TD*%
D28*
%TO.C,U9*%
X186957050Y-62108007D03*
X186957050Y-62757995D03*
X186957050Y-63407982D03*
X188957050Y-63407982D03*
X188957050Y-62757995D03*
X188957050Y-62108007D03*
D29*
X187957050Y-62757995D03*
%TD*%
D21*
%TO.C,R8*%
X97187500Y-90690000D03*
X99012500Y-90690000D03*
%TD*%
D30*
%TO.C,U2*%
X123303117Y-63422521D03*
X123303117Y-62772534D03*
X123303117Y-62122546D03*
X123303117Y-61472305D03*
X120850997Y-61472305D03*
X120850997Y-62122546D03*
X120850997Y-62772534D03*
X120850997Y-63422521D03*
%TD*%
D31*
%TO.C,U6*%
X120927465Y-58889930D03*
X121577452Y-58889930D03*
X122227439Y-58889930D03*
X122227439Y-56990006D03*
X121577452Y-56990006D03*
X120927465Y-56990006D03*
%TD*%
D17*
%TO.C,C28*%
X166475000Y-49260000D03*
X167610000Y-49260000D03*
%TD*%
D15*
%TO.C,C3*%
X92887500Y-80650000D03*
X94612500Y-80650000D03*
%TD*%
D21*
%TO.C,R7*%
X97187500Y-88180000D03*
X99012500Y-88180000D03*
%TD*%
D23*
%TO.C,L2*%
X111100000Y-76955000D03*
X114100000Y-76955000D03*
%TD*%
D32*
%TO.C,U3*%
X111550000Y-53920000D03*
X111550000Y-56220000D03*
D33*
X117850000Y-56220000D03*
D32*
X111550000Y-58520000D03*
%TD*%
D15*
%TO.C,C8*%
X92887500Y-88180000D03*
X94612500Y-88180000D03*
%TD*%
D22*
%TO.C,R1*%
X101302500Y-80390000D03*
X102497500Y-80390000D03*
%TD*%
D17*
%TO.C,C32*%
X190738503Y-61975050D03*
X191873503Y-61975050D03*
%TD*%
D22*
%TO.C,R9*%
X101302500Y-84370000D03*
X102497500Y-84370000D03*
%TD*%
D34*
%TO.C,D2*%
X116925000Y-74502239D03*
X121324796Y-74502239D03*
%TD*%
D17*
%TO.C,C23*%
X166475000Y-43350000D03*
X167610000Y-43350000D03*
%TD*%
D34*
%TO.C,D1*%
X116925000Y-70497413D03*
X121324796Y-70497413D03*
%TD*%
D22*
%TO.C,R11*%
X101302500Y-88350000D03*
X102497500Y-88350000D03*
%TD*%
D35*
%TO.C,U5*%
X111697148Y-93691612D03*
X112967151Y-93691612D03*
X114237153Y-93691612D03*
X115507156Y-93691612D03*
X115507156Y-87875000D03*
X114237153Y-87875000D03*
X112967151Y-87875000D03*
X111697148Y-87875000D03*
D36*
X113602152Y-90783306D03*
%TD*%
D22*
%TO.C,R14*%
X101302500Y-94320000D03*
X102497500Y-94320000D03*
%TD*%
D24*
%TO.C,U10*%
X211199834Y-64950026D03*
X211849822Y-64950026D03*
X212499809Y-64950026D03*
X213150050Y-64950026D03*
X213800038Y-64950026D03*
X214450025Y-64950026D03*
X215100012Y-64950026D03*
X215750000Y-64950026D03*
X215750000Y-59250000D03*
X215100012Y-59250000D03*
X214450025Y-59250000D03*
X213800038Y-59250000D03*
X213150050Y-59250000D03*
X212499809Y-59250000D03*
X211849822Y-59250000D03*
X211199834Y-59250000D03*
D25*
X213474917Y-62100013D03*
%TD*%
D15*
%TO.C,C6*%
X92887500Y-83160000D03*
X94612500Y-83160000D03*
%TD*%
D17*
%TO.C,C13*%
X166475000Y-39410000D03*
X167610000Y-39410000D03*
%TD*%
M02*
