%TF.GenerationSoftware,KiCad,Pcbnew,7.0.1-0*%
%TF.CreationDate,2025-03-26T17:39:27+02:00*%
%TF.ProjectId,EEE3088F_MM_Power_Project,45454533-3038-4384-965f-4d4d5f506f77,rev?*%
%TF.SameCoordinates,Original*%
%TF.FileFunction,Copper,L1,Top*%
%TF.FilePolarity,Positive*%
%FSLAX46Y46*%
G04 Gerber Fmt 4.6, Leading zero omitted, Abs format (unit mm)*
G04 Created by KiCad (PCBNEW 7.0.1-0) date 2025-03-26 17:39:27*
%MOMM*%
%LPD*%
G01*
G04 APERTURE LIST*
G04 Aperture macros list*
%AMRoundRect*
0 Rectangle with rounded corners*
0 $1 Rounding radius*
0 $2 $3 $4 $5 $6 $7 $8 $9 X,Y pos of 4 corners*
0 Add a 4 corners polygon primitive as box body*
4,1,4,$2,$3,$4,$5,$6,$7,$8,$9,$2,$3,0*
0 Add four circle primitives for the rounded corners*
1,1,$1+$1,$2,$3*
1,1,$1+$1,$4,$5*
1,1,$1+$1,$6,$7*
1,1,$1+$1,$8,$9*
0 Add four rect primitives between the rounded corners*
20,1,$1+$1,$2,$3,$4,$5,0*
20,1,$1+$1,$4,$5,$6,$7,0*
20,1,$1+$1,$6,$7,$8,$9,0*
20,1,$1+$1,$8,$9,$2,$3,0*%
G04 Aperture macros list end*
%TA.AperFunction,NonConductor*%
%ADD10C,0.200000*%
%TD*%
%TA.AperFunction,SMDPad,CuDef*%
%ADD11RoundRect,0.250000X-1.412500X-0.550000X1.412500X-0.550000X1.412500X0.550000X-1.412500X0.550000X0*%
%TD*%
%TA.AperFunction,SMDPad,CuDef*%
%ADD12R,2.500000X2.500000*%
%TD*%
%TA.AperFunction,ComponentPad*%
%ADD13RoundRect,0.250000X-0.625000X0.350000X-0.625000X-0.350000X0.625000X-0.350000X0.625000X0.350000X0*%
%TD*%
%TA.AperFunction,ComponentPad*%
%ADD14O,1.750000X1.200000*%
%TD*%
%TA.AperFunction,SMDPad,CuDef*%
%ADD15R,1.300000X0.600000*%
%TD*%
%TA.AperFunction,SMDPad,CuDef*%
%ADD16R,2.500000X3.500000*%
%TD*%
%TA.AperFunction,SMDPad,CuDef*%
%ADD17RoundRect,0.250000X-0.412500X-0.650000X0.412500X-0.650000X0.412500X0.650000X-0.412500X0.650000X0*%
%TD*%
%TA.AperFunction,SMDPad,CuDef*%
%ADD18RoundRect,0.150000X-0.512500X-0.150000X0.512500X-0.150000X0.512500X0.150000X-0.512500X0.150000X0*%
%TD*%
%TA.AperFunction,SMDPad,CuDef*%
%ADD19RoundRect,0.237500X-0.300000X-0.237500X0.300000X-0.237500X0.300000X0.237500X-0.300000X0.237500X0*%
%TD*%
%TA.AperFunction,SMDPad,CuDef*%
%ADD20R,1.757506X1.296012*%
%TD*%
%TA.AperFunction,SMDPad,CuDef*%
%ADD21RoundRect,0.155000X-0.212500X-0.155000X0.212500X-0.155000X0.212500X0.155000X-0.212500X0.155000X0*%
%TD*%
%TA.AperFunction,SMDPad,CuDef*%
%ADD22R,2.020015X1.500000*%
%TD*%
%TA.AperFunction,SMDPad,CuDef*%
%ADD23R,0.500000X1.150013*%
%TD*%
%TA.AperFunction,SMDPad,CuDef*%
%ADD24R,0.259995X1.150013*%
%TD*%
%TA.AperFunction,SMDPad,CuDef*%
%ADD25RoundRect,0.237500X-0.250000X-0.237500X0.250000X-0.237500X0.250000X0.237500X-0.250000X0.237500X0*%
%TD*%
%TA.AperFunction,SMDPad,CuDef*%
%ADD26RoundRect,0.160000X-0.197500X-0.160000X0.197500X-0.160000X0.197500X0.160000X-0.197500X0.160000X0*%
%TD*%
%TA.AperFunction,SMDPad,CuDef*%
%ADD27R,1.100000X3.700000*%
%TD*%
%TA.AperFunction,SMDPad,CuDef*%
%ADD28O,0.350013X1.300000*%
%TD*%
%TA.AperFunction,SMDPad,CuDef*%
%ADD29R,2.740005X2.740005*%
%TD*%
%TA.AperFunction,SMDPad,CuDef*%
%ADD30R,0.500000X0.900000*%
%TD*%
%TA.AperFunction,SMDPad,CuDef*%
%ADD31R,1.000000X1.500000*%
%TD*%
%TA.AperFunction,SMDPad,CuDef*%
%ADD32R,1.500000X1.358903*%
%TD*%
%TA.AperFunction,SMDPad,CuDef*%
%ADD33R,0.500000X0.350013*%
%TD*%
%TA.AperFunction,SMDPad,CuDef*%
%ADD34R,1.000000X1.600000*%
%TD*%
%TA.AperFunction,SMDPad,CuDef*%
%ADD35O,1.251994X0.364008*%
%TD*%
%TA.AperFunction,SMDPad,CuDef*%
%ADD36R,0.364008X0.650013*%
%TD*%
%TA.AperFunction,SMDPad,CuDef*%
%ADD37R,2.000000X1.500000*%
%TD*%
%TA.AperFunction,SMDPad,CuDef*%
%ADD38R,2.000000X3.800000*%
%TD*%
%TA.AperFunction,SMDPad,CuDef*%
%ADD39R,2.000000X2.000000*%
%TD*%
%TA.AperFunction,SMDPad,CuDef*%
%ADD40R,0.600000X1.200000*%
%TD*%
%TA.AperFunction,SMDPad,CuDef*%
%ADD41R,3.300000X2.400000*%
%TD*%
%TA.AperFunction,ComponentPad*%
%ADD42R,2.100000X2.500000*%
%TD*%
%TA.AperFunction,ComponentPad*%
%ADD43C,2.500000*%
%TD*%
%TA.AperFunction,ComponentPad*%
%ADD44R,1.700000X1.700000*%
%TD*%
%TA.AperFunction,ComponentPad*%
%ADD45O,1.700000X1.700000*%
%TD*%
G04 APERTURE END LIST*
D10*
X100000000Y-100000000D02*
X177300000Y-100000000D01*
X177300000Y-152950000D01*
X100000000Y-152950000D01*
X100000000Y-100000000D01*
D11*
%TO.P,C31,1*%
%TO.N,Net-(C30-Pad2)*%
X178168503Y-51175050D03*
%TO.P,C31,2*%
%TO.N,GND*%
X183243503Y-51175050D03*
%TD*%
D12*
%TO.P,5V_R1_TP1,1,1*%
%TO.N,+5V*%
X93850000Y-63470000D03*
%TD*%
D13*
%TO.P,J1,1,Pin_1*%
%TO.N,/Battery_In*%
X111250000Y-148250000D03*
D14*
%TO.P,J1,2,Pin_2*%
%TO.N,GND*%
X111250000Y-150250000D03*
%TD*%
D15*
%TO.P,U4,1,BOOT*%
%TO.N,Net-(U4-BOOT)*%
X111335084Y-81697148D03*
%TO.P,U4,2,NC*%
%TO.N,unconnected-(U4-NC-Pad2)*%
X111335084Y-82967151D03*
%TO.P,U4,3,NC*%
%TO.N,unconnected-(U4-NC-Pad3)*%
X111335084Y-84237153D03*
%TO.P,U4,4,VSENSE*%
%TO.N,Net-(U4-VSENSE)*%
X111335084Y-85507156D03*
%TO.P,U4,5,ENA*%
%TO.N,unconnected-(U4-ENA-Pad5)*%
X116734880Y-85507156D03*
%TO.P,U4,6,GND*%
%TO.N,GND*%
X116734880Y-84237153D03*
%TO.P,U4,7,VIN*%
%TO.N,+9V*%
X116734880Y-82967151D03*
%TO.P,U4,8,PH*%
%TO.N,/PH_Pin*%
X116734880Y-81697148D03*
D16*
%TO.P,U4,9,PowerPAD*%
%TO.N,GND*%
X114035109Y-83602152D03*
%TD*%
D17*
%TO.P,C2,1*%
%TO.N,+5V*%
X119317500Y-84800000D03*
%TO.P,C2,2*%
%TO.N,GND*%
X122442500Y-84800000D03*
%TD*%
D12*
%TO.P,L_TP_1,1,1*%
%TO.N,/Battery_Out_After_Switch*%
X102950000Y-77120000D03*
%TD*%
D18*
%TO.P,U1,1,SW*%
%TO.N,Net-(D1-A)*%
X104962500Y-91320000D03*
%TO.P,U1,2,GND*%
%TO.N,GND*%
X104962500Y-92270000D03*
%TO.P,U1,3,FB*%
%TO.N,Net-(U1-FB)*%
X104962500Y-93220000D03*
%TO.P,U1,4,EN*%
%TO.N,/Battery_Out_After_Switch*%
X107237500Y-93220000D03*
%TO.P,U1,5,IN*%
X107237500Y-92270000D03*
%TO.P,U1,6,NC*%
%TO.N,unconnected-(U1-NC-Pad6)*%
X107237500Y-91320000D03*
%TD*%
D19*
%TO.P,C9,1*%
%TO.N,GND*%
X92887500Y-90690000D03*
%TO.P,C9,2*%
%TO.N,/Battery_Out_Before_Switch*%
X94612500Y-90690000D03*
%TD*%
D11*
%TO.P,C30,1*%
%TO.N,/EXT_LOAD1_OUT*%
X178168503Y-43025050D03*
%TO.P,C30,2*%
%TO.N,Net-(C30-Pad2)*%
X183243503Y-43025050D03*
%TD*%
D12*
%TO.P,9-5V_R1_TP1,1,1*%
%TO.N,/Battey_Charger_VDD*%
X93850000Y-77120000D03*
%TD*%
D20*
%TO.P,C4,1,1*%
%TO.N,+5V*%
X121565691Y-54722000D03*
%TO.P,C4,2,2*%
%TO.N,GND*%
X124938309Y-54722000D03*
%TD*%
D12*
%TO.P,5V_R2_TP1,1,1*%
%TO.N,GND*%
X93850000Y-68020000D03*
%TD*%
D21*
%TO.P,C33,1*%
%TO.N,GND*%
X190738503Y-63945050D03*
%TO.P,C33,2*%
%TO.N,+5V*%
X191873503Y-63945050D03*
%TD*%
D22*
%TO.P,U7,17,EH*%
%TO.N,GND*%
X197850904Y-40599606D03*
%TO.P,U7,18,EH*%
X197850904Y-44599606D03*
%TO.P,U7,19,EH*%
X187191010Y-44599606D03*
%TO.P,U7,20,EH*%
X187191010Y-40599606D03*
D23*
%TO.P,U7,A1,GND*%
X189321059Y-40025056D03*
%TO.P,U7,A4,VBUS*%
%TO.N,+9V*%
X190120906Y-40025056D03*
D24*
%TO.P,U7,A5,CC1*%
%TO.N,/CC1*%
X191271021Y-40025056D03*
%TO.P,U7,A6,DP1*%
%TO.N,/DP2*%
X192271021Y-40025056D03*
%TO.P,U7,A7,DN1*%
%TO.N,/DN2*%
X192770893Y-40025056D03*
%TO.P,U7,A8,SBU1*%
%TO.N,unconnected-(U7-SBU1-PadA8)*%
X193770639Y-40025056D03*
D23*
%TO.P,U7,A9,VBUS*%
%TO.N,+9V*%
X194921008Y-40025056D03*
%TO.P,U7,A12,GND*%
%TO.N,GND*%
X195721109Y-40025056D03*
D24*
%TO.P,U7,B5,CC2*%
%TO.N,/CC2*%
X194271021Y-40025056D03*
%TO.P,U7,B6,DP2*%
%TO.N,/DP1*%
X193271021Y-40025056D03*
%TO.P,U7,B7,DN2*%
%TO.N,/DN1*%
X191770893Y-40025056D03*
%TO.P,U7,B8,SBU2*%
%TO.N,unconnected-(U7-SBU2-PadB8)*%
X190770893Y-40025056D03*
%TD*%
D25*
%TO.P,R5,1*%
%TO.N,/Battery_In*%
X97187500Y-83160000D03*
%TO.P,R5,2*%
%TO.N,Net-(JP1-B)*%
X99012500Y-83160000D03*
%TD*%
%TO.P,R15,1*%
%TO.N,Net-(U9-VSET)*%
X166700000Y-58490000D03*
%TO.P,R15,2*%
%TO.N,GND*%
X168525000Y-58490000D03*
%TD*%
D26*
%TO.P,R10,1*%
%TO.N,Net-(R10-Pad1)*%
X101302500Y-86360000D03*
%TO.P,R10,2*%
%TO.N,GND*%
X102497500Y-86360000D03*
%TD*%
D11*
%TO.P,C20,1*%
%TO.N,/EXT_LOAD2_OUT*%
X157925000Y-58800000D03*
%TO.P,C20,2*%
%TO.N,Net-(C20-Pad2)*%
X163000000Y-58800000D03*
%TD*%
D27*
%TO.P,L1,1*%
%TO.N,/Battery_Out_After_Switch*%
X111100000Y-71315000D03*
%TO.P,L1,2*%
%TO.N,Net-(D1-A)*%
X114100000Y-71315000D03*
%TD*%
D19*
%TO.P,C17,1*%
%TO.N,/Battery_Out_After_Switch*%
X166750000Y-55980000D03*
%TO.P,C17,2*%
%TO.N,GND*%
X168475000Y-55980000D03*
%TD*%
%TO.P,C14,1*%
%TO.N,/Battery_Out_After_Switch*%
X166750000Y-53470000D03*
%TO.P,C14,2*%
%TO.N,GND*%
X168475000Y-53470000D03*
%TD*%
D25*
%TO.P,R3,1*%
%TO.N,Net-(R2-Pad2)*%
X97187500Y-80650000D03*
%TO.P,R3,2*%
%TO.N,Net-(U1-FB)*%
X99012500Y-80650000D03*
%TD*%
D12*
%TO.P,CHRG_SelectR2_TP1,1,1*%
%TO.N,Net-(U6-NO)*%
X102950000Y-54370000D03*
%TD*%
D28*
%TO.P,U8,1,nSleep*%
%TO.N,+3V3*%
X187104943Y-54920076D03*
%TO.P,U8,2,AOUT1*%
%TO.N,/AOUT1 (U1)*%
X187754931Y-54920076D03*
%TO.P,U8,3,AISEN*%
%TO.N,GND*%
X188404918Y-54920076D03*
%TO.P,U8,4,AOUT2*%
%TO.N,/AOUT2 (U1)*%
X189055159Y-54920076D03*
%TO.P,U8,5,BOUT2*%
%TO.N,/BOUT2 (U1)*%
X189705147Y-54920076D03*
%TO.P,U8,6,BISEN*%
%TO.N,GND*%
X190355134Y-54920076D03*
%TO.P,U8,7,BOUT1*%
%TO.N,/BOUT1 (U1)*%
X191005121Y-54920076D03*
%TO.P,U8,8,nFault*%
%TO.N,unconnected-(U8-nFault-Pad8)*%
X191655109Y-54920076D03*
%TO.P,U8,9,BIN1*%
%TO.N,/BIN1 (U1)*%
X191655109Y-49220050D03*
%TO.P,U8,10,BIN2*%
%TO.N,/BIN2 (U1)*%
X191005121Y-49220050D03*
%TO.P,U8,11,VCP*%
%TO.N,Net-(U8-VCP)*%
X190355134Y-49220050D03*
%TO.P,U8,12,VM*%
%TO.N,/Battery_Out_After_Switch*%
X189705147Y-49220050D03*
%TO.P,U8,13,GND*%
%TO.N,GND*%
X189055159Y-49220050D03*
%TO.P,U8,14,VINT*%
%TO.N,Net-(U8-VINT)*%
X188404918Y-49220050D03*
%TO.P,U8,15,AIN2*%
%TO.N,/AIN2 (U1)*%
X187754931Y-49220050D03*
%TO.P,U8,16,AIN1*%
%TO.N,/AIN1 (U1)*%
X187104943Y-49220050D03*
D29*
%TO.P,U8,17,GND*%
%TO.N,GND*%
X189380026Y-52070063D03*
%TD*%
D12*
%TO.P,5V_TP1,1,1*%
%TO.N,+5V*%
X93850000Y-72570000D03*
%TD*%
D19*
%TO.P,C7,1*%
%TO.N,Net-(C7-Pad1)*%
X92887500Y-85670000D03*
%TO.P,C7,2*%
%TO.N,/Battey_Charger_VDD*%
X94612500Y-85670000D03*
%TD*%
D26*
%TO.P,R13,1*%
%TO.N,/Battey_Charger_VDD*%
X101302500Y-92330000D03*
%TO.P,R13,2*%
%TO.N,Net-(U4-VSENSE)*%
X102497500Y-92330000D03*
%TD*%
%TO.P,R4,1*%
%TO.N,Net-(U1-FB)*%
X101302500Y-82380000D03*
%TO.P,R4,2*%
%TO.N,GND*%
X102497500Y-82380000D03*
%TD*%
D25*
%TO.P,R2,1*%
%TO.N,+5V*%
X92837500Y-93200000D03*
%TO.P,R2,2*%
%TO.N,Net-(R2-Pad2)*%
X94662500Y-93200000D03*
%TD*%
D12*
%TO.P,CHRG_SelectR1_TP1,1,1*%
%TO.N,Net-(U6-NC)*%
X98400000Y-72570000D03*
%TD*%
D30*
%TO.P,U12,1,OUT*%
%TO.N,/EXT_LOAD2_OUT*%
X187136044Y-60000000D03*
%TO.P,U12,2,GND*%
%TO.N,GND*%
X188086006Y-60000000D03*
%TO.P,U12,3,FLG*%
%TO.N,unconnected-(U12-FLG-Pad3)*%
X189035968Y-60000000D03*
%TO.P,U12,4,EN*%
%TO.N,/CTRL_EXT_LOAD2*%
X189035968Y-57400050D03*
%TO.P,U12,5,IN*%
%TO.N,+5V*%
X187136044Y-57400050D03*
%TD*%
D31*
%TO.P,JP2,1,A*%
%TO.N,Net-(JP2-A)*%
X105050000Y-84720000D03*
%TO.P,JP2,2,B*%
%TO.N,/Battery_Out_Before_Switch*%
X106350000Y-84720000D03*
%TD*%
D12*
%TO.P,CHRG_VinR_TP1,1,1*%
%TO.N,Net-(C7-Pad1)*%
X102950000Y-63470000D03*
%TD*%
D26*
%TO.P,R12,1*%
%TO.N,GND*%
X101302500Y-90340000D03*
%TO.P,R12,2*%
%TO.N,Net-(R12-Pad2)*%
X102497500Y-90340000D03*
%TD*%
D32*
%TO.P,C5,1,1*%
%TO.N,+3V3*%
X120975000Y-66195107D03*
%TO.P,C5,2,2*%
%TO.N,GND*%
X123374796Y-66195107D03*
%TD*%
D30*
%TO.P,U14,1,OUT*%
%TO.N,/EXT_LOAD1_OUT*%
X196100076Y-60000000D03*
%TO.P,U14,2,GND*%
%TO.N,GND*%
X197050038Y-60000000D03*
%TO.P,U14,3,FLG*%
%TO.N,unconnected-(U14-FLG-Pad3)*%
X198000000Y-60000000D03*
%TO.P,U14,4,EN*%
%TO.N,/CTRL_EXT_LOAD1*%
X198000000Y-57400050D03*
%TO.P,U14,5,IN*%
%TO.N,+5V*%
X196100076Y-57400050D03*
%TD*%
D12*
%TO.P,9V_TP1,1,1*%
%TO.N,+9V*%
X98400000Y-63470000D03*
%TD*%
D11*
%TO.P,C21,1*%
%TO.N,Net-(C20-Pad2)*%
X157925000Y-66950000D03*
%TO.P,C21,2*%
%TO.N,GND*%
X163000000Y-66950000D03*
%TD*%
D25*
%TO.P,R6,1*%
%TO.N,/Battery_Out_Before_Switch*%
X97187500Y-85670000D03*
%TO.P,R6,2*%
%TO.N,Net-(JP2-A)*%
X99012500Y-85670000D03*
%TD*%
D11*
%TO.P,C10,1*%
%TO.N,/Battey_Charger_VDD*%
X112212500Y-64420000D03*
%TO.P,C10,2*%
%TO.N,GND*%
X117287500Y-64420000D03*
%TD*%
D12*
%TO.P,9-5V_VSense_TP1,1,1*%
%TO.N,Net-(U4-VSENSE)*%
X98400000Y-58920000D03*
%TD*%
D17*
%TO.P,C1,1*%
%TO.N,/Battery_Out_After_Switch*%
X119317500Y-81450000D03*
%TO.P,C1,2*%
%TO.N,GND*%
X122442500Y-81450000D03*
%TD*%
D33*
%TO.P,U9,1,CC1*%
%TO.N,/CC1*%
X186957050Y-62108007D03*
%TO.P,U9,2,VUSB*%
%TO.N,+9V*%
X186957050Y-62757995D03*
%TO.P,U9,3,VSET*%
%TO.N,Net-(U9-VSET)*%
X186957050Y-63407982D03*
%TO.P,U9,4,D+*%
%TO.N,/DP1{slash}DP2*%
X188957050Y-63407982D03*
%TO.P,U9,5,D-*%
%TO.N,/DN1{slash}DN2*%
X188957050Y-62757995D03*
%TO.P,U9,6,CC2*%
%TO.N,/CC2*%
X188957050Y-62108007D03*
D34*
%TO.P,U9,7,GND*%
%TO.N,GND*%
X187957050Y-62757995D03*
%TD*%
D25*
%TO.P,R8,1*%
%TO.N,Net-(C7-Pad1)*%
X97187500Y-90690000D03*
%TO.P,R8,2*%
%TO.N,GND*%
X99012500Y-90690000D03*
%TD*%
D35*
%TO.P,U2,1,IN+*%
%TO.N,Net-(JP1-B)*%
X123303117Y-63422521D03*
%TO.P,U2,2,IN-*%
%TO.N,Net-(JP2-A)*%
X123303117Y-62772534D03*
%TO.P,U2,3,GND*%
%TO.N,GND*%
X123303117Y-62122546D03*
%TO.P,U2,4,VS*%
%TO.N,+3V3*%
X123303117Y-61472305D03*
%TO.P,U2,5,SCL*%
%TO.N,/I2C1_SCL*%
X120850997Y-61472305D03*
%TO.P,U2,6,SDA*%
%TO.N,/I2C1_SDA*%
X120850997Y-62122546D03*
%TO.P,U2,7,A0*%
%TO.N,GND*%
X120850997Y-62772534D03*
%TO.P,U2,8,A1*%
%TO.N,+3V3*%
X120850997Y-63422521D03*
%TD*%
D12*
%TO.P,Shunt_TP1,1,1*%
%TO.N,/Battery_In*%
X107500000Y-58920000D03*
%TD*%
D36*
%TO.P,U6,1,NO*%
%TO.N,Net-(U6-NO)*%
X120927465Y-58889930D03*
%TO.P,U6,2,GND*%
%TO.N,GND*%
X121577452Y-58889930D03*
%TO.P,U6,3,NC*%
%TO.N,Net-(U6-NC)*%
X122227439Y-58889930D03*
%TO.P,U6,4,COM*%
%TO.N,Net-(U5-PROG)*%
X122227439Y-56990006D03*
%TO.P,U6,5,V+*%
%TO.N,+5V*%
X121577452Y-56990006D03*
%TO.P,U6,6,IN*%
%TO.N,/Fast_Charge_CTRL*%
X120927465Y-56990006D03*
%TD*%
D12*
%TO.P,3V3_TP1,1,1*%
%TO.N,+3V3*%
X93850000Y-54370000D03*
%TD*%
D21*
%TO.P,C28,1*%
%TO.N,GND*%
X166475000Y-49260000D03*
%TO.P,C28,2*%
%TO.N,+5V*%
X167610000Y-49260000D03*
%TD*%
D19*
%TO.P,C3,1*%
%TO.N,+3V3*%
X92887500Y-80650000D03*
%TO.P,C3,2*%
%TO.N,GND*%
X94612500Y-80650000D03*
%TD*%
D25*
%TO.P,R7,1*%
%TO.N,Net-(C7-Pad1)*%
X97187500Y-88180000D03*
%TO.P,R7,2*%
%TO.N,GND*%
X99012500Y-88180000D03*
%TD*%
D27*
%TO.P,L2,1*%
%TO.N,/PH_Pin*%
X111100000Y-76955000D03*
%TO.P,L2,2*%
%TO.N,/Battey_Charger_VDD*%
X114100000Y-76955000D03*
%TD*%
D12*
%TO.P,CHRG_SelectR1_TP2,1,1*%
%TO.N,GND*%
X98400000Y-77120000D03*
%TD*%
D37*
%TO.P,U3,1,GND*%
%TO.N,GND*%
X111550000Y-53920000D03*
%TO.P,U3,2,VO*%
%TO.N,+3V3*%
X111550000Y-56220000D03*
D38*
X117850000Y-56220000D03*
D37*
%TO.P,U3,3,VI*%
%TO.N,+5V*%
X111550000Y-58520000D03*
%TD*%
D12*
%TO.P,9-5V_R2_TP1,1,1*%
%TO.N,GND*%
X98400000Y-54370000D03*
%TD*%
D19*
%TO.P,C8,1*%
%TO.N,Net-(U4-BOOT)*%
X92887500Y-88180000D03*
%TO.P,C8,2*%
%TO.N,/PH_Pin*%
X94612500Y-88180000D03*
%TD*%
D31*
%TO.P,JP1,1,A*%
%TO.N,/Battery_In*%
X105050000Y-81170000D03*
%TO.P,JP1,2,B*%
%TO.N,Net-(JP1-B)*%
X106350000Y-81170000D03*
%TD*%
D12*
%TO.P,CHRG_SelectR2_TP2,1,1*%
%TO.N,GND*%
X102950000Y-58920000D03*
%TD*%
D26*
%TO.P,R1,1*%
%TO.N,/Battery_Out_Before_Switch*%
X101302500Y-80390000D03*
%TO.P,R1,2*%
%TO.N,/Battery_In*%
X102497500Y-80390000D03*
%TD*%
D21*
%TO.P,C32,1*%
%TO.N,GND*%
X190738503Y-61975050D03*
%TO.P,C32,2*%
%TO.N,/EXT_LOAD1_OUT*%
X191873503Y-61975050D03*
%TD*%
D26*
%TO.P,R9,1*%
%TO.N,Net-(U6-NC)*%
X101302500Y-84370000D03*
%TO.P,R9,2*%
%TO.N,Net-(R10-Pad1)*%
X102497500Y-84370000D03*
%TD*%
D39*
%TO.P,D2,1,K*%
%TO.N,/PH_Pin*%
X116925000Y-74502239D03*
%TO.P,D2,2,A*%
%TO.N,GND*%
X121324796Y-74502239D03*
%TD*%
D21*
%TO.P,C23,1*%
%TO.N,GND*%
X166475000Y-43350000D03*
%TO.P,C23,2*%
%TO.N,/EXT_LOAD2_OUT*%
X167610000Y-43350000D03*
%TD*%
D39*
%TO.P,D1,1,K*%
%TO.N,+5V*%
X116925000Y-70497413D03*
%TO.P,D1,2,A*%
%TO.N,Net-(D1-A)*%
X121324796Y-70497413D03*
%TD*%
D26*
%TO.P,R11,1*%
%TO.N,Net-(U6-NO)*%
X101302500Y-88350000D03*
%TO.P,R11,2*%
%TO.N,GND*%
X102497500Y-88350000D03*
%TD*%
D12*
%TO.P,L_TP_2,1,1*%
%TO.N,Net-(D1-A)*%
X107500000Y-54370000D03*
%TD*%
D40*
%TO.P,U5,1,TEMP*%
%TO.N,GND*%
X111697148Y-93691612D03*
%TO.P,U5,2,PROG*%
%TO.N,Net-(U5-PROG)*%
X112967151Y-93691612D03*
%TO.P,U5,3,GND*%
%TO.N,GND*%
X114237153Y-93691612D03*
%TO.P,U5,4,VCC*%
%TO.N,/Battey_Charger_VDD*%
X115507156Y-93691612D03*
%TO.P,U5,5,BAT*%
%TO.N,/Battery_Out_Before_Switch*%
X115507156Y-87875000D03*
%TO.P,U5,6,STDBY#*%
%TO.N,GND*%
X114237153Y-87875000D03*
%TO.P,U5,7,CHRG#*%
X112967151Y-87875000D03*
%TO.P,U5,8,CE*%
%TO.N,/Battey_Charger_VDD*%
X111697148Y-87875000D03*
D41*
%TO.P,U5,9,EP*%
%TO.N,GND*%
X113602152Y-90783306D03*
%TD*%
D12*
%TO.P,5V_FB_TP1,1,1*%
%TO.N,Net-(U1-FB)*%
X93850000Y-58920000D03*
%TD*%
%TO.P,Shunt_TP2,1,1*%
%TO.N,/Battery_Out_Before_Switch*%
X107500000Y-63470000D03*
%TD*%
D26*
%TO.P,R14,1*%
%TO.N,Net-(U4-VSENSE)*%
X101302500Y-94320000D03*
%TO.P,R14,2*%
%TO.N,Net-(R12-Pad2)*%
X102497500Y-94320000D03*
%TD*%
D31*
%TO.P,JP3,1,A*%
%TO.N,Net-(JP2-A)*%
X105050000Y-88270000D03*
%TO.P,JP3,2,B*%
%TO.N,Net-(JP1-B)*%
X106350000Y-88270000D03*
%TD*%
D12*
%TO.P,CHRG_VinR_TP2,1,1*%
%TO.N,GND*%
X102950000Y-68020000D03*
%TD*%
D28*
%TO.P,U10,1,nSleep*%
%TO.N,+3V3*%
X211199834Y-64950026D03*
%TO.P,U10,2,AOUT1*%
%TO.N,/AOUT1 (U2)*%
X211849822Y-64950026D03*
%TO.P,U10,3,AISEN*%
%TO.N,GND*%
X212499809Y-64950026D03*
%TO.P,U10,4,AOUT2*%
%TO.N,/AOUT2 (U2)*%
X213150050Y-64950026D03*
%TO.P,U10,5,BOUT2*%
%TO.N,/BOUT2 (U2)*%
X213800038Y-64950026D03*
%TO.P,U10,6,BISEN*%
%TO.N,GND*%
X214450025Y-64950026D03*
%TO.P,U10,7,BOUT1*%
%TO.N,/BOUT1 (U2)*%
X215100012Y-64950026D03*
%TO.P,U10,8,nFault*%
%TO.N,unconnected-(U10-nFault-Pad8)*%
X215750000Y-64950026D03*
%TO.P,U10,9,BIN1*%
%TO.N,/BIN1 (U2)*%
X215750000Y-59250000D03*
%TO.P,U10,10,BIN2*%
%TO.N,/BIN2 (U2)*%
X215100012Y-59250000D03*
%TO.P,U10,11,VCP*%
%TO.N,Net-(U10-VCP)*%
X214450025Y-59250000D03*
%TO.P,U10,12,VM*%
%TO.N,/Battery_Out_After_Switch*%
X213800038Y-59250000D03*
%TO.P,U10,13,GND*%
%TO.N,GND*%
X213150050Y-59250000D03*
%TO.P,U10,14,VINT*%
%TO.N,Net-(U10-VINT)*%
X212499809Y-59250000D03*
%TO.P,U10,15,AIN2*%
%TO.N,/AIN2 (U2)*%
X211849822Y-59250000D03*
%TO.P,U10,16,AIN1*%
X211199834Y-59250000D03*
D29*
%TO.P,U10,17,GND*%
%TO.N,GND*%
X213474917Y-62100013D03*
%TD*%
D19*
%TO.P,C6,1*%
%TO.N,GND*%
X92887500Y-83160000D03*
%TO.P,C6,2*%
%TO.N,+9V*%
X94612500Y-83160000D03*
%TD*%
D12*
%TO.P,BAT_TP1,1,1*%
%TO.N,/Battery*%
X98400000Y-68020000D03*
%TD*%
%TO.P,GND_TP1,1,1*%
%TO.N,GND*%
X102950000Y-72570000D03*
%TD*%
D42*
%TO.P,U11,1,1*%
%TO.N,/Battery_Out_After_Switch*%
X209099950Y-35000000D03*
D43*
%TO.P,U11,2,2*%
%TO.N,/Battery_Out_Before_Switch*%
X213799975Y-35000000D03*
%TO.P,U11,3,3*%
%TO.N,GND*%
X218500000Y-35000000D03*
%TD*%
D21*
%TO.P,C13,1*%
%TO.N,GND*%
X166475000Y-39410000D03*
%TO.P,C13,2*%
%TO.N,+9V*%
X167610000Y-39410000D03*
%TD*%
D44*
%TO.P,J2,1,Pin_1*%
%TO.N,/BOUT2 (U1)*%
X158610000Y-149790000D03*
D45*
%TO.P,J2,2,Pin_2*%
%TO.N,/BOUT1 (U1)*%
X158610000Y-147250000D03*
%TO.P,J2,3,Pin_3*%
%TO.N,/BOUT1 (U2)*%
X156070000Y-149790000D03*
%TO.P,J2,4,Pin_4*%
%TO.N,/BIN1 (U1)*%
X156070000Y-147250000D03*
%TO.P,J2,5,Pin_5*%
%TO.N,/BOUT2 (U2)*%
X153530000Y-149790000D03*
%TO.P,J2,6,Pin_6*%
%TO.N,/BIN2 (U1)*%
X153530000Y-147250000D03*
%TO.P,J2,7,Pin_7*%
%TO.N,/CTRL_EXT_LOAD2*%
X150990000Y-149790000D03*
%TO.P,J2,8,Pin_8*%
%TO.N,/BIN1 (U2)*%
X150990000Y-147250000D03*
%TO.P,J2,9,Pin_9*%
%TO.N,unconnected-(J2-Pin_9-Pad9)*%
X148450000Y-149790000D03*
%TO.P,J2,10,Pin_10*%
%TO.N,/BIN2 (U2)*%
X148450000Y-147250000D03*
%TO.P,J2,11,Pin_11*%
%TO.N,/EXT_LOAD2_OUT*%
X145910000Y-149790000D03*
%TO.P,J2,12,Pin_12*%
%TO.N,unconnected-(J2-Pin_12-Pad12)*%
X145910000Y-147250000D03*
%TO.P,J2,13,Pin_13*%
%TO.N,/Fast_Charge_CTRL*%
X143370000Y-149790000D03*
%TO.P,J2,14,Pin_14*%
%TO.N,/Battery_In*%
X143370000Y-147250000D03*
%TO.P,J2,15,Pin_15*%
%TO.N,unconnected-(J2-Pin_15-Pad15)*%
X140830000Y-149790000D03*
%TO.P,J2,16,Pin_16*%
%TO.N,/I2C1_SCL*%
X140830000Y-147250000D03*
%TO.P,J2,17,Pin_17*%
%TO.N,/I2C1_SDA*%
X138290000Y-149790000D03*
%TO.P,J2,18,Pin_18*%
%TO.N,+3V3*%
X138290000Y-147250000D03*
%TO.P,J2,19,Pin_19*%
%TO.N,GND*%
X135750000Y-149790000D03*
%TO.P,J2,20,Pin_20*%
%TO.N,+5V*%
X135750000Y-147250000D03*
%TO.P,J2,21,Pin_21*%
%TO.N,/EXT_LOAD1_OUT*%
X133210000Y-149790000D03*
%TO.P,J2,22,Pin_22*%
%TO.N,+9V*%
X133210000Y-147250000D03*
%TO.P,J2,23,Pin_23*%
%TO.N,GND*%
X130670000Y-149790000D03*
%TO.P,J2,24,Pin_24*%
%TO.N,/AIN1 (U2)*%
X130670000Y-147250000D03*
%TO.P,J2,25,Pin_25*%
%TO.N,/CTRL_EXT_LOAD1*%
X128130000Y-149790000D03*
%TO.P,J2,26,Pin_26*%
%TO.N,/AIN2 (U2)*%
X128130000Y-147250000D03*
%TO.P,J2,27,Pin_27*%
%TO.N,/AOUT1 (U2)*%
X125590000Y-149790000D03*
%TO.P,J2,28,Pin_28*%
%TO.N,/AIN1 (U1)*%
X125590000Y-147250000D03*
%TO.P,J2,29,Pin_29*%
%TO.N,/AOUT2 (U2)*%
X123050000Y-149790000D03*
%TO.P,J2,30,Pin_30*%
%TO.N,/AIN2 (U1)*%
X123050000Y-147250000D03*
%TO.P,J2,31,Pin_31*%
%TO.N,/AOUT2 (U1)*%
X120510000Y-149790000D03*
%TO.P,J2,32,Pin_32*%
%TO.N,/AOUT1 (U1)*%
X120510000Y-147250000D03*
%TD*%
M02*
