%TF.GenerationSoftware,KiCad,Pcbnew,7.0.1-0*%
%TF.CreationDate,2025-03-26T17:39:27+02:00*%
%TF.ProjectId,EEE3088F_MM_Power_Project,45454533-3038-4384-965f-4d4d5f506f77,rev?*%
%TF.SameCoordinates,Original*%
%TF.FileFunction,Copper,L2,Bot*%
%TF.FilePolarity,Positive*%
%FSLAX46Y46*%
G04 Gerber Fmt 4.6, Leading zero omitted, Abs format (unit mm)*
G04 Created by KiCad (PCBNEW 7.0.1-0) date 2025-03-26 17:39:27*
%MOMM*%
%LPD*%
G01*
G04 APERTURE LIST*
G04 Aperture macros list*
%AMRoundRect*
0 Rectangle with rounded corners*
0 $1 Rounding radius*
0 $2 $3 $4 $5 $6 $7 $8 $9 X,Y pos of 4 corners*
0 Add a 4 corners polygon primitive as box body*
4,1,4,$2,$3,$4,$5,$6,$7,$8,$9,$2,$3,0*
0 Add four circle primitives for the rounded corners*
1,1,$1+$1,$2,$3*
1,1,$1+$1,$4,$5*
1,1,$1+$1,$6,$7*
1,1,$1+$1,$8,$9*
0 Add four rect primitives between the rounded corners*
20,1,$1+$1,$2,$3,$4,$5,0*
20,1,$1+$1,$4,$5,$6,$7,0*
20,1,$1+$1,$6,$7,$8,$9,0*
20,1,$1+$1,$8,$9,$2,$3,0*%
G04 Aperture macros list end*
%TA.AperFunction,ComponentPad*%
%ADD10RoundRect,0.250000X-0.625000X0.350000X-0.625000X-0.350000X0.625000X-0.350000X0.625000X0.350000X0*%
%TD*%
%TA.AperFunction,ComponentPad*%
%ADD11O,1.750000X1.200000*%
%TD*%
%TA.AperFunction,ComponentPad*%
%ADD12R,2.100000X2.500000*%
%TD*%
%TA.AperFunction,ComponentPad*%
%ADD13C,2.500000*%
%TD*%
%TA.AperFunction,ComponentPad*%
%ADD14R,1.700000X1.700000*%
%TD*%
%TA.AperFunction,ComponentPad*%
%ADD15O,1.700000X1.700000*%
%TD*%
%TA.AperFunction,Conductor*%
%ADD16C,0.250000*%
%TD*%
G04 APERTURE END LIST*
D10*
%TO.P,J1,1,Pin_1*%
%TO.N,/Battery_In*%
X111250000Y-148250000D03*
D11*
%TO.P,J1,2,Pin_2*%
%TO.N,GND*%
X111250000Y-150250000D03*
%TD*%
D12*
%TO.P,U11,1,1*%
%TO.N,/Battery_Out_After_Switch*%
X209099950Y-35000000D03*
D13*
%TO.P,U11,2,2*%
%TO.N,/Battery_Out_Before_Switch*%
X213799975Y-35000000D03*
%TO.P,U11,3,3*%
%TO.N,GND*%
X218500000Y-35000000D03*
%TD*%
D14*
%TO.P,J2,1,Pin_1*%
%TO.N,/BOUT2 (U1)*%
X158610000Y-149790000D03*
D15*
%TO.P,J2,2,Pin_2*%
%TO.N,/BOUT1 (U1)*%
X158610000Y-147250000D03*
%TO.P,J2,3,Pin_3*%
%TO.N,/BOUT1 (U2)*%
X156070000Y-149790000D03*
%TO.P,J2,4,Pin_4*%
%TO.N,/BIN1 (U1)*%
X156070000Y-147250000D03*
%TO.P,J2,5,Pin_5*%
%TO.N,/BOUT2 (U2)*%
X153530000Y-149790000D03*
%TO.P,J2,6,Pin_6*%
%TO.N,/BIN2 (U1)*%
X153530000Y-147250000D03*
%TO.P,J2,7,Pin_7*%
%TO.N,/CTRL_EXT_LOAD2*%
X150990000Y-149790000D03*
%TO.P,J2,8,Pin_8*%
%TO.N,/BIN1 (U2)*%
X150990000Y-147250000D03*
%TO.P,J2,9,Pin_9*%
%TO.N,unconnected-(J2-Pin_9-Pad9)*%
X148450000Y-149790000D03*
%TO.P,J2,10,Pin_10*%
%TO.N,/BIN2 (U2)*%
X148450000Y-147250000D03*
%TO.P,J2,11,Pin_11*%
%TO.N,/EXT_LOAD2_OUT*%
X145910000Y-149790000D03*
%TO.P,J2,12,Pin_12*%
%TO.N,unconnected-(J2-Pin_12-Pad12)*%
X145910000Y-147250000D03*
%TO.P,J2,13,Pin_13*%
%TO.N,/Fast_Charge_CTRL*%
X143370000Y-149790000D03*
%TO.P,J2,14,Pin_14*%
%TO.N,/Battery_In*%
X143370000Y-147250000D03*
%TO.P,J2,15,Pin_15*%
%TO.N,unconnected-(J2-Pin_15-Pad15)*%
X140830000Y-149790000D03*
%TO.P,J2,16,Pin_16*%
%TO.N,/I2C1_SCL*%
X140830000Y-147250000D03*
%TO.P,J2,17,Pin_17*%
%TO.N,/I2C1_SDA*%
X138290000Y-149790000D03*
%TO.P,J2,18,Pin_18*%
%TO.N,+3V3*%
X138290000Y-147250000D03*
%TO.P,J2,19,Pin_19*%
%TO.N,GND*%
X135750000Y-149790000D03*
%TO.P,J2,20,Pin_20*%
%TO.N,+5V*%
X135750000Y-147250000D03*
%TO.P,J2,21,Pin_21*%
%TO.N,/EXT_LOAD1_OUT*%
X133210000Y-149790000D03*
%TO.P,J2,22,Pin_22*%
%TO.N,+9V*%
X133210000Y-147250000D03*
%TO.P,J2,23,Pin_23*%
%TO.N,GND*%
X130670000Y-149790000D03*
%TO.P,J2,24,Pin_24*%
%TO.N,/AIN1 (U2)*%
X130670000Y-147250000D03*
%TO.P,J2,25,Pin_25*%
%TO.N,/CTRL_EXT_LOAD1*%
X128130000Y-149790000D03*
%TO.P,J2,26,Pin_26*%
%TO.N,/AIN2 (U2)*%
X128130000Y-147250000D03*
%TO.P,J2,27,Pin_27*%
%TO.N,/AOUT1 (U2)*%
X125590000Y-149790000D03*
%TO.P,J2,28,Pin_28*%
%TO.N,/AIN1 (U1)*%
X125590000Y-147250000D03*
%TO.P,J2,29,Pin_29*%
%TO.N,/AOUT2 (U2)*%
X123050000Y-149790000D03*
%TO.P,J2,30,Pin_30*%
%TO.N,/AIN2 (U1)*%
X123050000Y-147250000D03*
%TO.P,J2,31,Pin_31*%
%TO.N,/AOUT2 (U1)*%
X120510000Y-149790000D03*
%TO.P,J2,32,Pin_32*%
%TO.N,/AOUT1 (U1)*%
X120510000Y-147250000D03*
%TD*%
D16*
%TO.N,GND*%
X129460000Y-151000000D02*
X134540000Y-151000000D01*
X111250000Y-150250000D02*
X112000000Y-151000000D01*
X134540000Y-151000000D02*
X135750000Y-149790000D01*
X129460000Y-151000000D02*
X130670000Y-149790000D01*
X112000000Y-151000000D02*
X129460000Y-151000000D01*
%TD*%
M02*
