M48
; DRILL file {KiCad 7.0.1-0} date 2025 March 26, Wednesday 17:39:27
; FORMAT={-:-/ absolute / inch / decimal}
; #@! TF.CreationDate,2025-03-26T17:39:27+02:00
; #@! TF.GenerationSoftware,Kicad,Pcbnew,7.0.1-0
; #@! TF.FileFunction,Plated,1,2,PTH
FMAT,2
INCH
; #@! TA.AperFunction,Plated,PTH,ComponentDrill
T1C0.0295
; #@! TA.AperFunction,Plated,PTH,ComponentDrill
T2C0.0394
; #@! TA.AperFunction,Plated,PTH,ComponentDrill
T3C0.0669
%
G90
G05
T1
X4.3799Y-5.8366
X4.3799Y-5.9154
T2
X4.7445Y-5.7972
X4.7445Y-5.8972
X4.8445Y-5.7972
X4.8445Y-5.8972
X4.9445Y-5.7972
X4.9445Y-5.8972
X5.0445Y-5.7972
X5.0445Y-5.8972
X5.1445Y-5.7972
X5.1445Y-5.8972
X5.2445Y-5.7972
X5.2445Y-5.8972
X5.3445Y-5.7972
X5.3445Y-5.8972
X5.4445Y-5.7972
X5.4445Y-5.8972
X5.5445Y-5.7972
X5.5445Y-5.8972
X5.6445Y-5.7972
X5.6445Y-5.8972
X5.7445Y-5.7972
X5.7445Y-5.8972
X5.8445Y-5.7972
X5.8445Y-5.8972
X5.9445Y-5.7972
X5.9445Y-5.8972
X6.0445Y-5.7972
X6.0445Y-5.8972
X6.1445Y-5.7972
X6.1445Y-5.8972
X6.2445Y-5.7972
X6.2445Y-5.8972
T3
X8.2323Y-1.378
X8.4173Y-1.378
X8.6024Y-1.378
T0
M30
