%TF.GenerationSoftware,KiCad,Pcbnew,7.0.1-0*%
%TF.CreationDate,2025-03-27T19:20:49+02:00*%
%TF.ProjectId,EEE3088F_MM_Power_Project,45454533-3038-4384-965f-4d4d5f506f77,rev?*%
%TF.SameCoordinates,Original*%
%TF.FileFunction,Legend,Bot*%
%TF.FilePolarity,Positive*%
%FSLAX46Y46*%
G04 Gerber Fmt 4.6, Leading zero omitted, Abs format (unit mm)*
G04 Created by KiCad (PCBNEW 7.0.1-0) date 2025-03-27 19:20:49*
%MOMM*%
%LPD*%
G01*
G04 APERTURE LIST*
G04 Aperture macros list*
%AMRoundRect*
0 Rectangle with rounded corners*
0 $1 Rounding radius*
0 $2 $3 $4 $5 $6 $7 $8 $9 X,Y pos of 4 corners*
0 Add a 4 corners polygon primitive as box body*
4,1,4,$2,$3,$4,$5,$6,$7,$8,$9,$2,$3,0*
0 Add four circle primitives for the rounded corners*
1,1,$1+$1,$2,$3*
1,1,$1+$1,$4,$5*
1,1,$1+$1,$6,$7*
1,1,$1+$1,$8,$9*
0 Add four rect primitives between the rounded corners*
20,1,$1+$1,$2,$3,$4,$5,0*
20,1,$1+$1,$4,$5,$6,$7,0*
20,1,$1+$1,$6,$7,$8,$9,0*
20,1,$1+$1,$8,$9,$2,$3,0*%
G04 Aperture macros list end*
%ADD10RoundRect,0.250000X-0.350000X-0.625000X0.350000X-0.625000X0.350000X0.625000X-0.350000X0.625000X0*%
%ADD11O,1.200000X1.750000*%
%ADD12R,1.700000X1.700000*%
%ADD13O,1.700000X1.700000*%
%ADD14C,0.649987*%
%ADD15C,5.600000*%
%ADD16R,2.500000X2.100000*%
%ADD17C,2.500000*%
G04 APERTURE END LIST*
%LPC*%
D10*
%TO.C,J1*%
X113290600Y-146177000D03*
D11*
X115290600Y-146177000D03*
%TD*%
D12*
%TO.C,J2*%
X158572200Y-146227800D03*
D13*
X158572200Y-148767800D03*
X156032200Y-146227800D03*
X156032200Y-148767800D03*
X153492200Y-146227800D03*
X153492200Y-148767800D03*
X150952200Y-146227800D03*
X150952200Y-148767800D03*
X148412200Y-146227800D03*
X148412200Y-148767800D03*
X145872200Y-146227800D03*
X145872200Y-148767800D03*
X143332200Y-146227800D03*
X143332200Y-148767800D03*
X140792200Y-146227800D03*
X140792200Y-148767800D03*
X138252200Y-146227800D03*
X138252200Y-148767800D03*
X135712200Y-146227800D03*
X135712200Y-148767800D03*
X133172200Y-146227800D03*
X133172200Y-148767800D03*
X130632200Y-146227800D03*
X130632200Y-148767800D03*
X128092200Y-146227800D03*
X128092200Y-148767800D03*
X125552200Y-146227800D03*
X125552200Y-148767800D03*
X123012200Y-146227800D03*
X123012200Y-148767800D03*
X120472200Y-146227800D03*
X120472200Y-148767800D03*
%TD*%
D14*
%TO.C,U7*%
X166174918Y-146108677D03*
X171954954Y-146108677D03*
%TD*%
D15*
%TO.C,H1*%
X139649200Y-119659099D03*
%TD*%
%TO.C,H3*%
X139649200Y-109659099D03*
%TD*%
%TO.C,H2*%
X139649200Y-99659099D03*
%TD*%
D16*
%TO.C,U11*%
X110000000Y-133549975D03*
D17*
X110000000Y-138250000D03*
X110000000Y-142950025D03*
%TD*%
M02*
