%TF.GenerationSoftware,KiCad,Pcbnew,7.0.1-0*%
%TF.CreationDate,2025-03-27T13:04:47+02:00*%
%TF.ProjectId,EEE3088F_MM_Power_Project,45454533-3038-4384-965f-4d4d5f506f77,rev?*%
%TF.SameCoordinates,Original*%
%TF.FileFunction,Soldermask,Top*%
%TF.FilePolarity,Negative*%
%FSLAX46Y46*%
G04 Gerber Fmt 4.6, Leading zero omitted, Abs format (unit mm)*
G04 Created by KiCad (PCBNEW 7.0.1-0) date 2025-03-27 13:04:47*
%MOMM*%
%LPD*%
G01*
G04 APERTURE LIST*
G04 Aperture macros list*
%AMRoundRect*
0 Rectangle with rounded corners*
0 $1 Rounding radius*
0 $2 $3 $4 $5 $6 $7 $8 $9 X,Y pos of 4 corners*
0 Add a 4 corners polygon primitive as box body*
4,1,4,$2,$3,$4,$5,$6,$7,$8,$9,$2,$3,0*
0 Add four circle primitives for the rounded corners*
1,1,$1+$1,$2,$3*
1,1,$1+$1,$4,$5*
1,1,$1+$1,$6,$7*
1,1,$1+$1,$8,$9*
0 Add four rect primitives between the rounded corners*
20,1,$1+$1,$2,$3,$4,$5,0*
20,1,$1+$1,$4,$5,$6,$7,0*
20,1,$1+$1,$6,$7,$8,$9,0*
20,1,$1+$1,$8,$9,$2,$3,0*%
G04 Aperture macros list end*
%ADD10RoundRect,0.250000X-1.412500X-0.550000X1.412500X-0.550000X1.412500X0.550000X-1.412500X0.550000X0*%
%ADD11R,2.500000X2.500000*%
%ADD12RoundRect,0.250000X-0.625000X0.350000X-0.625000X-0.350000X0.625000X-0.350000X0.625000X0.350000X0*%
%ADD13O,1.750000X1.200000*%
%ADD14R,0.600000X1.300000*%
%ADD15R,3.500000X2.500000*%
%ADD16RoundRect,0.155000X0.155000X-0.212500X0.155000X0.212500X-0.155000X0.212500X-0.155000X-0.212500X0*%
%ADD17RoundRect,0.250000X0.650000X-0.412500X0.650000X0.412500X-0.650000X0.412500X-0.650000X-0.412500X0*%
%ADD18RoundRect,0.150000X-0.512500X-0.150000X0.512500X-0.150000X0.512500X0.150000X-0.512500X0.150000X0*%
%ADD19RoundRect,0.237500X0.300000X0.237500X-0.300000X0.237500X-0.300000X-0.237500X0.300000X-0.237500X0*%
%ADD20R,1.296012X1.757506*%
%ADD21RoundRect,0.155000X0.212500X0.155000X-0.212500X0.155000X-0.212500X-0.155000X0.212500X-0.155000X0*%
%ADD22RoundRect,0.155000X-0.212500X-0.155000X0.212500X-0.155000X0.212500X0.155000X-0.212500X0.155000X0*%
%ADD23C,0.649987*%
%ADD24R,2.020015X1.500000*%
%ADD25R,0.500000X1.150013*%
%ADD26R,0.259995X1.150013*%
%ADD27RoundRect,0.237500X-0.250000X-0.237500X0.250000X-0.237500X0.250000X0.237500X-0.250000X0.237500X0*%
%ADD28RoundRect,0.237500X-0.237500X0.250000X-0.237500X-0.250000X0.237500X-0.250000X0.237500X0.250000X0*%
%ADD29RoundRect,0.160000X0.160000X-0.197500X0.160000X0.197500X-0.160000X0.197500X-0.160000X-0.197500X0*%
%ADD30RoundRect,0.237500X-0.300000X-0.237500X0.300000X-0.237500X0.300000X0.237500X-0.300000X0.237500X0*%
%ADD31R,5.700000X1.700000*%
%ADD32O,0.350013X1.300000*%
%ADD33R,2.740005X2.740005*%
%ADD34RoundRect,0.237500X-0.237500X0.300000X-0.237500X-0.300000X0.237500X-0.300000X0.237500X0.300000X0*%
%ADD35RoundRect,0.160000X-0.160000X0.197500X-0.160000X-0.197500X0.160000X-0.197500X0.160000X0.197500X0*%
%ADD36R,0.500000X0.900000*%
%ADD37R,1.000000X1.500000*%
%ADD38R,1.500000X1.358903*%
%ADD39RoundRect,0.250000X-0.550000X1.412500X-0.550000X-1.412500X0.550000X-1.412500X0.550000X1.412500X0*%
%ADD40RoundRect,0.250000X-0.412500X-0.650000X0.412500X-0.650000X0.412500X0.650000X-0.412500X0.650000X0*%
%ADD41R,0.350013X0.500000*%
%ADD42R,1.600000X1.000000*%
%ADD43O,1.251994X0.364008*%
%ADD44R,0.364008X0.650013*%
%ADD45RoundRect,0.160000X-0.197500X-0.160000X0.197500X-0.160000X0.197500X0.160000X-0.197500X0.160000X0*%
%ADD46R,1.500000X2.000000*%
%ADD47R,3.800000X2.000000*%
%ADD48RoundRect,0.250000X-0.625000X0.400000X-0.625000X-0.400000X0.625000X-0.400000X0.625000X0.400000X0*%
%ADD49R,2.000000X2.000000*%
%ADD50R,1.200000X0.600000*%
%ADD51R,2.400000X3.300000*%
%ADD52R,1.500000X1.000000*%
%ADD53R,2.500000X2.100000*%
%ADD54C,2.500000*%
%ADD55R,1.700000X1.700000*%
%ADD56O,1.700000X1.700000*%
G04 APERTURE END LIST*
D10*
%TO.C,C31*%
X155501300Y-105562400D03*
X160576300Y-105562400D03*
%TD*%
D11*
%TO.C,5V_R1_TP1*%
X119126000Y-110490000D03*
%TD*%
D12*
%TO.C,J1*%
X111250000Y-148250000D03*
D13*
X111250000Y-150250000D03*
%TD*%
D14*
%TO.C,U4*%
X169824403Y-129956804D03*
X168554400Y-129956804D03*
X167284398Y-129956804D03*
X166014395Y-129956804D03*
X166014395Y-135356600D03*
X167284398Y-135356600D03*
X168554400Y-135356600D03*
X169824403Y-135356600D03*
D15*
X167919399Y-132656829D03*
%TD*%
D16*
%TO.C,C11*%
X144246600Y-135441500D03*
X144246600Y-134306500D03*
%TD*%
D17*
%TO.C,C2*%
X107442000Y-105829500D03*
X107442000Y-102704500D03*
%TD*%
D11*
%TO.C,L_TP_1*%
X103428800Y-118262400D03*
%TD*%
D18*
%TO.C,U1*%
X107701500Y-112080000D03*
X107701500Y-113030000D03*
X107701500Y-113980000D03*
X109976500Y-113980000D03*
X109976500Y-113030000D03*
X109976500Y-112080000D03*
%TD*%
D19*
%TO.C,C9*%
X162609700Y-119075200D03*
X160884700Y-119075200D03*
%TD*%
D10*
%TO.C,C30*%
X180548200Y-40690800D03*
X185623200Y-40690800D03*
%TD*%
D11*
%TO.C,9-5V_R1_TP1*%
X105250000Y-76900000D03*
%TD*%
D20*
%TO.C,C4*%
X127762000Y-111597691D03*
X127762000Y-114970309D03*
%TD*%
D21*
%TO.C,C16*%
X155846400Y-135280400D03*
X154711400Y-135280400D03*
%TD*%
D11*
%TO.C,5V_R2_TP1*%
X119253000Y-118364000D03*
%TD*%
D22*
%TO.C,C33*%
X191227900Y-67437000D03*
X192362900Y-67437000D03*
%TD*%
D23*
%TO.C,U7*%
X166174918Y-146108677D03*
X171954954Y-146108677D03*
D24*
X174394883Y-145608550D03*
X174394883Y-149608550D03*
X163734989Y-149608550D03*
X163734989Y-145608550D03*
D25*
X165865038Y-145034000D03*
X166664885Y-145034000D03*
D26*
X167815000Y-145034000D03*
X168815000Y-145034000D03*
X169314872Y-145034000D03*
X170314618Y-145034000D03*
D25*
X171464987Y-145034000D03*
X172265088Y-145034000D03*
D26*
X170815000Y-145034000D03*
X169815000Y-145034000D03*
X168314872Y-145034000D03*
X167314872Y-145034000D03*
%TD*%
D27*
%TO.C,R5*%
X112511500Y-128159000D03*
X114336500Y-128159000D03*
%TD*%
D28*
%TO.C,R15*%
X174498000Y-141962500D03*
X174498000Y-143787500D03*
%TD*%
D29*
%TO.C,R10*%
X171907200Y-114957900D03*
X171907200Y-113762900D03*
%TD*%
D10*
%TO.C,C20*%
X153598800Y-54762400D03*
X158673800Y-54762400D03*
%TD*%
D30*
%TO.C,C17*%
X169241300Y-59258200D03*
X170966300Y-59258200D03*
%TD*%
%TO.C,C14*%
X168250700Y-54406800D03*
X169975700Y-54406800D03*
%TD*%
D28*
%TO.C,R3*%
X113665000Y-111863500D03*
X113665000Y-113688500D03*
%TD*%
D11*
%TO.C,CHRG_SelectR2_TP1*%
X175336200Y-116636800D03*
%TD*%
D21*
%TO.C,C12*%
X146532600Y-135483600D03*
X145397600Y-135483600D03*
%TD*%
D31*
%TO.C,L3*%
X173583600Y-127330200D03*
X173583600Y-122830200D03*
%TD*%
D32*
%TO.C,U8*%
X142936717Y-142600813D03*
X143586705Y-142600813D03*
X144236692Y-142600813D03*
X144886933Y-142600813D03*
X145536921Y-142600813D03*
X146186908Y-142600813D03*
X146836895Y-142600813D03*
X147486883Y-142600813D03*
X147486883Y-136900787D03*
X146836895Y-136900787D03*
X146186908Y-136900787D03*
X145536921Y-136900787D03*
X144886933Y-136900787D03*
X144236692Y-136900787D03*
X143586705Y-136900787D03*
X142936717Y-136900787D03*
D33*
X145211800Y-139750800D03*
%TD*%
D11*
%TO.C,5V_TP1*%
X86360000Y-71247000D03*
%TD*%
D34*
%TO.C,C7*%
X155498800Y-122657700D03*
X155498800Y-124382700D03*
%TD*%
D35*
%TO.C,R13*%
X164490399Y-126889702D03*
X164490399Y-128084702D03*
%TD*%
%TO.C,R4*%
X114935000Y-113702500D03*
X114935000Y-114897500D03*
%TD*%
D27*
%TO.C,R2*%
X111863500Y-110363000D03*
X113688500Y-110363000D03*
%TD*%
D31*
%TO.C,L2*%
X103428800Y-115254600D03*
X103428800Y-110754600D03*
%TD*%
D11*
%TO.C,CHRG_SelectR1_TP1*%
X168122600Y-116916200D03*
%TD*%
D36*
%TO.C,U12*%
X187136044Y-60000000D03*
X188086006Y-60000000D03*
X189035968Y-60000000D03*
X189035968Y-57400050D03*
X187136044Y-57400050D03*
%TD*%
D37*
%TO.C,JP2*%
X114011500Y-120909000D03*
X112711500Y-120909000D03*
%TD*%
D11*
%TO.C,CHRG_VinR_TP1*%
X126822200Y-60756800D03*
%TD*%
D29*
%TO.C,R12*%
X164490399Y-132619202D03*
X164490399Y-131424202D03*
%TD*%
D38*
%TO.C,C5*%
X127818898Y-117856000D03*
X125419102Y-117856000D03*
%TD*%
D36*
%TO.C,U14*%
X196100076Y-60000000D03*
X197050038Y-60000000D03*
X198000000Y-60000000D03*
X198000000Y-57400050D03*
X196100076Y-57400050D03*
%TD*%
D11*
%TO.C,9V_TP1*%
X114579400Y-60096400D03*
%TD*%
D10*
%TO.C,C21*%
X157925000Y-66950000D03*
X163000000Y-66950000D03*
%TD*%
D16*
%TO.C,C15*%
X153593800Y-135238300D03*
X153593800Y-134103300D03*
%TD*%
D27*
%TO.C,R6*%
X112511500Y-122909000D03*
X114336500Y-122909000D03*
%TD*%
D39*
%TO.C,C10*%
X158775403Y-127106600D03*
X158775403Y-132181600D03*
%TD*%
D11*
%TO.C,9-5V_VSense_TP1*%
X104140000Y-56007000D03*
%TD*%
D40*
%TO.C,C1*%
X110159000Y-115951000D03*
X113284000Y-115951000D03*
%TD*%
D41*
%TO.C,U9*%
X170799987Y-141969924D03*
X171449975Y-141969924D03*
X172099962Y-141969924D03*
X172099962Y-139969924D03*
X171449975Y-139969924D03*
X170799987Y-139969924D03*
D42*
X171449975Y-140969924D03*
%TD*%
D27*
%TO.C,R8*%
X156999300Y-122021600D03*
X158824300Y-122021600D03*
%TD*%
D43*
%TO.C,U2*%
X120562560Y-125884108D03*
X120562560Y-125234121D03*
X120562560Y-124584133D03*
X120562560Y-123933892D03*
X118110440Y-123933892D03*
X118110440Y-124584133D03*
X118110440Y-125234121D03*
X118110440Y-125884108D03*
%TD*%
D11*
%TO.C,Shunt_TP1*%
X105086500Y-127409000D03*
%TD*%
D44*
%TO.C,U6*%
X173130974Y-118830800D03*
X172480987Y-118830800D03*
X171831000Y-118830800D03*
X171831000Y-120730724D03*
X172480987Y-120730724D03*
X173130974Y-120730724D03*
%TD*%
D11*
%TO.C,3V3_TP1*%
X101854000Y-48133000D03*
%TD*%
D45*
%TO.C,R17*%
X170737600Y-86893400D03*
X171932600Y-86893400D03*
%TD*%
%TO.C,R16*%
X170737600Y-84903400D03*
X171932600Y-84903400D03*
%TD*%
D22*
%TO.C,C28*%
X166475000Y-49260000D03*
X167610000Y-49260000D03*
%TD*%
D34*
%TO.C,C3*%
X123393200Y-123749900D03*
X123393200Y-125474900D03*
%TD*%
D27*
%TO.C,R7*%
X157001200Y-123520200D03*
X158826200Y-123520200D03*
%TD*%
D11*
%TO.C,CHRG_SelectR1_TP2*%
X168122600Y-113334800D03*
%TD*%
D46*
%TO.C,U3*%
X134761000Y-111531000D03*
X132461000Y-111531000D03*
D47*
X132461000Y-117831000D03*
D46*
X130161000Y-111531000D03*
%TD*%
D11*
%TO.C,9-5V_R2_TP1*%
X109855000Y-46736000D03*
%TD*%
D30*
%TO.C,C8*%
X171755899Y-129227702D03*
X173480899Y-129227702D03*
%TD*%
D37*
%TO.C,JP1*%
X112786500Y-130409000D03*
X114086500Y-130409000D03*
%TD*%
D11*
%TO.C,CHRG_SelectR2_TP2*%
X175336200Y-113106200D03*
%TD*%
D48*
%TO.C,R1*%
X110086500Y-124109000D03*
X110086500Y-127209000D03*
%TD*%
D22*
%TO.C,C32*%
X191651000Y-57327800D03*
X192786000Y-57327800D03*
%TD*%
D29*
%TO.C,R9*%
X171907200Y-117243900D03*
X171907200Y-116048900D03*
%TD*%
D49*
%TO.C,D2*%
X172618399Y-136126600D03*
X172618399Y-131726804D03*
%TD*%
D22*
%TO.C,C23*%
X166475000Y-43350000D03*
X167610000Y-43350000D03*
%TD*%
D49*
%TO.C,D1*%
X107482898Y-108331000D03*
X103083102Y-108331000D03*
%TD*%
D29*
%TO.C,R11*%
X172923200Y-114945800D03*
X172923200Y-113750800D03*
%TD*%
D11*
%TO.C,L_TP_2*%
X102997000Y-104902000D03*
%TD*%
D50*
%TO.C,U5*%
X166700204Y-124447302D03*
X166700204Y-123177299D03*
X166700204Y-121907297D03*
X166700204Y-120637294D03*
X160883592Y-120637294D03*
X160883592Y-121907297D03*
X160883592Y-123177299D03*
X160883592Y-124447302D03*
D51*
X163791898Y-122542298D03*
%TD*%
D11*
%TO.C,5V_FB_TP1*%
X119126000Y-114300000D03*
%TD*%
%TO.C,Shunt_TP2*%
X105086500Y-123909000D03*
%TD*%
D35*
%TO.C,R14*%
X164490399Y-129175702D03*
X164490399Y-130370702D03*
%TD*%
D52*
%TO.C,JP3*%
X114336500Y-124909000D03*
X114336500Y-126209000D03*
%TD*%
D11*
%TO.C,CHRG_VinR_TP2*%
X133223000Y-68808600D03*
%TD*%
D32*
%TO.C,U10*%
X152294834Y-142494000D03*
X152944822Y-142494000D03*
X153594809Y-142494000D03*
X154245050Y-142494000D03*
X154895038Y-142494000D03*
X155545025Y-142494000D03*
X156195012Y-142494000D03*
X156845000Y-142494000D03*
X156845000Y-136793974D03*
X156195012Y-136793974D03*
X155545025Y-136793974D03*
X154895038Y-136793974D03*
X154245050Y-136793974D03*
X153594809Y-136793974D03*
X152944822Y-136793974D03*
X152294834Y-136793974D03*
D33*
X154569917Y-139643987D03*
%TD*%
D30*
%TO.C,C6*%
X166804000Y-137210800D03*
X168529000Y-137210800D03*
%TD*%
D11*
%TO.C,BAT_TP1*%
X116484400Y-66675000D03*
%TD*%
%TO.C,GND_TP1*%
X134035800Y-78028800D03*
%TD*%
D53*
%TO.C,U11*%
X110000000Y-133549975D03*
D54*
X110000000Y-138250000D03*
X110000000Y-142950025D03*
%TD*%
D22*
%TO.C,C13*%
X166475000Y-39410000D03*
X167610000Y-39410000D03*
%TD*%
D55*
%TO.C,J2*%
X158690000Y-148790000D03*
D56*
X158690000Y-146250000D03*
X156150000Y-148790000D03*
X156150000Y-146250000D03*
X153610000Y-148790000D03*
X153610000Y-146250000D03*
X151070000Y-148790000D03*
X151070000Y-146250000D03*
X148530000Y-148790000D03*
X148530000Y-146250000D03*
X145990000Y-148790000D03*
X145990000Y-146250000D03*
X143450000Y-148790000D03*
X143450000Y-146250000D03*
X140910000Y-148790000D03*
X140910000Y-146250000D03*
X138370000Y-148790000D03*
X138370000Y-146250000D03*
X135830000Y-148790000D03*
X135830000Y-146250000D03*
X133290000Y-148790000D03*
X133290000Y-146250000D03*
X130750000Y-148790000D03*
X130750000Y-146250000D03*
X128210000Y-148790000D03*
X128210000Y-146250000D03*
X125670000Y-148790000D03*
X125670000Y-146250000D03*
X123130000Y-148790000D03*
X123130000Y-146250000D03*
X120590000Y-148790000D03*
X120590000Y-146250000D03*
%TD*%
M02*
