%TF.GenerationSoftware,KiCad,Pcbnew,7.0.1-0*%
%TF.CreationDate,2025-03-27T19:17:11+02:00*%
%TF.ProjectId,EEE3088F_MM_Power_Project,45454533-3038-4384-965f-4d4d5f506f77,rev?*%
%TF.SameCoordinates,Original*%
%TF.FileFunction,Copper,L1,Top*%
%TF.FilePolarity,Positive*%
%FSLAX46Y46*%
G04 Gerber Fmt 4.6, Leading zero omitted, Abs format (unit mm)*
G04 Created by KiCad (PCBNEW 7.0.1-0) date 2025-03-27 19:17:11*
%MOMM*%
%LPD*%
G01*
G04 APERTURE LIST*
G04 Aperture macros list*
%AMRoundRect*
0 Rectangle with rounded corners*
0 $1 Rounding radius*
0 $2 $3 $4 $5 $6 $7 $8 $9 X,Y pos of 4 corners*
0 Add a 4 corners polygon primitive as box body*
4,1,4,$2,$3,$4,$5,$6,$7,$8,$9,$2,$3,0*
0 Add four circle primitives for the rounded corners*
1,1,$1+$1,$2,$3*
1,1,$1+$1,$4,$5*
1,1,$1+$1,$6,$7*
1,1,$1+$1,$8,$9*
0 Add four rect primitives between the rounded corners*
20,1,$1+$1,$2,$3,$4,$5,0*
20,1,$1+$1,$4,$5,$6,$7,0*
20,1,$1+$1,$6,$7,$8,$9,0*
20,1,$1+$1,$8,$9,$2,$3,0*%
G04 Aperture macros list end*
%TA.AperFunction,SMDPad,CuDef*%
%ADD10RoundRect,0.250000X-1.412500X-0.550000X1.412500X-0.550000X1.412500X0.550000X-1.412500X0.550000X0*%
%TD*%
%TA.AperFunction,SMDPad,CuDef*%
%ADD11R,2.500000X2.500000*%
%TD*%
%TA.AperFunction,ComponentPad*%
%ADD12RoundRect,0.250000X-0.350000X-0.625000X0.350000X-0.625000X0.350000X0.625000X-0.350000X0.625000X0*%
%TD*%
%TA.AperFunction,ComponentPad*%
%ADD13O,1.200000X1.750000*%
%TD*%
%TA.AperFunction,SMDPad,CuDef*%
%ADD14R,0.600000X1.300000*%
%TD*%
%TA.AperFunction,SMDPad,CuDef*%
%ADD15R,3.500000X2.500000*%
%TD*%
%TA.AperFunction,SMDPad,CuDef*%
%ADD16RoundRect,0.155000X0.155000X-0.212500X0.155000X0.212500X-0.155000X0.212500X-0.155000X-0.212500X0*%
%TD*%
%TA.AperFunction,SMDPad,CuDef*%
%ADD17RoundRect,0.250000X0.650000X-0.412500X0.650000X0.412500X-0.650000X0.412500X-0.650000X-0.412500X0*%
%TD*%
%TA.AperFunction,SMDPad,CuDef*%
%ADD18RoundRect,0.150000X-0.512500X-0.150000X0.512500X-0.150000X0.512500X0.150000X-0.512500X0.150000X0*%
%TD*%
%TA.AperFunction,SMDPad,CuDef*%
%ADD19RoundRect,0.237500X0.300000X0.237500X-0.300000X0.237500X-0.300000X-0.237500X0.300000X-0.237500X0*%
%TD*%
%TA.AperFunction,SMDPad,CuDef*%
%ADD20RoundRect,0.250000X1.412500X0.550000X-1.412500X0.550000X-1.412500X-0.550000X1.412500X-0.550000X0*%
%TD*%
%TA.AperFunction,SMDPad,CuDef*%
%ADD21R,1.296012X1.757506*%
%TD*%
%TA.AperFunction,ComponentPad*%
%ADD22R,1.700000X1.700000*%
%TD*%
%TA.AperFunction,ComponentPad*%
%ADD23O,1.700000X1.700000*%
%TD*%
%TA.AperFunction,SMDPad,CuDef*%
%ADD24RoundRect,0.155000X0.212500X0.155000X-0.212500X0.155000X-0.212500X-0.155000X0.212500X-0.155000X0*%
%TD*%
%TA.AperFunction,SMDPad,CuDef*%
%ADD25R,2.020015X1.500000*%
%TD*%
%TA.AperFunction,SMDPad,CuDef*%
%ADD26R,0.500000X1.150013*%
%TD*%
%TA.AperFunction,SMDPad,CuDef*%
%ADD27R,0.259995X1.150013*%
%TD*%
%TA.AperFunction,SMDPad,CuDef*%
%ADD28RoundRect,0.237500X-0.250000X-0.237500X0.250000X-0.237500X0.250000X0.237500X-0.250000X0.237500X0*%
%TD*%
%TA.AperFunction,SMDPad,CuDef*%
%ADD29RoundRect,0.237500X-0.237500X0.250000X-0.237500X-0.250000X0.237500X-0.250000X0.237500X0.250000X0*%
%TD*%
%TA.AperFunction,SMDPad,CuDef*%
%ADD30RoundRect,0.160000X0.160000X-0.197500X0.160000X0.197500X-0.160000X0.197500X-0.160000X-0.197500X0*%
%TD*%
%TA.AperFunction,SMDPad,CuDef*%
%ADD31RoundRect,0.237500X0.237500X-0.300000X0.237500X0.300000X-0.237500X0.300000X-0.237500X-0.300000X0*%
%TD*%
%TA.AperFunction,ComponentPad*%
%ADD32C,5.600000*%
%TD*%
%TA.AperFunction,SMDPad,CuDef*%
%ADD33R,5.700000X1.700000*%
%TD*%
%TA.AperFunction,SMDPad,CuDef*%
%ADD34O,0.350013X1.300000*%
%TD*%
%TA.AperFunction,SMDPad,CuDef*%
%ADD35R,2.740005X2.740005*%
%TD*%
%TA.AperFunction,SMDPad,CuDef*%
%ADD36RoundRect,0.237500X-0.237500X0.300000X-0.237500X-0.300000X0.237500X-0.300000X0.237500X0.300000X0*%
%TD*%
%TA.AperFunction,SMDPad,CuDef*%
%ADD37RoundRect,0.160000X-0.160000X0.197500X-0.160000X-0.197500X0.160000X-0.197500X0.160000X0.197500X0*%
%TD*%
%TA.AperFunction,SMDPad,CuDef*%
%ADD38R,0.900000X0.500000*%
%TD*%
%TA.AperFunction,SMDPad,CuDef*%
%ADD39R,1.000000X1.500000*%
%TD*%
%TA.AperFunction,SMDPad,CuDef*%
%ADD40R,1.500000X1.358903*%
%TD*%
%TA.AperFunction,SMDPad,CuDef*%
%ADD41RoundRect,0.250000X-0.550000X1.412500X-0.550000X-1.412500X0.550000X-1.412500X0.550000X1.412500X0*%
%TD*%
%TA.AperFunction,SMDPad,CuDef*%
%ADD42RoundRect,0.250000X-0.412500X-0.650000X0.412500X-0.650000X0.412500X0.650000X-0.412500X0.650000X0*%
%TD*%
%TA.AperFunction,SMDPad,CuDef*%
%ADD43R,0.350013X0.500000*%
%TD*%
%TA.AperFunction,SMDPad,CuDef*%
%ADD44R,1.600000X1.000000*%
%TD*%
%TA.AperFunction,SMDPad,CuDef*%
%ADD45O,1.251994X0.364008*%
%TD*%
%TA.AperFunction,SMDPad,CuDef*%
%ADD46R,0.364008X0.650013*%
%TD*%
%TA.AperFunction,SMDPad,CuDef*%
%ADD47RoundRect,0.160000X0.197500X0.160000X-0.197500X0.160000X-0.197500X-0.160000X0.197500X-0.160000X0*%
%TD*%
%TA.AperFunction,SMDPad,CuDef*%
%ADD48RoundRect,0.155000X-0.155000X0.212500X-0.155000X-0.212500X0.155000X-0.212500X0.155000X0.212500X0*%
%TD*%
%TA.AperFunction,SMDPad,CuDef*%
%ADD49R,1.500000X2.000000*%
%TD*%
%TA.AperFunction,SMDPad,CuDef*%
%ADD50R,3.800000X2.000000*%
%TD*%
%TA.AperFunction,SMDPad,CuDef*%
%ADD51RoundRect,0.237500X-0.300000X-0.237500X0.300000X-0.237500X0.300000X0.237500X-0.300000X0.237500X0*%
%TD*%
%TA.AperFunction,SMDPad,CuDef*%
%ADD52RoundRect,0.250000X-0.625000X0.400000X-0.625000X-0.400000X0.625000X-0.400000X0.625000X0.400000X0*%
%TD*%
%TA.AperFunction,SMDPad,CuDef*%
%ADD53R,2.000000X2.000000*%
%TD*%
%TA.AperFunction,SMDPad,CuDef*%
%ADD54RoundRect,0.155000X-0.212500X-0.155000X0.212500X-0.155000X0.212500X0.155000X-0.212500X0.155000X0*%
%TD*%
%TA.AperFunction,SMDPad,CuDef*%
%ADD55R,1.200000X0.600000*%
%TD*%
%TA.AperFunction,SMDPad,CuDef*%
%ADD56R,2.400000X3.300000*%
%TD*%
%TA.AperFunction,SMDPad,CuDef*%
%ADD57R,1.500000X1.000000*%
%TD*%
%TA.AperFunction,ComponentPad*%
%ADD58R,2.500000X2.100000*%
%TD*%
%TA.AperFunction,ComponentPad*%
%ADD59C,2.500000*%
%TD*%
%TA.AperFunction,ViaPad*%
%ADD60C,0.800000*%
%TD*%
%TA.AperFunction,Conductor*%
%ADD61C,0.760000*%
%TD*%
%TA.AperFunction,Conductor*%
%ADD62C,0.250000*%
%TD*%
%TA.AperFunction,Conductor*%
%ADD63C,1.270000*%
%TD*%
G04 APERTURE END LIST*
D10*
%TO.P,C31,1*%
%TO.N,Net-(C30-Pad2)*%
X120070800Y-132156200D03*
%TO.P,C31,2*%
%TO.N,GND*%
X125145800Y-132156200D03*
%TD*%
D11*
%TO.P,5V_R1_TP1,1,1*%
%TO.N,+5V*%
X119126000Y-110490000D03*
%TD*%
D12*
%TO.P,J1,1,Pin_1*%
%TO.N,/Battery_In_Before_Switch*%
X113290600Y-146177000D03*
D13*
%TO.P,J1,2,Pin_2*%
%TO.N,GND*%
X115290600Y-146177000D03*
%TD*%
D14*
%TO.P,U4,1,BOOT*%
%TO.N,Net-(U4-BOOT)*%
X169824403Y-129956804D03*
%TO.P,U4,2,NC*%
%TO.N,unconnected-(U4-NC-Pad2)*%
X168554400Y-129956804D03*
%TO.P,U4,3,NC*%
%TO.N,unconnected-(U4-NC-Pad3)*%
X167284398Y-129956804D03*
%TO.P,U4,4,VSENSE*%
%TO.N,Net-(U4-VSENSE)*%
X166014395Y-129956804D03*
%TO.P,U4,5,ENA*%
%TO.N,unconnected-(U4-ENA-Pad5)*%
X166014395Y-135356600D03*
%TO.P,U4,6,GND*%
%TO.N,GND*%
X167284398Y-135356600D03*
%TO.P,U4,7,VIN*%
%TO.N,+9V*%
X168554400Y-135356600D03*
%TO.P,U4,8,PH*%
%TO.N,/PH_Pin*%
X169824403Y-135356600D03*
D15*
%TO.P,U4,9,PowerPAD*%
%TO.N,GND*%
X167919399Y-132656829D03*
%TD*%
D16*
%TO.P,C11,1*%
%TO.N,Net-(U8-VINT)*%
X144246600Y-135441500D03*
%TO.P,C11,2*%
%TO.N,GND*%
X144246600Y-134306500D03*
%TD*%
D17*
%TO.P,C2,1*%
%TO.N,+5V*%
X107442000Y-105829500D03*
%TO.P,C2,2*%
%TO.N,GND*%
X107442000Y-102704500D03*
%TD*%
D11*
%TO.P,L_TP_1,1,1*%
%TO.N,/Battery_Out*%
X103428800Y-118262400D03*
%TD*%
D18*
%TO.P,U1,1,SW*%
%TO.N,Net-(D1-A)*%
X107701500Y-112080000D03*
%TO.P,U1,2,GND*%
%TO.N,GND*%
X107701500Y-113030000D03*
%TO.P,U1,3,FB*%
%TO.N,Net-(U1-FB)*%
X107701500Y-113980000D03*
%TO.P,U1,4,EN*%
%TO.N,/Battery_Out*%
X109976500Y-113980000D03*
%TO.P,U1,5,IN*%
X109976500Y-113030000D03*
%TO.P,U1,6,NC*%
%TO.N,unconnected-(U1-NC-Pad6)*%
X109976500Y-112080000D03*
%TD*%
D19*
%TO.P,C9,1*%
%TO.N,GND*%
X162609700Y-119075200D03*
%TO.P,C9,2*%
%TO.N,/Battery_Out*%
X160884700Y-119075200D03*
%TD*%
D20*
%TO.P,C30,1*%
%TO.N,/EXT_LOAD1_OUT*%
X125171200Y-139293600D03*
%TO.P,C30,2*%
%TO.N,Net-(C30-Pad2)*%
X120096200Y-139293600D03*
%TD*%
D11*
%TO.P,9-5V_R1_TP1,1,1*%
%TO.N,/Battey_Charger_VDD*%
X162941000Y-136144000D03*
%TD*%
D21*
%TO.P,C4,1,1*%
%TO.N,+5V*%
X127762000Y-111597691D03*
%TO.P,C4,2,2*%
%TO.N,GND*%
X127762000Y-114970309D03*
%TD*%
D22*
%TO.P,J2,1,Pin_1*%
%TO.N,/BOUT1 (U1)*%
X158572200Y-146227800D03*
D23*
%TO.P,J2,2,Pin_2*%
%TO.N,/BOUT2 (U1)*%
X158572200Y-148767800D03*
%TO.P,J2,3,Pin_3*%
%TO.N,/BIN1 (U1)*%
X156032200Y-146227800D03*
%TO.P,J2,4,Pin_4*%
%TO.N,/BOUT1 (U2)*%
X156032200Y-148767800D03*
%TO.P,J2,5,Pin_5*%
%TO.N,/BIN2 (U1)*%
X153492200Y-146227800D03*
%TO.P,J2,6,Pin_6*%
%TO.N,/BOUT2 (U2)*%
X153492200Y-148767800D03*
%TO.P,J2,7,Pin_7*%
%TO.N,/BIN1 (U2)*%
X150952200Y-146227800D03*
%TO.P,J2,8,Pin_8*%
%TO.N,/CTRL_EXT_LOAD2*%
X150952200Y-148767800D03*
%TO.P,J2,9,Pin_9*%
%TO.N,/BIN2 (U2)*%
X148412200Y-146227800D03*
%TO.P,J2,10,Pin_10*%
%TO.N,unconnected-(J2-Pin_10-Pad10)*%
X148412200Y-148767800D03*
%TO.P,J2,11,Pin_11*%
%TO.N,unconnected-(J2-Pin_11-Pad11)*%
X145872200Y-146227800D03*
%TO.P,J2,12,Pin_12*%
%TO.N,/EXT_LOAD2_OUT*%
X145872200Y-148767800D03*
%TO.P,J2,13,Pin_13*%
%TO.N,/Battery_Out*%
X143332200Y-146227800D03*
%TO.P,J2,14,Pin_14*%
%TO.N,/Fast_Charge_CTRL*%
X143332200Y-148767800D03*
%TO.P,J2,15,Pin_15*%
%TO.N,/I2C1_SCL*%
X140792200Y-146227800D03*
%TO.P,J2,16,Pin_16*%
%TO.N,unconnected-(J2-Pin_16-Pad16)*%
X140792200Y-148767800D03*
%TO.P,J2,17,Pin_17*%
%TO.N,+3V3*%
X138252200Y-146227800D03*
%TO.P,J2,18,Pin_18*%
%TO.N,/I2C1_SDA*%
X138252200Y-148767800D03*
%TO.P,J2,19,Pin_19*%
%TO.N,+5V*%
X135712200Y-146227800D03*
%TO.P,J2,20,Pin_20*%
%TO.N,GND*%
X135712200Y-148767800D03*
%TO.P,J2,21,Pin_21*%
%TO.N,+9V*%
X133172200Y-146227800D03*
%TO.P,J2,22,Pin_22*%
%TO.N,/EXT_LOAD1_OUT*%
X133172200Y-148767800D03*
%TO.P,J2,23,Pin_23*%
%TO.N,/AIN1 (U2)*%
X130632200Y-146227800D03*
%TO.P,J2,24,Pin_24*%
%TO.N,GND*%
X130632200Y-148767800D03*
%TO.P,J2,25,Pin_25*%
%TO.N,/AIN2 (U2)*%
X128092200Y-146227800D03*
%TO.P,J2,26,Pin_26*%
%TO.N,/CTRL_EXT_LOAD1*%
X128092200Y-148767800D03*
%TO.P,J2,27,Pin_27*%
%TO.N,/AIN1 (U1)*%
X125552200Y-146227800D03*
%TO.P,J2,28,Pin_28*%
%TO.N,/AOUT1 (U2)*%
X125552200Y-148767800D03*
%TO.P,J2,29,Pin_29*%
%TO.N,/AIN2 (U1)*%
X123012200Y-146227800D03*
%TO.P,J2,30,Pin_30*%
%TO.N,/AOUT2 (U2)*%
X123012200Y-148767800D03*
%TO.P,J2,31,Pin_31*%
%TO.N,/AOUT1 (U1)*%
X120472200Y-146227800D03*
%TO.P,J2,32,Pin_32*%
%TO.N,/AOUT2 (U1)*%
X120472200Y-148767800D03*
%TD*%
D24*
%TO.P,C16,1*%
%TO.N,Net-(U10-VCP)*%
X155846400Y-135280400D03*
%TO.P,C16,2*%
%TO.N,/Battery_Out*%
X154711400Y-135280400D03*
%TD*%
D11*
%TO.P,5V_R2_TP1,1,1*%
%TO.N,GND*%
X119253000Y-118364000D03*
%TD*%
D24*
%TO.P,C33,1*%
%TO.N,GND*%
X156015500Y-117094000D03*
%TO.P,C33,2*%
%TO.N,+5V*%
X154880500Y-117094000D03*
%TD*%
D25*
%TO.P,U7,17,EH*%
%TO.N,GND*%
X174394883Y-145608550D03*
%TO.P,U7,18,EH*%
X174394883Y-149608550D03*
%TO.P,U7,19,EH*%
X163734989Y-149608550D03*
%TO.P,U7,20,EH*%
X163734989Y-145608550D03*
D26*
%TO.P,U7,A1,GND*%
X165865038Y-145034000D03*
%TO.P,U7,A4,VBUS*%
%TO.N,+9V*%
X166664885Y-145034000D03*
D27*
%TO.P,U7,A5,CC1*%
%TO.N,/CC1*%
X167815000Y-145034000D03*
%TO.P,U7,A6,DP1*%
%TO.N,/DP1*%
X168815000Y-145034000D03*
%TO.P,U7,A7,DN1*%
%TO.N,/DN1*%
X169314872Y-145034000D03*
%TO.P,U7,A8,SBU1*%
%TO.N,unconnected-(U7-SBU1-PadA8)*%
X170314618Y-145034000D03*
D26*
%TO.P,U7,A9,VBUS*%
%TO.N,+9V*%
X171464987Y-145034000D03*
%TO.P,U7,A12,GND*%
%TO.N,GND*%
X172265088Y-145034000D03*
D27*
%TO.P,U7,B5,CC2*%
%TO.N,/CC2*%
X170815000Y-145034000D03*
%TO.P,U7,B6,DP2*%
%TO.N,/DP1*%
X169815000Y-145034000D03*
%TO.P,U7,B7,DN2*%
%TO.N,/DN1*%
X168314872Y-145034000D03*
%TO.P,U7,B8,SBU2*%
%TO.N,unconnected-(U7-SBU2-PadB8)*%
X167314872Y-145034000D03*
%TD*%
D28*
%TO.P,R5,1*%
%TO.N,/Battery_In_After_Switch*%
X112511500Y-128159000D03*
%TO.P,R5,2*%
%TO.N,Net-(JP1-B)*%
X114336500Y-128159000D03*
%TD*%
D29*
%TO.P,R15,1*%
%TO.N,Net-(U9-VSET)*%
X174498000Y-141962500D03*
%TO.P,R15,2*%
%TO.N,GND*%
X174498000Y-143787500D03*
%TD*%
D30*
%TO.P,R10,1*%
%TO.N,Net-(R10-Pad1)*%
X171907200Y-114957900D03*
%TO.P,R10,2*%
%TO.N,GND*%
X171907200Y-113762900D03*
%TD*%
D10*
%TO.P,C20,1*%
%TO.N,/EXT_LOAD2_OUT*%
X150982600Y-111531400D03*
%TO.P,C20,2*%
%TO.N,Net-(C20-Pad2)*%
X156057600Y-111531400D03*
%TD*%
D31*
%TO.P,C17,1*%
%TO.N,/Battery_Out*%
X148844000Y-132231300D03*
%TO.P,C17,2*%
%TO.N,GND*%
X148844000Y-130506300D03*
%TD*%
%TO.P,C14,1*%
%TO.N,/Battery_Out*%
X146583400Y-132256700D03*
%TO.P,C14,2*%
%TO.N,GND*%
X146583400Y-130531700D03*
%TD*%
D29*
%TO.P,R3,1*%
%TO.N,Net-(R2-Pad2)*%
X113665000Y-111863500D03*
%TO.P,R3,2*%
%TO.N,Net-(U1-FB)*%
X113665000Y-113688500D03*
%TD*%
D11*
%TO.P,CHRG_SelectR2_TP1,1,1*%
%TO.N,Net-(U6-NO)*%
X175336200Y-116636800D03*
%TD*%
D32*
%TO.P,H1,1,1*%
%TO.N,GND*%
X139649200Y-119659099D03*
%TD*%
D24*
%TO.P,C12,1*%
%TO.N,Net-(U8-VCP)*%
X146532600Y-135483600D03*
%TO.P,C12,2*%
%TO.N,/Battery_Out*%
X145397600Y-135483600D03*
%TD*%
D32*
%TO.P,H3,1,1*%
%TO.N,GND*%
X139649200Y-109659099D03*
%TD*%
D33*
%TO.P,L3,1*%
%TO.N,/PH_Pin*%
X173583600Y-127330200D03*
%TO.P,L3,2*%
%TO.N,/Battey_Charger_VDD*%
X173583600Y-122830200D03*
%TD*%
D34*
%TO.P,U8,1,nSleep*%
%TO.N,+3V3*%
X142936717Y-142600813D03*
%TO.P,U8,2,AOUT1*%
%TO.N,/AOUT1 (U1)*%
X143586705Y-142600813D03*
%TO.P,U8,3,AISEN*%
%TO.N,GND*%
X144236692Y-142600813D03*
%TO.P,U8,4,AOUT2*%
%TO.N,/AOUT2 (U1)*%
X144886933Y-142600813D03*
%TO.P,U8,5,BOUT2*%
%TO.N,/BOUT2 (U1)*%
X145536921Y-142600813D03*
%TO.P,U8,6,BISEN*%
%TO.N,GND*%
X146186908Y-142600813D03*
%TO.P,U8,7,BOUT1*%
%TO.N,/BOUT1 (U1)*%
X146836895Y-142600813D03*
%TO.P,U8,8,nFault*%
%TO.N,unconnected-(U8-nFault-Pad8)*%
X147486883Y-142600813D03*
%TO.P,U8,9,BIN1*%
%TO.N,/BIN1 (U1)*%
X147486883Y-136900787D03*
%TO.P,U8,10,BIN2*%
%TO.N,/BIN2 (U1)*%
X146836895Y-136900787D03*
%TO.P,U8,11,VCP*%
%TO.N,Net-(U8-VCP)*%
X146186908Y-136900787D03*
%TO.P,U8,12,VM*%
%TO.N,/Battery_Out*%
X145536921Y-136900787D03*
%TO.P,U8,13,GND*%
%TO.N,GND*%
X144886933Y-136900787D03*
%TO.P,U8,14,VINT*%
%TO.N,Net-(U8-VINT)*%
X144236692Y-136900787D03*
%TO.P,U8,15,AIN2*%
%TO.N,/AIN2 (U1)*%
X143586705Y-136900787D03*
%TO.P,U8,16,AIN1*%
%TO.N,/AIN1 (U1)*%
X142936717Y-136900787D03*
D35*
%TO.P,U8,17,GND*%
%TO.N,GND*%
X145211800Y-139750800D03*
%TD*%
D11*
%TO.P,5V_TP1,1,1*%
%TO.N,+5V*%
X112191800Y-102260400D03*
%TD*%
D36*
%TO.P,C7,1*%
%TO.N,Net-(C7-Pad1)*%
X155498800Y-122657700D03*
%TO.P,C7,2*%
%TO.N,/Battey_Charger_VDD*%
X155498800Y-124382700D03*
%TD*%
D37*
%TO.P,R13,1*%
%TO.N,/Battey_Charger_VDD*%
X164490399Y-126889702D03*
%TO.P,R13,2*%
%TO.N,Net-(U4-VSENSE)*%
X164490399Y-128084702D03*
%TD*%
%TO.P,R4,1*%
%TO.N,Net-(U1-FB)*%
X114935000Y-113702500D03*
%TO.P,R4,2*%
%TO.N,GND*%
X114935000Y-114897500D03*
%TD*%
D28*
%TO.P,R2,1*%
%TO.N,+5V*%
X111863500Y-110363000D03*
%TO.P,R2,2*%
%TO.N,Net-(R2-Pad2)*%
X113688500Y-110363000D03*
%TD*%
D33*
%TO.P,L2,1*%
%TO.N,/Battery_Out*%
X103428800Y-115254600D03*
%TO.P,L2,2*%
%TO.N,Net-(D1-A)*%
X103428800Y-110754600D03*
%TD*%
D11*
%TO.P,CHRG_SelectR1_TP1,1,1*%
%TO.N,Net-(U6-NC)*%
X168122600Y-116916200D03*
%TD*%
D38*
%TO.P,U12,1,OUT*%
%TO.N,/EXT_LOAD2_OUT*%
X150977600Y-117073676D03*
%TO.P,U12,2,GND*%
%TO.N,GND*%
X150977600Y-118023638D03*
%TO.P,U12,3,FLG*%
%TO.N,unconnected-(U12-FLG-Pad3)*%
X150977600Y-118973600D03*
%TO.P,U12,4,EN*%
%TO.N,/CTRL_EXT_LOAD2*%
X153577550Y-118973600D03*
%TO.P,U12,5,IN*%
%TO.N,+5V*%
X153577550Y-117073676D03*
%TD*%
D39*
%TO.P,JP2,1,A*%
%TO.N,Net-(JP2-A)*%
X114011500Y-120909000D03*
%TO.P,JP2,2,B*%
%TO.N,/Battery_Out*%
X112711500Y-120909000D03*
%TD*%
D11*
%TO.P,CHRG_VinR_TP1,1,1*%
%TO.N,Net-(C7-Pad1)*%
X159943800Y-115265200D03*
%TD*%
D30*
%TO.P,R12,1*%
%TO.N,GND*%
X164490399Y-132563800D03*
%TO.P,R12,2*%
%TO.N,Net-(R12-Pad2)*%
X164490399Y-131368800D03*
%TD*%
D40*
%TO.P,C5,1,1*%
%TO.N,+3V3*%
X127818898Y-117856000D03*
%TO.P,C5,2,2*%
%TO.N,GND*%
X125419102Y-117856000D03*
%TD*%
D38*
%TO.P,U14,1,OUT*%
%TO.N,/EXT_LOAD1_OUT*%
X128117600Y-137668000D03*
%TO.P,U14,2,GND*%
%TO.N,GND*%
X128117600Y-138617962D03*
%TO.P,U14,3,FLG*%
%TO.N,unconnected-(U14-FLG-Pad3)*%
X128117600Y-139567924D03*
%TO.P,U14,4,EN*%
%TO.N,/CTRL_EXT_LOAD1*%
X130717550Y-139567924D03*
%TO.P,U14,5,IN*%
%TO.N,+5V*%
X130717550Y-137668000D03*
%TD*%
D11*
%TO.P,9V_TP1,1,1*%
%TO.N,+9V*%
X133858000Y-130048000D03*
%TD*%
D20*
%TO.P,C21,1*%
%TO.N,Net-(C20-Pad2)*%
X156133800Y-104419400D03*
%TO.P,C21,2*%
%TO.N,GND*%
X151058800Y-104419400D03*
%TD*%
D16*
%TO.P,C15,1*%
%TO.N,Net-(U10-VINT)*%
X153593800Y-135238300D03*
%TO.P,C15,2*%
%TO.N,GND*%
X153593800Y-134103300D03*
%TD*%
D28*
%TO.P,R6,1*%
%TO.N,/Battery_Out*%
X112511500Y-122909000D03*
%TO.P,R6,2*%
%TO.N,Net-(JP2-A)*%
X114336500Y-122909000D03*
%TD*%
D41*
%TO.P,C10,1*%
%TO.N,/Battey_Charger_VDD*%
X158775403Y-127106600D03*
%TO.P,C10,2*%
%TO.N,GND*%
X158775403Y-132181600D03*
%TD*%
D11*
%TO.P,9-5V_VSense_TP1,1,1*%
%TO.N,Net-(U4-VSENSE)*%
X162915600Y-139700000D03*
%TD*%
D42*
%TO.P,C1,1*%
%TO.N,/Battery_Out*%
X110159000Y-115951000D03*
%TO.P,C1,2*%
%TO.N,GND*%
X113284000Y-115951000D03*
%TD*%
D43*
%TO.P,U9,1,CC1*%
%TO.N,/CC1*%
X170799987Y-141969924D03*
%TO.P,U9,2,VUSB*%
%TO.N,+9V*%
X171449975Y-141969924D03*
%TO.P,U9,3,VSET*%
%TO.N,Net-(U9-VSET)*%
X172099962Y-141969924D03*
%TO.P,U9,4,D+*%
%TO.N,unconnected-(U9-D+-Pad4)*%
X172099962Y-139969924D03*
%TO.P,U9,5,D-*%
%TO.N,unconnected-(U9-D--Pad5)*%
X171449975Y-139969924D03*
%TO.P,U9,6,CC2*%
%TO.N,/CC2*%
X170799987Y-139969924D03*
D44*
%TO.P,U9,7,GND*%
%TO.N,GND*%
X171449975Y-140969924D03*
%TD*%
D28*
%TO.P,R8,1*%
%TO.N,Net-(C7-Pad1)*%
X156999300Y-122021600D03*
%TO.P,R8,2*%
%TO.N,GND*%
X158824300Y-122021600D03*
%TD*%
D45*
%TO.P,U2,1,IN+*%
%TO.N,Net-(JP1-B)*%
X120562560Y-125884108D03*
%TO.P,U2,2,IN-*%
%TO.N,Net-(JP2-A)*%
X120562560Y-125234121D03*
%TO.P,U2,3,GND*%
%TO.N,GND*%
X120562560Y-124584133D03*
%TO.P,U2,4,VS*%
%TO.N,+3V3*%
X120562560Y-123933892D03*
%TO.P,U2,5,SCL*%
%TO.N,/I2C1_SCL*%
X118110440Y-123933892D03*
%TO.P,U2,6,SDA*%
%TO.N,/I2C1_SDA*%
X118110440Y-124584133D03*
%TO.P,U2,7,A0*%
%TO.N,GND*%
X118110440Y-125234121D03*
%TO.P,U2,8,A1*%
%TO.N,+3V3*%
X118110440Y-125884108D03*
%TD*%
D11*
%TO.P,Shunt_TP1,1,1*%
%TO.N,/Battery_In_After_Switch*%
X105086500Y-127409000D03*
%TD*%
D46*
%TO.P,U6,1,NO*%
%TO.N,Net-(U6-NO)*%
X173130974Y-118830800D03*
%TO.P,U6,2,GND*%
%TO.N,GND*%
X172480987Y-118830800D03*
%TO.P,U6,3,NC*%
%TO.N,Net-(U6-NC)*%
X171831000Y-118830800D03*
%TO.P,U6,4,COM*%
%TO.N,Net-(U5-PROG)*%
X171831000Y-120730724D03*
%TO.P,U6,5,V+*%
%TO.N,/Battey_Charger_VDD*%
X172480987Y-120730724D03*
%TO.P,U6,6,IN*%
%TO.N,/Fast_Charge_CTRL*%
X173130974Y-120730724D03*
%TD*%
D11*
%TO.P,3V3_TP1,1,1*%
%TO.N,+3V3*%
X128016000Y-102362000D03*
%TD*%
D47*
%TO.P,R17,1*%
%TO.N,/I2C1_SDA*%
X126632300Y-125857000D03*
%TO.P,R17,2*%
%TO.N,+3V3*%
X125437300Y-125857000D03*
%TD*%
%TO.P,R16,1*%
%TO.N,/I2C1_SCL*%
X126632300Y-126856400D03*
%TO.P,R16,2*%
%TO.N,+3V3*%
X125437300Y-126856400D03*
%TD*%
D48*
%TO.P,C28,1*%
%TO.N,GND*%
X130683000Y-135068500D03*
%TO.P,C28,2*%
%TO.N,+5V*%
X130683000Y-136203500D03*
%TD*%
D36*
%TO.P,C3,1*%
%TO.N,+3V3*%
X123393200Y-123749900D03*
%TO.P,C3,2*%
%TO.N,GND*%
X123393200Y-125474900D03*
%TD*%
D28*
%TO.P,R7,1*%
%TO.N,Net-(C7-Pad1)*%
X157001200Y-123520200D03*
%TO.P,R7,2*%
%TO.N,GND*%
X158826200Y-123520200D03*
%TD*%
D32*
%TO.P,H2,1,1*%
%TO.N,GND*%
X139649200Y-99659099D03*
%TD*%
D11*
%TO.P,CHRG_SelectR1_TP2,1,1*%
%TO.N,GND*%
X168122600Y-113334800D03*
%TD*%
D49*
%TO.P,U3,1,GND*%
%TO.N,GND*%
X134761000Y-111531000D03*
%TO.P,U3,2,VO*%
%TO.N,+3V3*%
X132461000Y-111531000D03*
D50*
X132461000Y-117831000D03*
D49*
%TO.P,U3,3,VI*%
%TO.N,+5V*%
X130161000Y-111531000D03*
%TD*%
D11*
%TO.P,9-5V_R2_TP1,1,1*%
%TO.N,GND*%
X162941000Y-143205200D03*
%TD*%
D51*
%TO.P,C8,1*%
%TO.N,Net-(U4-BOOT)*%
X171755899Y-129227702D03*
%TO.P,C8,2*%
%TO.N,/PH_Pin*%
X173480899Y-129227702D03*
%TD*%
D39*
%TO.P,JP1,1,A*%
%TO.N,/Battery_In_After_Switch*%
X112786500Y-130409000D03*
%TO.P,JP1,2,B*%
%TO.N,Net-(JP1-B)*%
X114086500Y-130409000D03*
%TD*%
D11*
%TO.P,CHRG_SelectR2_TP2,1,1*%
%TO.N,GND*%
X175336200Y-113106200D03*
%TD*%
D52*
%TO.P,R1,1*%
%TO.N,/Battery_Out*%
X110086500Y-124109000D03*
%TO.P,R1,2*%
%TO.N,/Battery_In_After_Switch*%
X110086500Y-127209000D03*
%TD*%
D48*
%TO.P,C32,1*%
%TO.N,GND*%
X128117600Y-135009000D03*
%TO.P,C32,2*%
%TO.N,/EXT_LOAD1_OUT*%
X128117600Y-136144000D03*
%TD*%
D30*
%TO.P,R9,1*%
%TO.N,Net-(U6-NC)*%
X171907200Y-117243900D03*
%TO.P,R9,2*%
%TO.N,Net-(R10-Pad1)*%
X171907200Y-116048900D03*
%TD*%
D53*
%TO.P,D2,1,K*%
%TO.N,/PH_Pin*%
X172618399Y-136126600D03*
%TO.P,D2,2,A*%
%TO.N,GND*%
X172618399Y-131726804D03*
%TD*%
D54*
%TO.P,C23,1*%
%TO.N,GND*%
X147692300Y-117068600D03*
%TO.P,C23,2*%
%TO.N,/EXT_LOAD2_OUT*%
X148827300Y-117068600D03*
%TD*%
D53*
%TO.P,D1,1,K*%
%TO.N,+5V*%
X107482898Y-108331000D03*
%TO.P,D1,2,A*%
%TO.N,Net-(D1-A)*%
X103083102Y-108331000D03*
%TD*%
D30*
%TO.P,R11,1*%
%TO.N,Net-(U6-NO)*%
X172923200Y-114945800D03*
%TO.P,R11,2*%
%TO.N,GND*%
X172923200Y-113750800D03*
%TD*%
D11*
%TO.P,L_TP_2,1,1*%
%TO.N,Net-(D1-A)*%
X102997000Y-104902000D03*
%TD*%
D55*
%TO.P,U5,1,TEMP*%
%TO.N,GND*%
X166700204Y-124447302D03*
%TO.P,U5,2,PROG*%
%TO.N,Net-(U5-PROG)*%
X166700204Y-123177299D03*
%TO.P,U5,3,GND*%
%TO.N,GND*%
X166700204Y-121907297D03*
%TO.P,U5,4,VCC*%
%TO.N,/Battey_Charger_VDD*%
X166700204Y-120637294D03*
%TO.P,U5,5,BAT*%
%TO.N,/Battery_Out*%
X160883592Y-120637294D03*
%TO.P,U5,6,STDBY#*%
%TO.N,GND*%
X160883592Y-121907297D03*
%TO.P,U5,7,CHRG#*%
X160883592Y-123177299D03*
%TO.P,U5,8,CE*%
%TO.N,/Battey_Charger_VDD*%
X160883592Y-124447302D03*
D56*
%TO.P,U5,9,EP*%
%TO.N,GND*%
X163791898Y-122542298D03*
%TD*%
D11*
%TO.P,5V_FB_TP1,1,1*%
%TO.N,Net-(U1-FB)*%
X119126000Y-114300000D03*
%TD*%
%TO.P,Shunt_TP2,1,1*%
%TO.N,/Battery_Out*%
X105086500Y-123909000D03*
%TD*%
D37*
%TO.P,R14,1*%
%TO.N,Net-(U4-VSENSE)*%
X164490399Y-129120300D03*
%TO.P,R14,2*%
%TO.N,Net-(R12-Pad2)*%
X164490399Y-130315300D03*
%TD*%
D57*
%TO.P,JP3,1,A*%
%TO.N,Net-(JP2-A)*%
X114336500Y-124909000D03*
%TO.P,JP3,2,B*%
%TO.N,Net-(JP1-B)*%
X114336500Y-126209000D03*
%TD*%
D11*
%TO.P,CHRG_VinR_TP2,1,1*%
%TO.N,GND*%
X163576000Y-115265200D03*
%TD*%
D34*
%TO.P,U10,1,nSleep*%
%TO.N,+3V3*%
X152294834Y-142494000D03*
%TO.P,U10,2,AOUT1*%
%TO.N,/AOUT1 (U2)*%
X152944822Y-142494000D03*
%TO.P,U10,3,AISEN*%
%TO.N,GND*%
X153594809Y-142494000D03*
%TO.P,U10,4,AOUT2*%
%TO.N,/AOUT2 (U2)*%
X154245050Y-142494000D03*
%TO.P,U10,5,BOUT2*%
%TO.N,/BOUT2 (U2)*%
X154895038Y-142494000D03*
%TO.P,U10,6,BISEN*%
%TO.N,GND*%
X155545025Y-142494000D03*
%TO.P,U10,7,BOUT1*%
%TO.N,/BOUT1 (U2)*%
X156195012Y-142494000D03*
%TO.P,U10,8,nFault*%
%TO.N,unconnected-(U10-nFault-Pad8)*%
X156845000Y-142494000D03*
%TO.P,U10,9,BIN1*%
%TO.N,/BIN1 (U2)*%
X156845000Y-136793974D03*
%TO.P,U10,10,BIN2*%
%TO.N,/BIN2 (U2)*%
X156195012Y-136793974D03*
%TO.P,U10,11,VCP*%
%TO.N,Net-(U10-VCP)*%
X155545025Y-136793974D03*
%TO.P,U10,12,VM*%
%TO.N,/Battery_Out*%
X154895038Y-136793974D03*
%TO.P,U10,13,GND*%
%TO.N,GND*%
X154245050Y-136793974D03*
%TO.P,U10,14,VINT*%
%TO.N,Net-(U10-VINT)*%
X153594809Y-136793974D03*
%TO.P,U10,15,AIN2*%
%TO.N,/AIN2 (U2)*%
X152944822Y-136793974D03*
%TO.P,U10,16,AIN1*%
%TO.N,/AIN1 (U2)*%
X152294834Y-136793974D03*
D35*
%TO.P,U10,17,GND*%
%TO.N,GND*%
X154569917Y-139643987D03*
%TD*%
D51*
%TO.P,C6,1*%
%TO.N,GND*%
X166804000Y-137210800D03*
%TO.P,C6,2*%
%TO.N,+9V*%
X168529000Y-137210800D03*
%TD*%
D11*
%TO.P,BAT_TP1,1,1*%
%TO.N,/Battery_Out*%
X131876800Y-102260400D03*
%TD*%
%TO.P,GND_TP1,1,1*%
%TO.N,GND*%
X146278600Y-102946200D03*
%TD*%
D58*
%TO.P,U11,1,1*%
%TO.N,/Battery_In_After_Switch*%
X110000000Y-133549975D03*
D59*
%TO.P,U11,2,2*%
%TO.N,/Battery_In_Before_Switch*%
X110000000Y-138250000D03*
%TO.P,U11,3,3*%
%TO.N,GND*%
X110000000Y-142950025D03*
%TD*%
D24*
%TO.P,C13,1*%
%TO.N,GND*%
X169579100Y-139471400D03*
%TO.P,C13,2*%
%TO.N,+9V*%
X168444100Y-139471400D03*
%TD*%
D60*
%TO.N,+3V3*%
X130302000Y-107188000D03*
X118110000Y-127635000D03*
X127889000Y-119253000D03*
X142748000Y-117348000D03*
X131318000Y-109474000D03*
X141706600Y-129260600D03*
%TO.N,Net-(U1-FB)*%
X112395000Y-113792000D03*
X107721400Y-115189000D03*
%TO.N,+5V*%
X135839200Y-108331000D03*
X140335000Y-127990600D03*
%TO.N,GND*%
X125476000Y-115062000D03*
X148590000Y-104419400D03*
X151384000Y-139649200D03*
X153822400Y-129184400D03*
X157886400Y-140081000D03*
X144246600Y-133299200D03*
X162610800Y-117856000D03*
X148259800Y-139801600D03*
X171932600Y-112734800D03*
X156032200Y-116103400D03*
X150393400Y-128524000D03*
X144754600Y-119202200D03*
X147726400Y-131343400D03*
X153593800Y-133045200D03*
X174777400Y-119786400D03*
X115443000Y-117602000D03*
X123367800Y-126796800D03*
X146558000Y-129260600D03*
X148615400Y-126339600D03*
X163042600Y-133959600D03*
X153822400Y-131595700D03*
X150393400Y-128524000D03*
X147726400Y-117957600D03*
X163703000Y-147701000D03*
X129540000Y-135128000D03*
X169697400Y-140944600D03*
X127685800Y-132156200D03*
X137109200Y-142265400D03*
X164566600Y-133934200D03*
X147726400Y-133680200D03*
X174371000Y-147447000D03*
X108864400Y-110871000D03*
%TO.N,Net-(U4-VSENSE)*%
X166014400Y-138455400D03*
X166014400Y-128473200D03*
%TO.N,+9V*%
X139522200Y-139090400D03*
X167690800Y-138379200D03*
X142138400Y-131216400D03*
X133290000Y-139115800D03*
%TO.N,/Battery_Out*%
X143281400Y-131191000D03*
X146050000Y-115824000D03*
X143433800Y-104749600D03*
%TO.N,Net-(C7-Pad1)*%
X159918400Y-117602000D03*
X153720800Y-122021600D03*
%TO.N,/Fast_Charge_CTRL*%
X148818600Y-128930400D03*
X150206698Y-131572500D03*
X150198130Y-133044700D03*
X174777400Y-120929400D03*
%TO.N,/I2C1_SCL*%
X127838200Y-123113800D03*
X118117500Y-123142000D03*
%TO.N,/I2C1_SDA*%
X116720500Y-123142000D03*
X126619000Y-122402600D03*
%TO.N,Net-(JP1-B)*%
X116339500Y-126190000D03*
X121938000Y-126202500D03*
%TO.N,Net-(JP2-A)*%
X116339500Y-124920000D03*
X121938000Y-124932500D03*
%TO.N,Net-(U5-PROG)*%
X168173400Y-123190000D03*
X170870374Y-120837400D03*
%TO.N,/EXT_LOAD1_OUT*%
X126669800Y-142138400D03*
X131978400Y-142138400D03*
%TO.N,/EXT_LOAD2_OUT*%
X151206200Y-131572000D03*
X149809200Y-117068600D03*
X150164800Y-122326400D03*
X151197633Y-133044700D03*
%TO.N,/BOUT2 (U1)*%
X145872200Y-143840200D03*
X144703800Y-151231600D03*
%TO.N,/BOUT1 (U1)*%
X147269200Y-152019000D03*
X147167600Y-143891000D03*
%TO.N,/BOUT1 (U2)*%
X156501796Y-143663308D03*
%TO.N,/BIN1 (U1)*%
X149428200Y-134200300D03*
X159010600Y-141344400D03*
%TO.N,/BOUT2 (U2)*%
X155184749Y-143654604D03*
%TO.N,/BIN2 (U1)*%
X147828000Y-134924800D03*
%TO.N,/CTRL_EXT_LOAD2*%
X152222200Y-122123200D03*
X155219400Y-118973600D03*
X152196800Y-133070600D03*
X152222200Y-131546600D03*
%TO.N,/BIN1 (U2)*%
X157835600Y-136779000D03*
%TO.N,/BIN2 (U2)*%
X157810200Y-135661400D03*
%TO.N,/AIN1 (U2)*%
X121920000Y-144780000D03*
X133604000Y-115062000D03*
X128524000Y-142748000D03*
X151384000Y-137160000D03*
X151384000Y-137160000D03*
X131064000Y-142748000D03*
X151384000Y-137160000D03*
X148844000Y-121920000D03*
X137058400Y-114782600D03*
X145542000Y-131318000D03*
%TO.N,/AIN2 (U2)*%
X144526000Y-131572000D03*
X124206000Y-144018000D03*
X151384000Y-138176000D03*
X137093933Y-115781470D03*
X124206000Y-151130000D03*
X133604000Y-116078000D03*
X147828000Y-121920000D03*
%TO.N,/AIN1 (U1)*%
X139521047Y-140841847D03*
%TO.N,/AIN2 (U1)*%
X139573000Y-143535400D03*
%TO.N,/AOUT2 (U1)*%
X141485703Y-150793700D03*
%TO.N,/AOUT1 (U1)*%
X139649200Y-150793700D03*
%TO.N,/CC2*%
X170815000Y-139065000D03*
X170725475Y-143764000D03*
%TD*%
D61*
%TO.N,+3V3*%
X137499863Y-116761470D02*
X137467130Y-116761470D01*
D62*
X120751452Y-123745000D02*
X123388300Y-123745000D01*
X125437300Y-125857000D02*
X124193200Y-125857000D01*
D61*
X132461000Y-111531000D02*
X132461000Y-117831000D01*
D62*
X142936717Y-142600813D02*
X141277130Y-144260400D01*
X141277130Y-144260400D02*
X138383800Y-144260400D01*
X138383800Y-144260400D02*
X138370000Y-144246600D01*
D61*
X132461000Y-110617000D02*
X132461000Y-111531000D01*
D62*
X127818898Y-119182898D02*
X127889000Y-119253000D01*
X127818898Y-117856000D02*
X127818898Y-119182898D01*
D61*
X138073933Y-116154667D02*
X138073933Y-116187400D01*
X142748000Y-117348000D02*
X141554200Y-116154200D01*
X127818898Y-117856000D02*
X132436000Y-117856000D01*
X138370000Y-138471600D02*
X138353800Y-138455400D01*
X132436000Y-117856000D02*
X132461000Y-117831000D01*
X131318000Y-109474000D02*
X132461000Y-110617000D01*
D62*
X124193200Y-127635000D02*
X124193200Y-125857000D01*
D61*
X138074400Y-116154200D02*
X138073933Y-116154667D01*
D62*
X125437300Y-126856400D02*
X125437300Y-125857000D01*
D61*
X138370000Y-146250000D02*
X138370000Y-144246600D01*
X128016000Y-102362000D02*
X128016000Y-105664000D01*
D62*
X118110000Y-127635000D02*
X124193200Y-127635000D01*
D61*
X137467130Y-116761470D02*
X136397600Y-117831000D01*
D62*
X118110000Y-125884548D02*
X118110440Y-125884108D01*
X120562560Y-123933892D02*
X120751452Y-123745000D01*
X123388300Y-123745000D02*
X123393200Y-123749900D01*
X124193200Y-125857000D02*
X124193200Y-124549900D01*
D61*
X138353800Y-138455400D02*
X138353800Y-132613400D01*
X136397600Y-117831000D02*
X132461000Y-117831000D01*
X128016000Y-105664000D02*
X129540000Y-107188000D01*
D62*
X118110000Y-127635000D02*
X118110000Y-125884548D01*
D61*
X138353800Y-132613400D02*
X141706600Y-129260600D01*
D62*
X124193200Y-124549900D02*
X123393200Y-123749900D01*
D61*
X129540000Y-107188000D02*
X130302000Y-107188000D01*
X138073933Y-116187400D02*
X137499863Y-116761470D01*
X138370000Y-144246600D02*
X138370000Y-138471600D01*
X141554200Y-116154200D02*
X138074400Y-116154200D01*
D62*
%TO.N,Net-(U1-FB)*%
X107721400Y-115189000D02*
X107701500Y-115169100D01*
X107701500Y-115169100D02*
X107701500Y-113980000D01*
X114935000Y-113702500D02*
X113679000Y-113702500D01*
X113665000Y-113688500D02*
X112498500Y-113688500D01*
X115532500Y-114300000D02*
X114935000Y-113702500D01*
X113679000Y-113702500D02*
X113665000Y-113688500D01*
X112498500Y-113688500D02*
X112395000Y-113792000D01*
X119126000Y-114300000D02*
X115532500Y-114300000D01*
D61*
%TO.N,+5V*%
X112191800Y-108026200D02*
X111887000Y-108331000D01*
X137896600Y-106273600D02*
X135839200Y-108331000D01*
X130094309Y-111597691D02*
X130161000Y-111531000D01*
X107482898Y-105870398D02*
X107442000Y-105829500D01*
X153597874Y-117094000D02*
X153577550Y-117073676D01*
X107482898Y-108331000D02*
X107482898Y-105870398D01*
X130048000Y-108331000D02*
X135839200Y-108331000D01*
X154880500Y-117094000D02*
X153597874Y-117094000D01*
X153577550Y-110990053D02*
X148861097Y-106273600D01*
D62*
X111863500Y-108354500D02*
X111887000Y-108331000D01*
D61*
X107482898Y-108331000D02*
X111887000Y-108331000D01*
X135830000Y-138598600D02*
X135813800Y-138582400D01*
D62*
X111863500Y-110363000D02*
X111863500Y-108354500D01*
D61*
X148861097Y-106273600D02*
X137896600Y-106273600D01*
D62*
X119126000Y-108458000D02*
X119126000Y-110490000D01*
D61*
X112191800Y-102260400D02*
X112191800Y-108026200D01*
D62*
X130717550Y-137668000D02*
X130717550Y-136238050D01*
D61*
X130161000Y-108444000D02*
X130161000Y-111531000D01*
D62*
X130717550Y-136238050D02*
X130683000Y-136203500D01*
D61*
X130717550Y-137668000D02*
X135813800Y-137668000D01*
X153577550Y-117073676D02*
X153577550Y-110990053D01*
X127762000Y-111597691D02*
X130094309Y-111597691D01*
X135813800Y-138582400D02*
X135813800Y-137668000D01*
X119253000Y-108331000D02*
X130048000Y-108331000D01*
X130048000Y-108331000D02*
X130161000Y-108444000D01*
X111887000Y-108331000D02*
X119253000Y-108331000D01*
D62*
X119253000Y-108331000D02*
X119126000Y-108458000D01*
D61*
X135830000Y-146250000D02*
X135830000Y-138598600D01*
X135813800Y-137668000D02*
X135813800Y-132511800D01*
X135813800Y-132511800D02*
X140335000Y-127990600D01*
D62*
%TO.N,GND*%
X128117600Y-138617962D02*
X129473962Y-138617962D01*
X174767800Y-119796000D02*
X172882000Y-119796000D01*
X153593800Y-134103300D02*
X153593800Y-133045200D01*
X119253000Y-118364000D02*
X116205000Y-118364000D01*
X121512100Y-124207500D02*
X122238305Y-124207500D01*
D61*
X164566600Y-133934200D02*
X164566600Y-132715403D01*
D62*
X150977600Y-118023638D02*
X147792438Y-118023638D01*
X153594809Y-142494000D02*
X153594809Y-140619095D01*
X158826200Y-122021600D02*
X160769289Y-122021600D01*
X129540000Y-135128000D02*
X128236600Y-135128000D01*
D61*
X163042600Y-133959600D02*
X163042600Y-132639202D01*
D62*
X107701500Y-113030000D02*
X108642249Y-113030000D01*
X135830000Y-148790000D02*
X137005000Y-147615000D01*
D61*
X125145800Y-132156200D02*
X127685800Y-132156200D01*
D62*
X148818600Y-130531700D02*
X148844000Y-130506300D01*
X171907200Y-113762900D02*
X172911100Y-113762900D01*
D61*
X150393400Y-128524000D02*
X150393400Y-128117600D01*
X154569917Y-139643987D02*
X151389213Y-139643987D01*
X136779000Y-111633000D02*
X138752901Y-109659099D01*
X138752901Y-109659099D02*
X139649200Y-109659099D01*
X153822400Y-129184400D02*
X153822400Y-131595700D01*
D62*
X174777400Y-119786400D02*
X174767800Y-119796000D01*
X144236692Y-140725908D02*
X145211800Y-139750800D01*
D61*
X162609700Y-117857100D02*
X162610800Y-117856000D01*
D62*
X158826200Y-123520200D02*
X160540691Y-123520200D01*
D61*
X163703000Y-149576561D02*
X163734989Y-149608550D01*
D62*
X116205000Y-118364000D02*
X115443000Y-117602000D01*
X154245050Y-136793974D02*
X154245050Y-139319120D01*
X147777200Y-131292600D02*
X147726400Y-131343400D01*
D61*
X134863000Y-111633000D02*
X134761000Y-111531000D01*
D62*
X174394883Y-145608550D02*
X174394883Y-143890617D01*
D61*
X174394883Y-147470883D02*
X174371000Y-147447000D01*
D62*
X144246600Y-134306500D02*
X144246600Y-133299200D01*
X123367800Y-125500300D02*
X123393200Y-125474900D01*
D63*
X167881772Y-132619202D02*
X167919399Y-132656829D01*
D62*
X144886933Y-139425933D02*
X144886933Y-136900787D01*
X172839638Y-145608550D02*
X172265088Y-145034000D01*
X164309539Y-145034000D02*
X163734989Y-145608550D01*
X144297701Y-119659099D02*
X139649200Y-119659099D01*
D63*
X171688374Y-132656829D02*
X172618399Y-131726804D01*
D62*
X163576000Y-116890800D02*
X162610800Y-117856000D01*
D63*
X158775403Y-132181600D02*
X159233005Y-132639202D01*
X167919399Y-132656829D02*
X171688374Y-132656829D01*
D62*
X166804000Y-135836998D02*
X167284398Y-135356600D01*
X147777200Y-130531700D02*
X147777200Y-131292600D01*
D61*
X174371000Y-145632433D02*
X174394883Y-145608550D01*
X154569917Y-139643987D02*
X157449387Y-139643987D01*
X163791898Y-120257398D02*
X162609700Y-119075200D01*
D62*
X162941000Y-144814561D02*
X163734989Y-145608550D01*
X130623500Y-135128000D02*
X130683000Y-135068500D01*
D61*
X165696902Y-124447302D02*
X163791898Y-122542298D01*
X164426899Y-121907297D02*
X163791898Y-122542298D01*
X156015500Y-117094000D02*
X156015500Y-116120100D01*
D62*
X148209000Y-139750800D02*
X145211800Y-139750800D01*
X160769289Y-122021600D02*
X160883592Y-121907297D01*
X160540691Y-123520200D02*
X160883592Y-123177299D01*
D61*
X162609700Y-119075200D02*
X162609700Y-117857100D01*
X164566600Y-132715403D02*
X164490399Y-132639202D01*
D62*
X166804000Y-137210800D02*
X166804000Y-135836998D01*
D61*
X166700204Y-121907297D02*
X164426899Y-121907297D01*
D62*
X146186908Y-142600813D02*
X146186908Y-140725908D01*
X148259800Y-139801600D02*
X148209000Y-139750800D01*
D61*
X161518593Y-122542298D02*
X160883592Y-121907297D01*
D62*
X175336200Y-113106200D02*
X172304000Y-113106200D01*
X114337500Y-114897500D02*
X113284000Y-115951000D01*
D61*
X151058800Y-104419400D02*
X148590000Y-104419400D01*
D62*
X137005000Y-147615000D02*
X137005000Y-142369600D01*
D61*
X125419102Y-117856000D02*
X125419102Y-115118898D01*
X169722724Y-140969924D02*
X169697400Y-140944600D01*
D62*
X144754600Y-119202200D02*
X144297701Y-119659099D01*
D61*
X114935000Y-117602000D02*
X113284000Y-115951000D01*
D63*
X164490399Y-132619202D02*
X167881772Y-132619202D01*
D62*
X108642249Y-113030000D02*
X108864400Y-112807849D01*
D61*
X167919399Y-132656829D02*
X167284398Y-133291830D01*
D62*
X146558000Y-130506300D02*
X148844000Y-130506300D01*
D61*
X169697400Y-139589700D02*
X169579100Y-139471400D01*
D62*
X171932600Y-113737500D02*
X171907200Y-113762900D01*
X146186908Y-140725908D02*
X145211800Y-139750800D01*
X174394883Y-143890617D02*
X174498000Y-143787500D01*
D61*
X163791898Y-122542298D02*
X163791898Y-120257398D01*
D62*
X118110440Y-125234121D02*
X119401555Y-125234121D01*
D63*
X159233005Y-132639202D02*
X163042600Y-132639202D01*
D62*
X120051543Y-124584133D02*
X120562560Y-124584133D01*
X147692300Y-117068600D02*
X147692300Y-117923500D01*
D61*
X174394883Y-149608550D02*
X174394883Y-147470883D01*
X150393400Y-128117600D02*
X148615400Y-126339600D01*
D62*
X147792438Y-118023638D02*
X147726400Y-117957600D01*
X122238305Y-124207500D02*
X123393200Y-125362395D01*
D61*
X157449387Y-139643987D02*
X157886400Y-140081000D01*
D62*
X129540000Y-135128000D02*
X129540000Y-138684000D01*
D61*
X125419102Y-115118898D02*
X125476000Y-115062000D01*
X166700204Y-124447302D02*
X165696902Y-124447302D01*
D62*
X129540000Y-135128000D02*
X130623500Y-135128000D01*
X172882000Y-119796000D02*
X172480987Y-119394987D01*
X137005000Y-142369600D02*
X137109200Y-142265400D01*
X147692300Y-117923500D02*
X147726400Y-117957600D01*
X108864400Y-112807849D02*
X108864400Y-110871000D01*
X162941000Y-143205200D02*
X162941000Y-144814561D01*
D61*
X171449975Y-140969924D02*
X169722724Y-140969924D01*
D62*
X129473962Y-138617962D02*
X129540000Y-138684000D01*
X153594809Y-140619095D02*
X154569917Y-139643987D01*
X172480987Y-119394987D02*
X172480987Y-118830800D01*
D61*
X127762000Y-114970309D02*
X125567691Y-114970309D01*
X163703000Y-145640539D02*
X163734989Y-145608550D01*
D62*
X119401555Y-125234121D02*
X120051543Y-124584133D01*
D61*
X115443000Y-117602000D02*
X114935000Y-117602000D01*
X174371000Y-147447000D02*
X174371000Y-145632433D01*
D62*
X120562560Y-124584133D02*
X121135467Y-124584133D01*
X146558000Y-129260600D02*
X146558000Y-130506300D01*
X171332600Y-113334800D02*
X168122600Y-113334800D01*
D61*
X161518593Y-122542298D02*
X160883592Y-123177299D01*
D62*
X155545025Y-142494000D02*
X155545025Y-140619095D01*
X165865038Y-145034000D02*
X164309539Y-145034000D01*
D63*
X163042600Y-132639202D02*
X164490399Y-132639202D01*
D62*
X171932600Y-112734800D02*
X171932600Y-113737500D01*
X146583400Y-130531700D02*
X147777200Y-130531700D01*
X123367800Y-126796800D02*
X123367800Y-125500300D01*
D61*
X136779000Y-111633000D02*
X134863000Y-111633000D01*
D62*
X114935000Y-114897500D02*
X114337500Y-114897500D01*
D61*
X169697400Y-140944600D02*
X169697400Y-139589700D01*
D62*
X154245050Y-139319120D02*
X154569917Y-139643987D01*
D61*
X125567691Y-114970309D02*
X125476000Y-115062000D01*
X151389213Y-139643987D02*
X151384000Y-139649200D01*
D62*
X128236600Y-135128000D02*
X128117600Y-135009000D01*
D61*
X163703000Y-147701000D02*
X163703000Y-145640539D01*
D62*
X147777200Y-130531700D02*
X148818600Y-130531700D01*
X172304000Y-113106200D02*
X171932600Y-112734800D01*
D61*
X167284398Y-133291830D02*
X167284398Y-135356600D01*
D62*
X144236692Y-142600813D02*
X144236692Y-140725908D01*
X121135467Y-124584133D02*
X121512100Y-124207500D01*
X145211800Y-139750800D02*
X144886933Y-139425933D01*
D61*
X163791898Y-122542298D02*
X161518593Y-122542298D01*
D62*
X174394883Y-145608550D02*
X172839638Y-145608550D01*
X163576000Y-115265200D02*
X163576000Y-116890800D01*
X171932600Y-112734800D02*
X171332600Y-113334800D01*
X123393200Y-125362395D02*
X123393200Y-125474900D01*
D61*
X163703000Y-147701000D02*
X163703000Y-149576561D01*
D62*
X172911100Y-113762900D02*
X172923200Y-113750800D01*
X155545025Y-140619095D02*
X154569917Y-139643987D01*
D61*
X156015500Y-116120100D02*
X156032200Y-116103400D01*
D63*
%TO.N,/Battey_Charger_VDD*%
X168570204Y-120637294D02*
X166700204Y-120637294D01*
X159796403Y-126085600D02*
X158775403Y-127106600D01*
D62*
X157650403Y-127678897D02*
X158222700Y-127106600D01*
X157650403Y-133832273D02*
X157650403Y-127678897D01*
X162941000Y-136144000D02*
X159962130Y-136144000D01*
D63*
X173583600Y-122830200D02*
X169928799Y-122830200D01*
X158775403Y-127106600D02*
X158222700Y-127106600D01*
X160883600Y-126085600D02*
X159796403Y-126085600D01*
D62*
X172125228Y-121661489D02*
X169594399Y-121661489D01*
X159962130Y-136144000D02*
X157650403Y-133832273D01*
D61*
X160883592Y-124447302D02*
X160883592Y-126085592D01*
X164490399Y-126889702D02*
X164490399Y-126339604D01*
D62*
X169619799Y-123139200D02*
X169594399Y-123164600D01*
D63*
X169928799Y-122830200D02*
X169594399Y-123164600D01*
X169594399Y-123164600D02*
X169594399Y-121661489D01*
D62*
X172480987Y-121305730D02*
X172125228Y-121661489D01*
D63*
X164744403Y-126085600D02*
X160883600Y-126085600D01*
X158222700Y-127106600D02*
X155498800Y-124382700D01*
X169594399Y-126085600D02*
X164744403Y-126085600D01*
X169594399Y-121661489D02*
X168570204Y-120637294D01*
X169594399Y-126085600D02*
X169594399Y-123164600D01*
D61*
X160883592Y-126085592D02*
X160883600Y-126085600D01*
X164490399Y-126339604D02*
X164744403Y-126085600D01*
D62*
X172480987Y-120730724D02*
X172480987Y-121305730D01*
D61*
%TO.N,Net-(U4-VSENSE)*%
X164490399Y-129175702D02*
X164490399Y-128084702D01*
D62*
X164769800Y-139700000D02*
X166014400Y-138455400D01*
X162915600Y-139700000D02*
X164769800Y-139700000D01*
D61*
X165233293Y-129175702D02*
X166014395Y-129956804D01*
D62*
X166014400Y-129956799D02*
X166014395Y-129956804D01*
X166014400Y-128473200D02*
X166014400Y-129956799D01*
D61*
X164490399Y-129175702D02*
X165233293Y-129175702D01*
D62*
%TO.N,+9V*%
X168554400Y-137236200D02*
X168529000Y-137210800D01*
X168529000Y-135382000D02*
X168554400Y-135356600D01*
X170689684Y-146384006D02*
X167440188Y-146384006D01*
X168444100Y-139471400D02*
X168444100Y-138311700D01*
X168444100Y-138311700D02*
X168554400Y-138201400D01*
X166664885Y-145034000D02*
X166664885Y-143342115D01*
X142494000Y-129794000D02*
X139446000Y-132842000D01*
X168554400Y-138201400D02*
X168554400Y-137236200D01*
D61*
X133290000Y-146250000D02*
X133290000Y-139115800D01*
D62*
X142138400Y-131216400D02*
X139522200Y-133832600D01*
X167868600Y-138201400D02*
X167690800Y-138379200D01*
X167440188Y-146384006D02*
X166664885Y-145608703D01*
X142494000Y-128778000D02*
X142494000Y-129794000D01*
X139522200Y-133832600D02*
X139522200Y-139090400D01*
X140462000Y-126746000D02*
X142494000Y-128778000D01*
X171464987Y-145608703D02*
X170689684Y-146384006D01*
X168529000Y-137210800D02*
X168529000Y-135382000D01*
X166664885Y-145608703D02*
X166664885Y-145034000D01*
X168554400Y-138201400D02*
X167868600Y-138201400D01*
X137160000Y-130048000D02*
X140462000Y-126746000D01*
X133858000Y-130048000D02*
X137160000Y-130048000D01*
X171449975Y-145018988D02*
X171464987Y-145034000D01*
X166664885Y-143342115D02*
X168554400Y-141452600D01*
X168554400Y-141452600D02*
X168554400Y-139581700D01*
X171449975Y-141969924D02*
X171449975Y-145018988D01*
X168554400Y-139581700D02*
X168444100Y-139471400D01*
X139446000Y-132842000D02*
X139446000Y-133756400D01*
X139446000Y-133756400D02*
X139522200Y-133832600D01*
X171464987Y-145034000D02*
X171464987Y-145608703D01*
D61*
%TO.N,/Battery_Out*%
X109976500Y-113980000D02*
X109976500Y-113030000D01*
D63*
X116967000Y-120650000D02*
X125857000Y-120650000D01*
D62*
X148909700Y-132297000D02*
X148844000Y-132231300D01*
X111586500Y-124159000D02*
X110086500Y-124109000D01*
X143281400Y-132320200D02*
X145299600Y-132320200D01*
D61*
X110159000Y-114162500D02*
X109976500Y-113980000D01*
D63*
X134874000Y-121920000D02*
X137998200Y-125044200D01*
X105286500Y-124109000D02*
X105086500Y-123909000D01*
D62*
X145397600Y-135483600D02*
X145397600Y-132418200D01*
D63*
X110086500Y-124109000D02*
X110086500Y-118237000D01*
D62*
X145299600Y-132320200D02*
X145397600Y-132418200D01*
D61*
X160883592Y-120637294D02*
X158102306Y-120637294D01*
D62*
X148844000Y-132231300D02*
X145584500Y-132231300D01*
D61*
X104343200Y-116169000D02*
X109941000Y-116169000D01*
X110159000Y-115951000D02*
X110159000Y-114162500D01*
D63*
X134874000Y-120650000D02*
X134874000Y-121920000D01*
D62*
X154895038Y-136793974D02*
X154895038Y-135464038D01*
D63*
X125857000Y-120650000D02*
X134874000Y-120650000D01*
D62*
X154711400Y-132308600D02*
X154699300Y-132320700D01*
X154699300Y-132320700D02*
X151294500Y-132320700D01*
D63*
X143611600Y-120827800D02*
X143789400Y-120650000D01*
X110666500Y-118817000D02*
X115134000Y-118817000D01*
D61*
X103428800Y-115254600D02*
X103428800Y-118262400D01*
X160883592Y-120637294D02*
X160883592Y-119076308D01*
D62*
X154895038Y-135464038D02*
X154711400Y-135280400D01*
D63*
X143611600Y-122885200D02*
X143611600Y-120827800D01*
D62*
X143281400Y-131191000D02*
X143281400Y-132320200D01*
D63*
X146050000Y-115824000D02*
X146050000Y-120650000D01*
D61*
X109941000Y-116169000D02*
X110159000Y-115951000D01*
D63*
X143433800Y-104749600D02*
X141122400Y-104749600D01*
D61*
X143281400Y-123215400D02*
X143611600Y-122885200D01*
D62*
X145536921Y-135622921D02*
X145397600Y-135483600D01*
D61*
X143281400Y-131191000D02*
X143281400Y-123215400D01*
D63*
X110086500Y-124109000D02*
X105286500Y-124109000D01*
D62*
X145536921Y-136900787D02*
X145536921Y-135622921D01*
D63*
X115134000Y-118817000D02*
X116967000Y-120650000D01*
D61*
X158102306Y-120637294D02*
X158089600Y-120650000D01*
D63*
X141097000Y-104775000D02*
X132181600Y-104775000D01*
X143789400Y-120650000D02*
X146050000Y-120650000D01*
X146050000Y-120650000D02*
X154863800Y-120650000D01*
X137998200Y-125044200D02*
X141452600Y-125044200D01*
X141452600Y-125044200D02*
X143611600Y-122885200D01*
X110086500Y-118237000D02*
X110086500Y-116023500D01*
D61*
X103428800Y-115254600D02*
X104343200Y-116169000D01*
D63*
X154863800Y-120650000D02*
X158089600Y-120650000D01*
X131876800Y-104470200D02*
X131876800Y-102260400D01*
X110086500Y-118237000D02*
X110666500Y-118817000D01*
X110086500Y-116023500D02*
X110159000Y-115951000D01*
D62*
X112511500Y-121109000D02*
X112711500Y-120909000D01*
X151270800Y-132297000D02*
X148909700Y-132297000D01*
X145584500Y-132231300D02*
X145397600Y-132418200D01*
X151294500Y-132320700D02*
X151270800Y-132297000D01*
X112511500Y-122909000D02*
X111586500Y-124159000D01*
D63*
X141122400Y-104749600D02*
X141097000Y-104775000D01*
X132181600Y-104775000D02*
X131876800Y-104470200D01*
D62*
X154711400Y-132308600D02*
X154711400Y-135280400D01*
X112511500Y-122909000D02*
X112511500Y-121109000D01*
D61*
X160883592Y-119076308D02*
X160884700Y-119075200D01*
D62*
%TO.N,Net-(C7-Pad1)*%
X156365100Y-122657700D02*
X157001200Y-122021600D01*
X155498800Y-122657700D02*
X154356900Y-122657700D01*
X156138700Y-122657700D02*
X157001200Y-123520200D01*
X154356900Y-122657700D02*
X153720800Y-122021600D01*
X155498800Y-122657700D02*
X156365100Y-122657700D01*
X159918400Y-115290600D02*
X159943800Y-115265200D01*
X155498800Y-122657700D02*
X156138700Y-122657700D01*
X159918400Y-117602000D02*
X159918400Y-115290600D01*
D61*
%TO.N,Net-(U4-BOOT)*%
X171755899Y-129227702D02*
X170553505Y-129227702D01*
X170553505Y-129227702D02*
X169824403Y-129956804D01*
D63*
%TO.N,/PH_Pin*%
X169824403Y-135356600D02*
X171848399Y-135356600D01*
X171848399Y-135356600D02*
X172618399Y-136126600D01*
X173480899Y-127432901D02*
X173583600Y-127330200D01*
X172618399Y-136126600D02*
X174453399Y-134291600D01*
X173480899Y-129227702D02*
X173480899Y-127432901D01*
X174453399Y-130200202D02*
X173480899Y-129227702D01*
X174453399Y-134291600D02*
X174453399Y-130200202D01*
D62*
%TO.N,Net-(U6-NC)*%
X171831000Y-118830800D02*
X171831000Y-117320100D01*
X171831000Y-117320100D02*
X171907200Y-117243900D01*
X171579500Y-116916200D02*
X168122600Y-116916200D01*
X171907200Y-117243900D02*
X171579500Y-116916200D01*
%TO.N,Net-(U6-NO)*%
X173130974Y-115153574D02*
X172923200Y-114945800D01*
X175336200Y-116636800D02*
X173130974Y-116636800D01*
X173130974Y-118830800D02*
X173130974Y-116636800D01*
X173130974Y-116636800D02*
X173130974Y-115153574D01*
D61*
%TO.N,Net-(D1-A)*%
X103428800Y-110754600D02*
X103428800Y-108676698D01*
X102997000Y-104902000D02*
X102997000Y-108244898D01*
X107701500Y-112080000D02*
X104754200Y-112080000D01*
X102997000Y-108244898D02*
X103083102Y-108331000D01*
X103428800Y-108676698D02*
X103083102Y-108331000D01*
X104754200Y-112080000D02*
X103428800Y-110754600D01*
D62*
%TO.N,/Fast_Charge_CTRL*%
X144627600Y-147612400D02*
X144627600Y-145719800D01*
X145731400Y-144616000D02*
X147467905Y-144616000D01*
X150198130Y-134825936D02*
X150198130Y-133044700D01*
X149402800Y-135621266D02*
X150198130Y-134825936D01*
X148818600Y-128930400D02*
X150206698Y-130318498D01*
X173130974Y-120730724D02*
X174578724Y-120730724D01*
X150206698Y-130318498D02*
X150206698Y-131572500D01*
X144627600Y-145719800D02*
X145731400Y-144616000D01*
X143450000Y-148790000D02*
X144627600Y-147612400D01*
X174578724Y-120730724D02*
X174777400Y-120929400D01*
X147467905Y-144616000D02*
X149402800Y-142681105D01*
X149402800Y-142681105D02*
X149402800Y-135621266D01*
%TO.N,/I2C1_SCL*%
X118110440Y-123933892D02*
X118110440Y-123149060D01*
X127838200Y-123113800D02*
X127838200Y-125694494D01*
X127838200Y-125694494D02*
X126676294Y-126856400D01*
X118110440Y-123149060D02*
X118117500Y-123142000D01*
X126676294Y-126856400D02*
X126632300Y-126856400D01*
%TO.N,/I2C1_SDA*%
X117234443Y-124584133D02*
X116720500Y-124070190D01*
X116720500Y-124070190D02*
X116720500Y-123142000D01*
X126619000Y-122402600D02*
X126619000Y-125843700D01*
X118110440Y-124584133D02*
X117234443Y-124584133D01*
X126619000Y-125843700D02*
X126632300Y-125857000D01*
%TO.N,Net-(JP1-B)*%
X114336500Y-130159000D02*
X114086500Y-130409000D01*
X121632108Y-125896608D02*
X121938000Y-126202500D01*
X114336500Y-128159000D02*
X114336500Y-126209000D01*
X120562560Y-125884108D02*
X121748608Y-125884108D01*
X114336500Y-128159000D02*
X114336500Y-130159000D01*
X114355500Y-126190000D02*
X114336500Y-126209000D01*
X116339500Y-126190000D02*
X114355500Y-126190000D01*
%TO.N,Net-(JP2-A)*%
X114336500Y-124909000D02*
X114336500Y-122909000D01*
X121623879Y-125246621D02*
X121938000Y-124932500D01*
X116339500Y-124920000D02*
X114347500Y-124920000D01*
X114347500Y-124920000D02*
X114336500Y-124909000D01*
X114336500Y-122909000D02*
X114336500Y-121234000D01*
X120562560Y-125234121D02*
X121740379Y-125234121D01*
X114336500Y-121234000D02*
X114011500Y-120909000D01*
%TO.N,Net-(R2-Pad2)*%
X113665000Y-110386500D02*
X113688500Y-110363000D01*
X113665000Y-111863500D02*
X113665000Y-110386500D01*
%TO.N,Net-(R10-Pad1)*%
X171907200Y-116048900D02*
X171907200Y-114957900D01*
D61*
%TO.N,Net-(R12-Pad2)*%
X164490399Y-131368800D02*
X164490399Y-130315300D01*
D62*
%TO.N,Net-(U5-PROG)*%
X168160699Y-123177299D02*
X168173400Y-123190000D01*
X171724324Y-120837400D02*
X171831000Y-120730724D01*
X170870374Y-120837400D02*
X171724324Y-120837400D01*
X166700204Y-123177299D02*
X168160699Y-123177299D01*
D61*
%TO.N,/EXT_LOAD1_OUT*%
X126796800Y-137668000D02*
X125171200Y-139293600D01*
D62*
X126669800Y-140792200D02*
X125171200Y-139293600D01*
X126669800Y-142138400D02*
X126669800Y-140792200D01*
X131978400Y-147478400D02*
X131978400Y-142138400D01*
D61*
X128117600Y-137668000D02*
X126796800Y-137668000D01*
X128117600Y-137668000D02*
X128117600Y-136144000D01*
X125201676Y-139324076D02*
X125171200Y-139293600D01*
D62*
X133290000Y-148790000D02*
X131978400Y-147478400D01*
D61*
%TO.N,/EXT_LOAD2_OUT*%
X150977600Y-117073676D02*
X150977600Y-111536400D01*
D62*
X147193000Y-147587000D02*
X145990000Y-148790000D01*
X150368000Y-127000000D02*
X150368000Y-122529600D01*
X151206200Y-127838200D02*
X150368000Y-127000000D01*
X151197633Y-133044700D02*
X151206200Y-133053267D01*
X149809200Y-117068600D02*
X150972524Y-117068600D01*
X150368000Y-122529600D02*
X150164800Y-122326400D01*
X149910800Y-142875000D02*
X147193000Y-145592800D01*
X151206200Y-131572000D02*
X151206200Y-127838200D01*
X150972524Y-117068600D02*
X150977600Y-117073676D01*
D61*
X150977600Y-111536400D02*
X150982600Y-111531400D01*
D62*
X149910800Y-136472804D02*
X149910800Y-142875000D01*
X147193000Y-145592800D02*
X147193000Y-147587000D01*
X151206200Y-135177404D02*
X149910800Y-136472804D01*
X149809200Y-117068600D02*
X148827300Y-117068600D01*
X151206200Y-133053267D02*
X151206200Y-135177404D01*
D61*
%TO.N,Net-(C20-Pad2)*%
X156057600Y-111531400D02*
X156057600Y-104495600D01*
X156057600Y-104495600D02*
X156133800Y-104419400D01*
D62*
%TO.N,Net-(U9-VSET)*%
X172099962Y-141969924D02*
X172116038Y-141986000D01*
X174474500Y-141986000D02*
X174498000Y-141962500D01*
X172116038Y-141986000D02*
X174474500Y-141986000D01*
D61*
%TO.N,Net-(C30-Pad2)*%
X120096200Y-132181600D02*
X120070800Y-132156200D01*
X120096200Y-139293600D02*
X120096200Y-132181600D01*
D62*
%TO.N,/BOUT2 (U1)*%
X156248400Y-151231600D02*
X144703800Y-151231600D01*
X145872200Y-143840200D02*
X145536921Y-143504921D01*
X158690000Y-148790000D02*
X156248400Y-151231600D01*
X145536921Y-143504921D02*
X145536921Y-142600813D01*
%TO.N,/BOUT1 (U1)*%
X147167600Y-143891000D02*
X146836895Y-143560295D01*
X159865000Y-149938800D02*
X157784800Y-152019000D01*
X157784800Y-152019000D02*
X147269200Y-152019000D01*
X159865000Y-147425000D02*
X159865000Y-149938800D01*
X146836895Y-143560295D02*
X146836895Y-142600813D01*
X158690000Y-146250000D02*
X159865000Y-147425000D01*
%TO.N,/BOUT1 (U2)*%
X156195012Y-143356524D02*
X156501796Y-143663308D01*
X156195012Y-142494000D02*
X156195012Y-143356524D01*
%TO.N,/BIN1 (U1)*%
X159010600Y-141344400D02*
X157911800Y-142443200D01*
X157911800Y-142443200D02*
X157911800Y-144488200D01*
X149428200Y-134959470D02*
X147486883Y-136900787D01*
X149428200Y-134200300D02*
X149428200Y-134959470D01*
X157911800Y-144488200D02*
X156150000Y-146250000D01*
%TO.N,/BOUT2 (U2)*%
X154895038Y-143364893D02*
X155184749Y-143654604D01*
X154895038Y-142494000D02*
X154895038Y-143364893D01*
%TO.N,/BIN2 (U1)*%
X146836895Y-136368665D02*
X146836895Y-136900787D01*
X147828000Y-135377560D02*
X146836895Y-136368665D01*
X147828000Y-134924800D02*
X147828000Y-135377560D01*
%TO.N,/CTRL_EXT_LOAD2*%
X150393400Y-143076804D02*
X151249102Y-143932506D01*
X152222200Y-122123200D02*
X152222200Y-131546600D01*
X152247600Y-134772400D02*
X150393400Y-136626600D01*
X155219400Y-118973600D02*
X153577550Y-118973600D01*
X149707600Y-147427600D02*
X151070000Y-148790000D01*
X150393400Y-136626600D02*
X150393400Y-143076804D01*
X151249102Y-143932506D02*
X151249102Y-144102098D01*
X151249102Y-144102098D02*
X149707600Y-145643600D01*
X152196800Y-133070600D02*
X152247600Y-133121400D01*
X149707600Y-145643600D02*
X149707600Y-147427600D01*
X152247600Y-133121400D02*
X152247600Y-134772400D01*
%TO.N,/BIN1 (U2)*%
X157820626Y-136793974D02*
X157835600Y-136779000D01*
X156845000Y-136793974D02*
X157820626Y-136793974D01*
%TO.N,/BIN2 (U2)*%
X156195012Y-136261852D02*
X156795464Y-135661400D01*
X156795464Y-135661400D02*
X157810200Y-135661400D01*
X156195012Y-136793974D02*
X156195012Y-136261852D01*
%TO.N,/AIN1 (U2)*%
X121920000Y-144780000D02*
X128524000Y-144780000D01*
X152294834Y-136793974D02*
X151928808Y-137160000D01*
X148680000Y-125614600D02*
X148315095Y-125614600D01*
X131064000Y-142748000D02*
X131064000Y-145936000D01*
X145542000Y-128387695D02*
X145542000Y-131318000D01*
X151928808Y-137160000D02*
X151384000Y-137160000D01*
X148844000Y-121920000D02*
X148844000Y-125450600D01*
X148844000Y-125450600D02*
X148680000Y-125614600D01*
X136779000Y-115062000D02*
X133604000Y-115062000D01*
X128524000Y-144780000D02*
X128524000Y-142748000D01*
X148315095Y-125614600D02*
X145542000Y-128387695D01*
X137058400Y-114782600D02*
X136779000Y-115062000D01*
X131064000Y-145936000D02*
X130750000Y-146250000D01*
%TO.N,/CTRL_EXT_LOAD1*%
X128210000Y-148790000D02*
X129385000Y-147615000D01*
X129385000Y-142556550D02*
X130717550Y-141224000D01*
X130717550Y-141224000D02*
X130717550Y-139567924D01*
X129385000Y-147615000D02*
X129385000Y-142556550D01*
%TO.N,/AIN2 (U2)*%
X137093933Y-115781470D02*
X136543403Y-116332000D01*
X144571600Y-121610000D02*
X147518000Y-121610000D01*
X119126000Y-144018000D02*
X119126000Y-147320000D01*
X152944822Y-137631178D02*
X152400000Y-138176000D01*
X123698000Y-150622000D02*
X124206000Y-151130000D01*
X124206000Y-144018000D02*
X119126000Y-144018000D01*
X119126000Y-150622000D02*
X123698000Y-150622000D01*
X147518000Y-121610000D02*
X147828000Y-121920000D01*
X152400000Y-138176000D02*
X151384000Y-138176000D01*
X152944822Y-136793974D02*
X152944822Y-137631178D01*
X119126000Y-147320000D02*
X119126000Y-150622000D01*
X133858000Y-116332000D02*
X133604000Y-116078000D01*
X144526000Y-131572000D02*
X144571600Y-131526400D01*
X136543403Y-116332000D02*
X133858000Y-116332000D01*
X144571600Y-131526400D02*
X144571600Y-121610000D01*
%TO.N,/AOUT1 (U2)*%
X125670000Y-150693604D02*
X126494596Y-151518200D01*
X125670000Y-148790000D02*
X125670000Y-150693604D01*
X143378204Y-149965000D02*
X151556701Y-149965000D01*
X152222200Y-143764000D02*
X152944822Y-143041378D01*
X126494596Y-151518200D02*
X141825004Y-151518200D01*
X152944822Y-143041378D02*
X152944822Y-142494000D01*
X151556701Y-149965000D02*
X152222200Y-149299501D01*
X152222200Y-149299501D02*
X152222200Y-143764000D01*
X141825004Y-151518200D02*
X143378204Y-149965000D01*
%TO.N,/AIN1 (U1)*%
X142936717Y-136900787D02*
X139521047Y-140316457D01*
X139521047Y-140316457D02*
X139521047Y-140841847D01*
%TO.N,/AOUT2 (U2)*%
X154245050Y-143740210D02*
X154245050Y-142494000D01*
X154794920Y-144290080D02*
X154245050Y-143740210D01*
X142011400Y-151968200D02*
X143564600Y-150415000D01*
X153836701Y-150415000D02*
X154794920Y-149456781D01*
X126308200Y-151968200D02*
X142011400Y-151968200D01*
X123130000Y-148790000D02*
X126308200Y-151968200D01*
X154794920Y-149456781D02*
X154794920Y-144290080D01*
X143564600Y-150415000D02*
X153836701Y-150415000D01*
%TO.N,/AIN2 (U1)*%
X143586705Y-136900787D02*
X143586705Y-137800787D01*
X139573000Y-141814492D02*
X139573000Y-143535400D01*
X143586705Y-137800787D02*
X139573000Y-141814492D01*
%TO.N,/AOUT2 (U1)*%
X144886933Y-142600813D02*
X144886933Y-143132682D01*
X144206187Y-143575813D02*
X142085000Y-145697000D01*
X142085000Y-150194403D02*
X141485703Y-150793700D01*
X142085000Y-145697000D02*
X142085000Y-150194403D01*
X144886933Y-143132682D02*
X144443802Y-143575813D01*
X144443802Y-143575813D02*
X144206187Y-143575813D01*
%TO.N,/AOUT1 (U1)*%
X142034718Y-145052800D02*
X140163800Y-145052800D01*
X139573000Y-150717500D02*
X139649200Y-150793700D01*
X143586705Y-142600813D02*
X143586705Y-143500813D01*
X143586705Y-143500813D02*
X142034718Y-145052800D01*
X139573000Y-145643600D02*
X139573000Y-150717500D01*
X140163800Y-145052800D02*
X139573000Y-145643600D01*
%TO.N,/CC1*%
X169170771Y-141969924D02*
X170799987Y-141969924D01*
X167815000Y-143325695D02*
X169170771Y-141969924D01*
X167815000Y-145034000D02*
X167815000Y-143325695D01*
%TO.N,/DN1*%
X169314872Y-145034000D02*
X169314872Y-144178869D01*
X169314872Y-144178869D02*
X169269997Y-144133994D01*
X168783000Y-144133994D02*
X168360003Y-144133994D01*
X169269997Y-144133994D02*
X168783000Y-144133994D01*
X168314872Y-144179125D02*
X168314872Y-145034000D01*
X168360003Y-144133994D02*
X168314872Y-144179125D01*
%TO.N,/DP1*%
X168859875Y-145934006D02*
X168815000Y-145889131D01*
X168815000Y-145889131D02*
X168815000Y-145034000D01*
X169815000Y-145034000D02*
X169815000Y-145888875D01*
X169815000Y-145888875D02*
X169769869Y-145934006D01*
X169769869Y-145934006D02*
X168859875Y-145934006D01*
%TO.N,/CC2*%
X170815000Y-139954911D02*
X170799987Y-139969924D01*
X170815000Y-143853525D02*
X170725475Y-143764000D01*
X170815000Y-139065000D02*
X170815000Y-139954911D01*
X170815000Y-145034000D02*
X170815000Y-143853525D01*
%TO.N,Net-(U8-VINT)*%
X144236692Y-136900787D02*
X144236692Y-135451408D01*
X144236692Y-135451408D02*
X144246600Y-135441500D01*
%TO.N,Net-(U8-VCP)*%
X146186908Y-135829292D02*
X146532600Y-135483600D01*
X146186908Y-136900787D02*
X146186908Y-135829292D01*
%TO.N,Net-(U10-VINT)*%
X153594809Y-136793974D02*
X153594809Y-135239309D01*
X153594809Y-135239309D02*
X153593800Y-135238300D01*
%TO.N,Net-(U10-VCP)*%
X155545025Y-135581775D02*
X155846400Y-135280400D01*
X155545025Y-136793974D02*
X155545025Y-135581775D01*
D63*
%TO.N,/Battery_In_Before_Switch*%
X113290600Y-141540600D02*
X110000000Y-138250000D01*
X113290600Y-146177000D02*
X113290600Y-141540600D01*
D62*
%TO.N,/Battery_In_After_Switch*%
X112511500Y-128159000D02*
X111561500Y-127209000D01*
D63*
X110000000Y-133549975D02*
X110000000Y-127295500D01*
D62*
X112511500Y-130134000D02*
X112786500Y-130409000D01*
D63*
X110000000Y-127295500D02*
X110086500Y-127209000D01*
X105286500Y-127209000D02*
X105086500Y-127409000D01*
X110086500Y-127209000D02*
X105286500Y-127209000D01*
D62*
X111561500Y-127209000D02*
X110086500Y-127209000D01*
X112511500Y-128159000D02*
X112511500Y-130134000D01*
%TO.N,unconnected-(U9-D+-Pad4)*%
X172115886Y-139954000D02*
X172099962Y-139969924D01*
%TD*%
M02*
