%TF.GenerationSoftware,KiCad,Pcbnew,7.0.1-0*%
%TF.CreationDate,2025-03-27T13:04:47+02:00*%
%TF.ProjectId,EEE3088F_MM_Power_Project,45454533-3038-4384-965f-4d4d5f506f77,rev?*%
%TF.SameCoordinates,Original*%
%TF.FileFunction,Copper,L2,Bot*%
%TF.FilePolarity,Positive*%
%FSLAX46Y46*%
G04 Gerber Fmt 4.6, Leading zero omitted, Abs format (unit mm)*
G04 Created by KiCad (PCBNEW 7.0.1-0) date 2025-03-27 13:04:47*
%MOMM*%
%LPD*%
G01*
G04 APERTURE LIST*
G04 Aperture macros list*
%AMRoundRect*
0 Rectangle with rounded corners*
0 $1 Rounding radius*
0 $2 $3 $4 $5 $6 $7 $8 $9 X,Y pos of 4 corners*
0 Add a 4 corners polygon primitive as box body*
4,1,4,$2,$3,$4,$5,$6,$7,$8,$9,$2,$3,0*
0 Add four circle primitives for the rounded corners*
1,1,$1+$1,$2,$3*
1,1,$1+$1,$4,$5*
1,1,$1+$1,$6,$7*
1,1,$1+$1,$8,$9*
0 Add four rect primitives between the rounded corners*
20,1,$1+$1,$2,$3,$4,$5,0*
20,1,$1+$1,$4,$5,$6,$7,0*
20,1,$1+$1,$6,$7,$8,$9,0*
20,1,$1+$1,$8,$9,$2,$3,0*%
G04 Aperture macros list end*
%TA.AperFunction,ComponentPad*%
%ADD10RoundRect,0.250000X-0.625000X0.350000X-0.625000X-0.350000X0.625000X-0.350000X0.625000X0.350000X0*%
%TD*%
%TA.AperFunction,ComponentPad*%
%ADD11O,1.750000X1.200000*%
%TD*%
%TA.AperFunction,ComponentPad*%
%ADD12R,2.500000X2.100000*%
%TD*%
%TA.AperFunction,ComponentPad*%
%ADD13C,2.500000*%
%TD*%
%TA.AperFunction,ComponentPad*%
%ADD14R,1.700000X1.700000*%
%TD*%
%TA.AperFunction,ComponentPad*%
%ADD15O,1.700000X1.700000*%
%TD*%
%TA.AperFunction,ViaPad*%
%ADD16C,0.800000*%
%TD*%
%TA.AperFunction,Conductor*%
%ADD17C,0.760000*%
%TD*%
%TA.AperFunction,Conductor*%
%ADD18C,0.250000*%
%TD*%
G04 APERTURE END LIST*
D10*
%TO.P,J1,1,Pin_1*%
%TO.N,/Battery_In_Before_Switch*%
X111250000Y-148250000D03*
D11*
%TO.P,J1,2,Pin_2*%
%TO.N,GND*%
X111250000Y-150250000D03*
%TD*%
D12*
%TO.P,U11,1,1*%
%TO.N,/Battery_In_After_Switch*%
X110000000Y-133549975D03*
D13*
%TO.P,U11,2,2*%
%TO.N,/Battery_In_Before_Switch*%
X110000000Y-138250000D03*
%TO.P,U11,3,3*%
%TO.N,GND*%
X110000000Y-142950025D03*
%TD*%
D14*
%TO.P,J2,1,Pin_1*%
%TO.N,/BOUT2 (U1)*%
X158690000Y-148790000D03*
D15*
%TO.P,J2,2,Pin_2*%
%TO.N,/BOUT1 (U1)*%
X158690000Y-146250000D03*
%TO.P,J2,3,Pin_3*%
%TO.N,/BOUT1 (U2)*%
X156150000Y-148790000D03*
%TO.P,J2,4,Pin_4*%
%TO.N,/BIN1 (U1)*%
X156150000Y-146250000D03*
%TO.P,J2,5,Pin_5*%
%TO.N,/BOUT2 (U2)*%
X153610000Y-148790000D03*
%TO.P,J2,6,Pin_6*%
%TO.N,/BIN2 (U1)*%
X153610000Y-146250000D03*
%TO.P,J2,7,Pin_7*%
%TO.N,/CTRL_EXT_LOAD2*%
X151070000Y-148790000D03*
%TO.P,J2,8,Pin_8*%
%TO.N,/BIN1 (U2)*%
X151070000Y-146250000D03*
%TO.P,J2,9,Pin_9*%
%TO.N,unconnected-(J2-Pin_9-Pad9)*%
X148530000Y-148790000D03*
%TO.P,J2,10,Pin_10*%
%TO.N,/BIN2 (U2)*%
X148530000Y-146250000D03*
%TO.P,J2,11,Pin_11*%
%TO.N,/EXT_LOAD2_OUT*%
X145990000Y-148790000D03*
%TO.P,J2,12,Pin_12*%
%TO.N,unconnected-(J2-Pin_12-Pad12)*%
X145990000Y-146250000D03*
%TO.P,J2,13,Pin_13*%
%TO.N,/Fast_Charge_CTRL*%
X143450000Y-148790000D03*
%TO.P,J2,14,Pin_14*%
%TO.N,/Battery_Out*%
X143450000Y-146250000D03*
%TO.P,J2,15,Pin_15*%
%TO.N,unconnected-(J2-Pin_15-Pad15)*%
X140910000Y-148790000D03*
%TO.P,J2,16,Pin_16*%
%TO.N,/I2C1_SCL*%
X140910000Y-146250000D03*
%TO.P,J2,17,Pin_17*%
%TO.N,/I2C1_SDA*%
X138370000Y-148790000D03*
%TO.P,J2,18,Pin_18*%
%TO.N,+3V3*%
X138370000Y-146250000D03*
%TO.P,J2,19,Pin_19*%
%TO.N,GND*%
X135830000Y-148790000D03*
%TO.P,J2,20,Pin_20*%
%TO.N,+5V*%
X135830000Y-146250000D03*
%TO.P,J2,21,Pin_21*%
%TO.N,/EXT_LOAD1_OUT*%
X133290000Y-148790000D03*
%TO.P,J2,22,Pin_22*%
%TO.N,+9V*%
X133290000Y-146250000D03*
%TO.P,J2,23,Pin_23*%
%TO.N,GND*%
X130750000Y-148790000D03*
%TO.P,J2,24,Pin_24*%
%TO.N,/AIN1 (U2)*%
X130750000Y-146250000D03*
%TO.P,J2,25,Pin_25*%
%TO.N,/CTRL_EXT_LOAD1*%
X128210000Y-148790000D03*
%TO.P,J2,26,Pin_26*%
%TO.N,/AIN2 (U2)*%
X128210000Y-146250000D03*
%TO.P,J2,27,Pin_27*%
%TO.N,/AOUT1 (U2)*%
X125670000Y-148790000D03*
%TO.P,J2,28,Pin_28*%
%TO.N,/AIN1 (U1)*%
X125670000Y-146250000D03*
%TO.P,J2,29,Pin_29*%
%TO.N,/AOUT2 (U2)*%
X123130000Y-148790000D03*
%TO.P,J2,30,Pin_30*%
%TO.N,/AIN2 (U1)*%
X123130000Y-146250000D03*
%TO.P,J2,31,Pin_31*%
%TO.N,/AOUT2 (U1)*%
X120590000Y-148790000D03*
%TO.P,J2,32,Pin_32*%
%TO.N,/AOUT1 (U1)*%
X120590000Y-146250000D03*
%TD*%
D16*
%TO.N,+3V3*%
X118110000Y-127635000D03*
X138353800Y-122580400D03*
X127889000Y-119253000D03*
X138353800Y-117831000D03*
%TO.N,Net-(U1-FB)*%
X112395000Y-113792000D03*
X107721400Y-115189000D03*
%TO.N,+5V*%
X135839200Y-122656600D03*
X135839200Y-108331000D03*
%TO.N,GND*%
X125476000Y-115062000D03*
X157683200Y-139623800D03*
X144246600Y-133299200D03*
X162610800Y-117856000D03*
X148259800Y-139801600D03*
X171932600Y-112734800D03*
X153593800Y-133045200D03*
X174777400Y-119786400D03*
X115443000Y-117602000D03*
X123367800Y-126796800D03*
X136779000Y-111633000D03*
X163042600Y-133959600D03*
X163703000Y-147701000D03*
X169697400Y-140944600D03*
X137109200Y-142265400D03*
X164566600Y-133934200D03*
X174371000Y-147447000D03*
X108864400Y-110871000D03*
%TO.N,+9V*%
X139522200Y-139090400D03*
X160223200Y-138176000D03*
X142138400Y-131216400D03*
X133290000Y-139115800D03*
%TO.N,/Battery_Out*%
X143281400Y-131191000D03*
%TO.N,/Fast_Charge_CTRL*%
X150198130Y-133044700D03*
%TO.N,/I2C1_SCL*%
X118117500Y-123142000D03*
%TO.N,/I2C1_SDA*%
X116720500Y-123142000D03*
%TO.N,Net-(JP1-B)*%
X116339500Y-126190000D03*
X121938000Y-126202500D03*
%TO.N,Net-(JP2-A)*%
X116339500Y-124920000D03*
X121938000Y-124932500D03*
%TO.N,Net-(U5-PROG)*%
X168173400Y-123190000D03*
X170870374Y-120837400D03*
%TO.N,/EXT_LOAD2_OUT*%
X151197633Y-133044700D03*
%TO.N,/BOUT2 (U1)*%
X145872200Y-143840200D03*
X144703800Y-151231600D03*
%TO.N,/BOUT1 (U1)*%
X147269200Y-152019000D03*
X147167600Y-143891000D03*
%TO.N,/BOUT1 (U2)*%
X156501796Y-143663308D03*
%TO.N,/BIN1 (U1)*%
X149428200Y-134200300D03*
X157886400Y-142468600D03*
%TO.N,/BOUT2 (U2)*%
X155184749Y-143654604D03*
%TO.N,/BIN2 (U1)*%
X147828000Y-134924800D03*
%TO.N,/CTRL_EXT_LOAD2*%
X152196800Y-133070600D03*
%TO.N,/BIN1 (U2)*%
X157835600Y-136779000D03*
%TO.N,/BIN2 (U2)*%
X157810200Y-135661400D03*
%TO.N,/AIN1 (U1)*%
X139521047Y-140841847D03*
%TO.N,/AIN2 (U1)*%
X139573000Y-143535400D03*
%TO.N,/AOUT2 (U1)*%
X141485703Y-150793700D03*
%TO.N,/AOUT1 (U1)*%
X139649200Y-150793700D03*
%TO.N,/CC2*%
X170815000Y-139065000D03*
X170725475Y-143764000D03*
%TD*%
D17*
%TO.N,+3V3*%
X138353800Y-122580400D02*
X138353800Y-117831000D01*
D18*
X119584195Y-119253000D02*
X115614500Y-123222695D01*
X115614500Y-126536500D02*
X116713000Y-127635000D01*
X115614500Y-123222695D02*
X115614500Y-126536500D01*
X116713000Y-127635000D02*
X118110000Y-127635000D01*
X127889000Y-119253000D02*
X119584195Y-119253000D01*
%TO.N,Net-(U1-FB)*%
X109118400Y-113792000D02*
X107721400Y-115189000D01*
X112395000Y-113792000D02*
X109118400Y-113792000D01*
D17*
%TO.N,+5V*%
X135799000Y-108371200D02*
X135839200Y-108331000D01*
X135799000Y-122616400D02*
X135799000Y-108371200D01*
X135839200Y-122656600D02*
X135799000Y-122616400D01*
D18*
%TO.N,+9V*%
X142888800Y-130466000D02*
X142138400Y-131216400D01*
X160223200Y-135776303D02*
X154912897Y-130466000D01*
X133315400Y-139090400D02*
X133290000Y-139115800D01*
X139522200Y-139090400D02*
X133315400Y-139090400D01*
X154912897Y-130466000D02*
X142888800Y-130466000D01*
X160223200Y-138176000D02*
X160223200Y-135776303D01*
D17*
%TO.N,/Battery_Out*%
X143450000Y-146250000D02*
X143266600Y-146066600D01*
X143266600Y-131205800D02*
X143281400Y-131191000D01*
X143266600Y-146066600D02*
X143266600Y-131205800D01*
D18*
%TO.N,/I2C1_SCL*%
X118117500Y-123142000D02*
X132032000Y-123142000D01*
X140910000Y-132020000D02*
X140910000Y-146250000D01*
X132032000Y-123142000D02*
X140910000Y-132020000D01*
%TO.N,/I2C1_SDA*%
X117445500Y-122417000D02*
X132069000Y-122417000D01*
X116720500Y-123142000D02*
X117445500Y-122417000D01*
X139586000Y-147574000D02*
X138370000Y-148790000D01*
X141247701Y-147574000D02*
X139586000Y-147574000D01*
X132069000Y-122417000D02*
X142085000Y-132433000D01*
X142085000Y-132433000D02*
X142085000Y-146736701D01*
X142085000Y-146736701D02*
X141247701Y-147574000D01*
%TO.N,Net-(JP1-B)*%
X122054500Y-126190000D02*
X116339500Y-126190000D01*
%TO.N,Net-(JP2-A)*%
X122054500Y-124920000D02*
X116339500Y-124920000D01*
%TO.N,Net-(U5-PROG)*%
X168173400Y-123190000D02*
X168517774Y-123190000D01*
X168517774Y-123190000D02*
X170870374Y-120837400D01*
X168198800Y-123164600D02*
X168173400Y-123190000D01*
%TO.N,/BOUT2 (U1)*%
X144703800Y-145008600D02*
X145872200Y-143840200D01*
X144703800Y-151231600D02*
X144703800Y-145008600D01*
%TO.N,/BOUT1 (U1)*%
X147269200Y-143992600D02*
X147167600Y-143891000D01*
X147269200Y-152019000D02*
X147269200Y-143992600D01*
%TO.N,/BOUT1 (U2)*%
X157325000Y-147615000D02*
X156150000Y-148790000D01*
X156501796Y-143663308D02*
X157325000Y-144486512D01*
X157325000Y-144486512D02*
X157325000Y-147615000D01*
%TO.N,/BIN1 (U1)*%
X157886400Y-142468600D02*
X159010600Y-141344400D01*
X159010600Y-141344400D02*
X159010600Y-135200099D01*
X158010801Y-134200300D02*
X149428200Y-134200300D01*
X159010600Y-135200099D02*
X158010801Y-134200300D01*
%TO.N,/BOUT2 (U2)*%
X154975000Y-147425000D02*
X153610000Y-148790000D01*
X155184749Y-143654604D02*
X154975000Y-143864353D01*
X154975000Y-143864353D02*
X154975000Y-147425000D01*
%TO.N,/BIN2 (U1)*%
X153610000Y-146250000D02*
X153610000Y-142671695D01*
X158560600Y-137721095D02*
X158560600Y-135386495D01*
X153610000Y-142671695D02*
X158560600Y-137721095D01*
X158098905Y-134924800D02*
X147828000Y-134924800D01*
X158560600Y-135386495D02*
X158098905Y-134924800D01*
%TO.N,/BIN1 (U2)*%
X157835600Y-136779000D02*
X151070000Y-143544600D01*
X151070000Y-143544600D02*
X151070000Y-146250000D01*
%TO.N,/BIN2 (U2)*%
X157810200Y-135661400D02*
X148530000Y-144941600D01*
X148530000Y-144941600D02*
X148530000Y-146250000D01*
%TO.N,/AIN1 (U1)*%
X127659600Y-144260400D02*
X125670000Y-146250000D01*
X140298000Y-143835705D02*
X139873305Y-144260400D01*
X139521047Y-140841847D02*
X140298000Y-141618800D01*
X139873305Y-144260400D02*
X127659600Y-144260400D01*
X140298000Y-141618800D02*
X140298000Y-143835705D01*
%TO.N,/AIN2 (U1)*%
X139573000Y-143535400D02*
X125844600Y-143535400D01*
X125844600Y-143535400D02*
X123130000Y-146250000D01*
%TO.N,/AOUT2 (U1)*%
X139930203Y-152349200D02*
X124149200Y-152349200D01*
X124149200Y-152349200D02*
X120590000Y-148790000D01*
X141485703Y-150793700D02*
X139930203Y-152349200D01*
%TO.N,/AOUT1 (U1)*%
X121765000Y-147425000D02*
X120590000Y-146250000D01*
X124335596Y-151899200D02*
X121765000Y-149328604D01*
X121765000Y-149328604D02*
X121765000Y-147425000D01*
X138543700Y-151899200D02*
X124335596Y-151899200D01*
X139649200Y-150793700D02*
X138543700Y-151899200D01*
%TO.N,/CC2*%
X171484578Y-138395422D02*
X170815000Y-139065000D01*
X172567727Y-138395422D02*
X171484578Y-138395422D01*
X173482000Y-140759695D02*
X173826000Y-140415695D01*
X173482000Y-143764000D02*
X173482000Y-140759695D01*
X173826000Y-140415695D02*
X173826000Y-139653695D01*
X170725475Y-143764000D02*
X173482000Y-143764000D01*
X173826000Y-139653695D02*
X172567727Y-138395422D01*
%TD*%
%TA.AperFunction,Conductor*%
%TO.N,GND*%
G36*
X176849214Y-100473563D02*
G01*
X176894587Y-100518826D01*
X176911300Y-100580697D01*
X177037605Y-152491682D01*
X177037698Y-152529698D01*
X177021186Y-152591826D01*
X176975785Y-152637337D01*
X176913698Y-152654000D01*
X148157165Y-152654000D01*
X148095165Y-152637387D01*
X148049778Y-152592000D01*
X148033165Y-152530000D01*
X148049778Y-152468000D01*
X148096379Y-152387284D01*
X148096378Y-152387284D01*
X148154874Y-152207256D01*
X148174660Y-152019000D01*
X148154874Y-151830744D01*
X148110508Y-151694200D01*
X148096379Y-151650715D01*
X148001735Y-151486786D01*
X147983548Y-151466588D01*
X147926547Y-151403282D01*
X147902936Y-151364751D01*
X147894700Y-151320313D01*
X147894700Y-150178508D01*
X147909986Y-150118865D01*
X147952076Y-150073927D01*
X148010592Y-150054773D01*
X148055304Y-150063162D01*
X148055858Y-150061095D01*
X148066336Y-150063902D01*
X148066337Y-150063903D01*
X148274756Y-150119748D01*
X148294592Y-150125063D01*
X148529999Y-150145659D01*
X148529999Y-150145658D01*
X148530000Y-150145659D01*
X148765408Y-150125063D01*
X148993663Y-150063903D01*
X149207830Y-149964035D01*
X149401401Y-149828495D01*
X149568495Y-149661401D01*
X149698426Y-149475839D01*
X149742743Y-149436975D01*
X149800000Y-149422964D01*
X149857257Y-149436975D01*
X149901573Y-149475839D01*
X150031505Y-149661401D01*
X150198599Y-149828495D01*
X150392170Y-149964035D01*
X150606337Y-150063903D01*
X150818727Y-150120812D01*
X150834592Y-150125063D01*
X151069999Y-150145659D01*
X151069999Y-150145658D01*
X151070000Y-150145659D01*
X151305408Y-150125063D01*
X151533663Y-150063903D01*
X151747830Y-149964035D01*
X151941401Y-149828495D01*
X152108495Y-149661401D01*
X152238426Y-149475839D01*
X152282743Y-149436975D01*
X152340000Y-149422964D01*
X152397257Y-149436975D01*
X152441573Y-149475839D01*
X152571505Y-149661401D01*
X152738599Y-149828495D01*
X152932170Y-149964035D01*
X153146337Y-150063903D01*
X153358727Y-150120812D01*
X153374592Y-150125063D01*
X153609999Y-150145659D01*
X153609999Y-150145658D01*
X153610000Y-150145659D01*
X153845408Y-150125063D01*
X154073663Y-150063903D01*
X154287830Y-149964035D01*
X154481401Y-149828495D01*
X154648495Y-149661401D01*
X154778426Y-149475839D01*
X154822743Y-149436975D01*
X154880000Y-149422964D01*
X154937257Y-149436975D01*
X154981573Y-149475839D01*
X155111505Y-149661401D01*
X155278599Y-149828495D01*
X155472170Y-149964035D01*
X155686337Y-150063903D01*
X155898727Y-150120812D01*
X155914592Y-150125063D01*
X156149999Y-150145659D01*
X156149999Y-150145658D01*
X156150000Y-150145659D01*
X156385408Y-150125063D01*
X156613663Y-150063903D01*
X156827830Y-149964035D01*
X157021401Y-149828495D01*
X157143329Y-149706566D01*
X157196072Y-149675273D01*
X157257365Y-149673084D01*
X157312209Y-149700537D01*
X157347189Y-149750916D01*
X157357223Y-149777818D01*
X157396204Y-149882331D01*
X157482454Y-149997546D01*
X157597669Y-150083796D01*
X157732517Y-150134091D01*
X157792127Y-150140500D01*
X159587872Y-150140499D01*
X159647483Y-150134091D01*
X159782331Y-150083796D01*
X159897546Y-149997546D01*
X159983796Y-149882331D01*
X160034091Y-149747483D01*
X160040500Y-149687873D01*
X160040499Y-147892128D01*
X160034091Y-147832517D01*
X159983796Y-147697669D01*
X159897546Y-147582454D01*
X159782331Y-147496204D01*
X159720898Y-147473291D01*
X159650916Y-147447189D01*
X159600537Y-147412209D01*
X159573084Y-147357365D01*
X159575273Y-147296072D01*
X159606566Y-147243329D01*
X159728495Y-147121401D01*
X159864035Y-146927830D01*
X159963903Y-146713663D01*
X160025063Y-146485408D01*
X160045659Y-146250000D01*
X160033294Y-146108676D01*
X165594457Y-146108676D01*
X165614237Y-146258912D01*
X165672224Y-146398906D01*
X165764470Y-146519124D01*
X165884688Y-146611370D01*
X166024684Y-146669358D01*
X166120137Y-146681924D01*
X166137197Y-146684171D01*
X166137198Y-146684171D01*
X166212638Y-146684171D01*
X166212639Y-146684171D01*
X166227451Y-146682220D01*
X166325152Y-146669358D01*
X166465148Y-146611370D01*
X166585365Y-146519124D01*
X166677611Y-146398907D01*
X166735599Y-146258911D01*
X166755378Y-146108677D01*
X166755378Y-146108676D01*
X171374493Y-146108676D01*
X171394273Y-146258912D01*
X171452260Y-146398906D01*
X171544506Y-146519124D01*
X171664724Y-146611370D01*
X171804720Y-146669358D01*
X171900173Y-146681924D01*
X171917233Y-146684171D01*
X171917234Y-146684171D01*
X171992674Y-146684171D01*
X171992675Y-146684171D01*
X172007487Y-146682220D01*
X172105188Y-146669358D01*
X172245184Y-146611370D01*
X172365401Y-146519124D01*
X172457647Y-146398907D01*
X172515635Y-146258911D01*
X172535414Y-146108677D01*
X172515635Y-145958443D01*
X172457647Y-145818447D01*
X172433008Y-145786337D01*
X172365401Y-145698229D01*
X172245183Y-145605983D01*
X172105189Y-145547996D01*
X171992675Y-145533183D01*
X171992674Y-145533183D01*
X171917234Y-145533183D01*
X171917233Y-145533183D01*
X171804718Y-145547996D01*
X171664724Y-145605983D01*
X171544506Y-145698229D01*
X171452260Y-145818447D01*
X171394273Y-145958441D01*
X171374493Y-146108676D01*
X166755378Y-146108676D01*
X166735599Y-145958443D01*
X166677611Y-145818447D01*
X166652972Y-145786337D01*
X166585365Y-145698229D01*
X166465147Y-145605983D01*
X166325153Y-145547996D01*
X166212639Y-145533183D01*
X166212638Y-145533183D01*
X166137198Y-145533183D01*
X166137197Y-145533183D01*
X166024682Y-145547996D01*
X165884688Y-145605983D01*
X165764470Y-145698229D01*
X165672224Y-145818447D01*
X165614237Y-145958441D01*
X165594457Y-146108676D01*
X160033294Y-146108676D01*
X160025063Y-146014592D01*
X159963903Y-145786337D01*
X159864035Y-145572171D01*
X159728495Y-145378599D01*
X159561401Y-145211505D01*
X159367830Y-145075965D01*
X159153663Y-144976097D01*
X159083406Y-144957272D01*
X158925407Y-144914936D01*
X158690000Y-144894340D01*
X158454592Y-144914936D01*
X158226336Y-144976097D01*
X158126905Y-145022463D01*
X158066390Y-145033816D01*
X158007875Y-145014662D01*
X157965786Y-144969724D01*
X157950500Y-144910081D01*
X157950500Y-144569252D01*
X157952763Y-144548748D01*
X157952136Y-144528803D01*
X157950561Y-144478656D01*
X157950500Y-144474762D01*
X157950500Y-144447169D01*
X157950500Y-144447162D01*
X157949995Y-144443165D01*
X157949080Y-144431535D01*
X157947709Y-144387885D01*
X157942120Y-144368652D01*
X157938174Y-144349594D01*
X157935664Y-144329720D01*
X157930424Y-144316485D01*
X157919585Y-144289109D01*
X157915804Y-144278064D01*
X157903619Y-144236125D01*
X157903618Y-144236124D01*
X157903618Y-144236122D01*
X157893417Y-144218873D01*
X157884860Y-144201407D01*
X157877486Y-144182780D01*
X157851813Y-144147444D01*
X157845402Y-144137684D01*
X157836937Y-144123371D01*
X157823170Y-144100091D01*
X157809005Y-144085926D01*
X157796369Y-144071132D01*
X157784595Y-144054926D01*
X157780619Y-144051637D01*
X157750935Y-144027080D01*
X157742305Y-144019226D01*
X157487079Y-143764000D01*
X169820015Y-143764000D01*
X169824597Y-143807599D01*
X169839801Y-143952257D01*
X169898295Y-144132284D01*
X169992941Y-144296216D01*
X170119604Y-144436889D01*
X170272744Y-144548151D01*
X170445672Y-144625144D01*
X170630827Y-144664500D01*
X170630829Y-144664500D01*
X170820121Y-144664500D01*
X170820123Y-144664500D01*
X170944710Y-144638018D01*
X171005278Y-144625144D01*
X171178205Y-144548151D01*
X171331346Y-144436888D01*
X171337073Y-144430526D01*
X171378787Y-144400220D01*
X171429222Y-144389500D01*
X173411151Y-144389500D01*
X173434385Y-144391696D01*
X173442412Y-144393227D01*
X173497759Y-144389745D01*
X173505545Y-144389500D01*
X173521351Y-144389500D01*
X173525582Y-144388965D01*
X173537036Y-144387517D01*
X173544738Y-144386788D01*
X173600138Y-144383304D01*
X173607902Y-144380781D01*
X173630676Y-144375689D01*
X173638792Y-144374664D01*
X173690396Y-144354231D01*
X173697671Y-144351612D01*
X173750441Y-144334467D01*
X173757337Y-144330090D01*
X173778132Y-144319494D01*
X173785732Y-144316486D01*
X173830624Y-144283869D01*
X173837026Y-144279517D01*
X173883877Y-144249786D01*
X173889461Y-144243838D01*
X173906979Y-144228394D01*
X173913587Y-144223594D01*
X173913588Y-144223591D01*
X173913590Y-144223591D01*
X173948938Y-144180861D01*
X173954080Y-144175027D01*
X173992062Y-144134582D01*
X173995999Y-144127418D01*
X174009119Y-144108114D01*
X174014324Y-144101823D01*
X174037942Y-144051630D01*
X174041467Y-144044711D01*
X174068197Y-143996092D01*
X174070228Y-143988177D01*
X174078132Y-143966223D01*
X174081614Y-143958826D01*
X174092010Y-143904325D01*
X174093698Y-143896768D01*
X174107500Y-143843019D01*
X174107500Y-143834849D01*
X174109696Y-143811615D01*
X174110483Y-143807483D01*
X174111227Y-143803588D01*
X174108948Y-143767371D01*
X174107745Y-143748241D01*
X174107500Y-143740455D01*
X174107500Y-141070147D01*
X174116939Y-141022695D01*
X174143814Y-140982471D01*
X174209790Y-140916493D01*
X174225883Y-140903603D01*
X174227873Y-140901483D01*
X174227877Y-140901481D01*
X174273935Y-140852432D01*
X174276581Y-140849702D01*
X174296120Y-140830166D01*
X174298588Y-140826983D01*
X174306156Y-140818122D01*
X174336062Y-140786277D01*
X174345717Y-140768713D01*
X174356394Y-140752459D01*
X174368673Y-140736631D01*
X174386018Y-140696547D01*
X174391160Y-140686051D01*
X174394117Y-140680673D01*
X174412197Y-140647787D01*
X174417179Y-140628379D01*
X174423481Y-140609975D01*
X174431437Y-140591591D01*
X174438269Y-140548447D01*
X174440633Y-140537033D01*
X174451500Y-140494714D01*
X174451500Y-140474679D01*
X174453027Y-140455280D01*
X174453068Y-140455016D01*
X174456160Y-140435499D01*
X174452050Y-140392020D01*
X174451500Y-140380351D01*
X174451500Y-139736439D01*
X174453764Y-139715931D01*
X174451561Y-139645808D01*
X174451500Y-139641914D01*
X174451500Y-139614349D01*
X174451500Y-139614345D01*
X174450997Y-139610365D01*
X174450081Y-139598723D01*
X174449212Y-139571058D01*
X174448710Y-139555068D01*
X174443118Y-139535821D01*
X174439174Y-139516780D01*
X174436664Y-139496903D01*
X174420579Y-139456278D01*
X174416808Y-139445263D01*
X174404618Y-139403305D01*
X174394414Y-139386050D01*
X174385861Y-139368590D01*
X174378486Y-139349964D01*
X174378486Y-139349963D01*
X174352808Y-139314620D01*
X174346401Y-139304866D01*
X174324169Y-139267274D01*
X174310006Y-139253111D01*
X174297367Y-139238312D01*
X174285595Y-139222108D01*
X174251941Y-139194268D01*
X174243299Y-139186404D01*
X173068529Y-138011633D01*
X173055633Y-137995535D01*
X173004502Y-137947520D01*
X173001705Y-137944809D01*
X172982197Y-137925301D01*
X172979017Y-137922834D01*
X172970151Y-137915261D01*
X172938309Y-137885360D01*
X172920751Y-137875707D01*
X172904491Y-137865026D01*
X172888663Y-137852749D01*
X172848578Y-137835402D01*
X172838088Y-137830263D01*
X172799818Y-137809224D01*
X172780418Y-137804243D01*
X172762011Y-137797941D01*
X172743624Y-137789984D01*
X172700485Y-137783151D01*
X172689051Y-137780783D01*
X172646746Y-137769922D01*
X172626711Y-137769922D01*
X172607313Y-137768395D01*
X172599889Y-137767219D01*
X172587532Y-137765262D01*
X172587531Y-137765262D01*
X172561211Y-137767750D01*
X172544052Y-137769372D01*
X172532383Y-137769922D01*
X171567318Y-137769922D01*
X171546814Y-137767658D01*
X171476722Y-137769861D01*
X171472828Y-137769922D01*
X171445226Y-137769922D01*
X171441231Y-137770426D01*
X171429607Y-137771340D01*
X171385950Y-137772712D01*
X171366713Y-137778301D01*
X171347672Y-137782244D01*
X171327786Y-137784757D01*
X171287160Y-137800841D01*
X171276115Y-137804622D01*
X171234191Y-137816803D01*
X171216943Y-137827003D01*
X171199481Y-137835557D01*
X171187493Y-137840303D01*
X171180843Y-137842937D01*
X171145504Y-137868611D01*
X171135746Y-137875021D01*
X171098157Y-137897251D01*
X171083988Y-137911420D01*
X171069200Y-137924050D01*
X171052988Y-137935829D01*
X171025148Y-137969481D01*
X171017288Y-137978119D01*
X170867225Y-138128183D01*
X170827000Y-138155061D01*
X170779547Y-138164500D01*
X170720352Y-138164500D01*
X170535197Y-138203855D01*
X170362269Y-138280848D01*
X170209129Y-138392110D01*
X170082466Y-138532783D01*
X169987820Y-138696715D01*
X169929326Y-138876742D01*
X169909540Y-139064999D01*
X169929326Y-139253257D01*
X169987820Y-139433284D01*
X170082466Y-139597216D01*
X170209129Y-139737889D01*
X170362269Y-139849151D01*
X170535197Y-139926144D01*
X170720352Y-139965500D01*
X170720354Y-139965500D01*
X170909646Y-139965500D01*
X170909648Y-139965500D01*
X171033083Y-139939262D01*
X171094803Y-139926144D01*
X171267730Y-139849151D01*
X171420871Y-139737888D01*
X171547533Y-139597216D01*
X171642179Y-139433284D01*
X171700674Y-139253256D01*
X171713422Y-139131958D01*
X171733942Y-139075582D01*
X171778529Y-139035436D01*
X171836743Y-139020922D01*
X172257275Y-139020922D01*
X172304728Y-139030361D01*
X172344956Y-139057241D01*
X173164181Y-139876466D01*
X173191061Y-139916694D01*
X173200500Y-139964147D01*
X173200500Y-140105241D01*
X173191061Y-140152695D01*
X173164180Y-140192924D01*
X173098204Y-140258898D01*
X173082111Y-140271791D01*
X173034096Y-140322920D01*
X173031391Y-140325712D01*
X173011874Y-140345229D01*
X173009415Y-140348400D01*
X173001842Y-140357267D01*
X172971935Y-140389115D01*
X172962285Y-140406669D01*
X172951609Y-140422923D01*
X172939326Y-140438758D01*
X172921975Y-140478853D01*
X172916838Y-140489339D01*
X172895802Y-140527602D01*
X172890821Y-140547004D01*
X172884520Y-140565406D01*
X172876561Y-140583797D01*
X172869728Y-140626937D01*
X172867360Y-140638369D01*
X172856500Y-140680673D01*
X172856500Y-140700711D01*
X172854973Y-140720110D01*
X172851840Y-140739889D01*
X172855950Y-140783370D01*
X172856500Y-140795039D01*
X172856500Y-143014500D01*
X172839887Y-143076500D01*
X172794500Y-143121887D01*
X172732500Y-143138500D01*
X171429222Y-143138500D01*
X171378787Y-143127780D01*
X171337073Y-143097473D01*
X171331346Y-143091112D01*
X171178205Y-142979849D01*
X171178204Y-142979848D01*
X171178202Y-142979847D01*
X171005277Y-142902855D01*
X170820123Y-142863500D01*
X170820121Y-142863500D01*
X170630829Y-142863500D01*
X170630827Y-142863500D01*
X170445672Y-142902855D01*
X170272744Y-142979848D01*
X170119604Y-143091110D01*
X169992941Y-143231783D01*
X169898295Y-143395715D01*
X169839801Y-143575742D01*
X169821671Y-143748241D01*
X169820015Y-143764000D01*
X157487079Y-143764000D01*
X157440756Y-143717677D01*
X157416516Y-143683379D01*
X157405117Y-143642963D01*
X157387470Y-143475052D01*
X157381272Y-143455978D01*
X157376534Y-143399551D01*
X157397381Y-143346896D01*
X157439467Y-143309002D01*
X157494012Y-143293773D01*
X157549640Y-143304385D01*
X157606597Y-143329744D01*
X157791752Y-143369100D01*
X157791754Y-143369100D01*
X157981046Y-143369100D01*
X157981048Y-143369100D01*
X158104484Y-143342862D01*
X158166203Y-143329744D01*
X158339130Y-143252751D01*
X158386807Y-143218112D01*
X158492270Y-143141489D01*
X158551412Y-143075806D01*
X158618933Y-143000816D01*
X158713579Y-142836884D01*
X158772074Y-142656856D01*
X158789722Y-142488941D01*
X158801120Y-142448527D01*
X158825357Y-142414232D01*
X159394389Y-141845200D01*
X159410485Y-141832306D01*
X159412473Y-141830187D01*
X159412477Y-141830186D01*
X159458548Y-141781123D01*
X159461166Y-141778423D01*
X159480720Y-141758871D01*
X159483181Y-141755698D01*
X159490756Y-141746827D01*
X159520662Y-141714982D01*
X159530312Y-141697427D01*
X159541000Y-141681157D01*
X159553271Y-141665338D01*
X159553273Y-141665336D01*
X159570626Y-141625232D01*
X159575757Y-141614762D01*
X159596797Y-141576492D01*
X159601775Y-141557099D01*
X159608081Y-141538682D01*
X159611067Y-141531781D01*
X159616038Y-141520296D01*
X159622872Y-141477145D01*
X159625235Y-141465731D01*
X159636100Y-141423419D01*
X159636100Y-141403384D01*
X159637627Y-141383985D01*
X159640760Y-141364204D01*
X159636650Y-141320725D01*
X159636100Y-141309056D01*
X159636100Y-139091270D01*
X159651127Y-139032102D01*
X159692565Y-138987275D01*
X159750371Y-138967652D01*
X159810535Y-138977990D01*
X159943399Y-139037145D01*
X160128552Y-139076500D01*
X160128554Y-139076500D01*
X160317846Y-139076500D01*
X160317848Y-139076500D01*
X160460797Y-139046115D01*
X160503003Y-139037144D01*
X160675930Y-138960151D01*
X160720813Y-138927542D01*
X160829070Y-138848889D01*
X160955733Y-138708216D01*
X161050379Y-138544284D01*
X161060990Y-138511627D01*
X161108874Y-138364256D01*
X161128660Y-138176000D01*
X161108874Y-137987744D01*
X161059375Y-137835402D01*
X161050379Y-137807715D01*
X160955735Y-137643786D01*
X160942627Y-137629229D01*
X160880547Y-137560282D01*
X160856936Y-137521751D01*
X160848700Y-137477313D01*
X160848700Y-135859047D01*
X160850964Y-135838539D01*
X160848761Y-135768416D01*
X160848700Y-135764522D01*
X160848700Y-135736957D01*
X160848700Y-135736953D01*
X160848197Y-135732973D01*
X160847281Y-135721331D01*
X160845910Y-135677676D01*
X160840318Y-135658429D01*
X160836374Y-135639388D01*
X160833864Y-135619511D01*
X160817779Y-135578886D01*
X160814008Y-135567871D01*
X160801818Y-135525913D01*
X160791614Y-135508658D01*
X160783061Y-135491198D01*
X160775686Y-135472572D01*
X160775686Y-135472571D01*
X160750008Y-135437228D01*
X160743601Y-135427474D01*
X160721369Y-135389882D01*
X160707206Y-135375719D01*
X160694567Y-135360920D01*
X160682795Y-135344716D01*
X160649141Y-135316876D01*
X160640499Y-135309012D01*
X155413699Y-130082211D01*
X155400803Y-130066113D01*
X155349672Y-130018098D01*
X155346875Y-130015387D01*
X155327367Y-129995879D01*
X155324187Y-129993412D01*
X155315321Y-129985839D01*
X155283479Y-129955938D01*
X155265921Y-129946285D01*
X155249661Y-129935604D01*
X155233833Y-129923327D01*
X155193748Y-129905980D01*
X155183258Y-129900841D01*
X155144988Y-129879802D01*
X155125588Y-129874821D01*
X155107181Y-129868519D01*
X155088794Y-129860562D01*
X155045655Y-129853729D01*
X155034221Y-129851361D01*
X154991916Y-129840500D01*
X154971881Y-129840500D01*
X154952483Y-129838973D01*
X154945059Y-129837797D01*
X154932702Y-129835840D01*
X154932701Y-129835840D01*
X154907365Y-129838235D01*
X154889222Y-129839950D01*
X154877553Y-129840500D01*
X142971544Y-129840500D01*
X142951037Y-129838235D01*
X142880927Y-129840439D01*
X142877032Y-129840500D01*
X142849450Y-129840500D01*
X142845465Y-129841003D01*
X142833833Y-129841918D01*
X142790169Y-129843290D01*
X142770929Y-129848880D01*
X142751881Y-129852825D01*
X142732009Y-129855335D01*
X142691399Y-129871413D01*
X142680354Y-129875194D01*
X142638410Y-129887381D01*
X142621165Y-129897579D01*
X142603704Y-129906133D01*
X142585067Y-129913512D01*
X142549731Y-129939185D01*
X142539974Y-129945595D01*
X142502380Y-129967829D01*
X142488213Y-129981996D01*
X142473424Y-129994626D01*
X142457213Y-130006404D01*
X142429372Y-130040058D01*
X142421511Y-130048697D01*
X142190626Y-130279583D01*
X142150401Y-130306461D01*
X142102948Y-130315900D01*
X142043752Y-130315900D01*
X141858597Y-130355255D01*
X141685669Y-130432248D01*
X141532529Y-130543511D01*
X141405603Y-130684475D01*
X141349708Y-130720084D01*
X141283455Y-130721819D01*
X141225773Y-130689183D01*
X136927347Y-126390757D01*
X133176975Y-122640384D01*
X134913633Y-122640384D01*
X134924724Y-122721792D01*
X134925132Y-122725123D01*
X134934015Y-122806804D01*
X134934101Y-122807057D01*
X134939451Y-122829884D01*
X134939487Y-122830149D01*
X134967822Y-122907279D01*
X134968936Y-122910443D01*
X134995168Y-122988293D01*
X134995302Y-122988516D01*
X135005440Y-123009670D01*
X135009296Y-123020166D01*
X135106666Y-123188816D01*
X135233329Y-123329489D01*
X135386469Y-123440751D01*
X135559397Y-123517744D01*
X135744552Y-123557100D01*
X135744554Y-123557100D01*
X135933846Y-123557100D01*
X135933848Y-123557100D01*
X136057284Y-123530862D01*
X136119003Y-123517744D01*
X136291930Y-123440751D01*
X136377946Y-123378257D01*
X136445070Y-123329489D01*
X136571733Y-123188816D01*
X136666379Y-123024884D01*
X136678268Y-122988293D01*
X136724874Y-122844856D01*
X136744660Y-122656600D01*
X136736651Y-122580399D01*
X137448340Y-122580399D01*
X137468126Y-122768657D01*
X137526620Y-122948684D01*
X137621266Y-123112616D01*
X137747929Y-123253289D01*
X137901069Y-123364551D01*
X138073997Y-123441544D01*
X138259152Y-123480900D01*
X138259154Y-123480900D01*
X138448446Y-123480900D01*
X138448448Y-123480900D01*
X138571883Y-123454662D01*
X138633603Y-123441544D01*
X138806530Y-123364551D01*
X138959671Y-123253288D01*
X139016656Y-123190000D01*
X167267940Y-123190000D01*
X167287726Y-123378257D01*
X167346220Y-123558284D01*
X167440866Y-123722216D01*
X167567529Y-123862889D01*
X167720669Y-123974151D01*
X167893597Y-124051144D01*
X168078752Y-124090500D01*
X168078754Y-124090500D01*
X168268046Y-124090500D01*
X168268048Y-124090500D01*
X168391484Y-124064262D01*
X168453203Y-124051144D01*
X168626130Y-123974151D01*
X168779271Y-123862888D01*
X168905933Y-123722216D01*
X168939189Y-123664612D01*
X168951023Y-123647584D01*
X168977210Y-123615928D01*
X168985053Y-123607309D01*
X170818145Y-121774219D01*
X170858374Y-121747339D01*
X170905827Y-121737900D01*
X170965022Y-121737900D01*
X171088458Y-121711662D01*
X171150177Y-121698544D01*
X171323104Y-121621551D01*
X171323104Y-121621550D01*
X171476244Y-121510289D01*
X171602907Y-121369616D01*
X171697553Y-121205684D01*
X171697553Y-121205683D01*
X171756048Y-121025656D01*
X171775834Y-120837400D01*
X171756048Y-120649144D01*
X171697553Y-120469116D01*
X171697553Y-120469115D01*
X171602907Y-120305183D01*
X171476244Y-120164510D01*
X171323104Y-120053248D01*
X171150176Y-119976255D01*
X170965022Y-119936900D01*
X170965020Y-119936900D01*
X170775728Y-119936900D01*
X170775726Y-119936900D01*
X170590571Y-119976255D01*
X170417643Y-120053248D01*
X170264503Y-120164510D01*
X170137840Y-120305183D01*
X170043194Y-120469115D01*
X169984700Y-120649142D01*
X169967053Y-120817049D01*
X169955653Y-120857470D01*
X169931413Y-120891768D01*
X168534725Y-122288457D01*
X168482262Y-122319670D01*
X168421264Y-122322066D01*
X168268049Y-122289500D01*
X168268046Y-122289500D01*
X168078754Y-122289500D01*
X168078752Y-122289500D01*
X167893597Y-122328855D01*
X167720669Y-122405848D01*
X167567529Y-122517110D01*
X167440866Y-122657783D01*
X167346220Y-122821715D01*
X167287726Y-123001742D01*
X167267940Y-123190000D01*
X139016656Y-123190000D01*
X139086333Y-123112616D01*
X139180979Y-122948684D01*
X139239474Y-122768656D01*
X139259260Y-122580400D01*
X139239474Y-122392144D01*
X139239472Y-122392140D01*
X139238568Y-122383532D01*
X139234300Y-122356581D01*
X139234300Y-118054819D01*
X139238568Y-118027867D01*
X139239472Y-118019260D01*
X139239474Y-118019256D01*
X139259260Y-117831000D01*
X139239474Y-117642744D01*
X139180979Y-117462716D01*
X139180979Y-117462715D01*
X139086333Y-117298783D01*
X138959670Y-117158110D01*
X138806530Y-117046848D01*
X138633602Y-116969855D01*
X138448448Y-116930500D01*
X138448446Y-116930500D01*
X138259154Y-116930500D01*
X138259152Y-116930500D01*
X138073997Y-116969855D01*
X137901069Y-117046848D01*
X137747929Y-117158110D01*
X137621266Y-117298783D01*
X137526620Y-117462715D01*
X137468126Y-117642742D01*
X137448340Y-117831000D01*
X137469031Y-118027867D01*
X137473300Y-118054819D01*
X137473300Y-122356581D01*
X137469031Y-122383532D01*
X137448340Y-122580399D01*
X136736651Y-122580399D01*
X136724874Y-122468344D01*
X136685568Y-122347375D01*
X136679500Y-122309059D01*
X136679500Y-108678541D01*
X136685569Y-108640223D01*
X136724874Y-108519256D01*
X136744660Y-108331000D01*
X136724874Y-108142744D01*
X136681802Y-108010182D01*
X136666379Y-107962715D01*
X136571733Y-107798783D01*
X136445070Y-107658110D01*
X136291930Y-107546848D01*
X136119002Y-107469855D01*
X135933848Y-107430500D01*
X135933846Y-107430500D01*
X135744554Y-107430500D01*
X135744552Y-107430500D01*
X135559397Y-107469855D01*
X135386469Y-107546848D01*
X135233329Y-107658110D01*
X135106666Y-107798783D01*
X135012021Y-107962715D01*
X135002046Y-107993413D01*
X134995206Y-108010182D01*
X134967637Y-108065773D01*
X134967573Y-108066032D01*
X134959786Y-108088148D01*
X134959671Y-108088396D01*
X134942003Y-108168657D01*
X134941237Y-108171922D01*
X134921415Y-108251633D01*
X134921408Y-108251903D01*
X134918559Y-108275167D01*
X134918500Y-108275435D01*
X134918500Y-108357584D01*
X134918455Y-108360941D01*
X134916230Y-108443081D01*
X134916278Y-108443331D01*
X134918500Y-108466701D01*
X134918500Y-122575571D01*
X134918091Y-122585634D01*
X134913633Y-122640384D01*
X133176975Y-122640384D01*
X132569802Y-122033211D01*
X132556906Y-122017113D01*
X132505775Y-121969098D01*
X132502978Y-121966387D01*
X132483470Y-121946879D01*
X132480290Y-121944412D01*
X132471424Y-121936839D01*
X132439582Y-121906938D01*
X132422024Y-121897285D01*
X132405764Y-121886604D01*
X132389936Y-121874327D01*
X132349851Y-121856980D01*
X132339361Y-121851841D01*
X132301091Y-121830802D01*
X132281691Y-121825821D01*
X132263284Y-121819519D01*
X132244897Y-121811562D01*
X132201758Y-121804729D01*
X132190324Y-121802361D01*
X132148019Y-121791500D01*
X132127984Y-121791500D01*
X132108586Y-121789973D01*
X132101162Y-121788797D01*
X132088805Y-121786840D01*
X132088804Y-121786840D01*
X132055751Y-121789964D01*
X132045325Y-121790950D01*
X132033656Y-121791500D01*
X118229647Y-121791500D01*
X118173352Y-121777985D01*
X118129329Y-121740385D01*
X118107174Y-121686898D01*
X118111716Y-121629182D01*
X118141966Y-121579819D01*
X119806966Y-119914819D01*
X119847194Y-119887939D01*
X119894647Y-119878500D01*
X127185253Y-119878500D01*
X127235688Y-119889220D01*
X127277401Y-119919526D01*
X127283129Y-119925888D01*
X127436270Y-120037151D01*
X127436271Y-120037151D01*
X127436272Y-120037152D01*
X127609197Y-120114144D01*
X127794352Y-120153500D01*
X127794354Y-120153500D01*
X127983646Y-120153500D01*
X127983648Y-120153500D01*
X128107083Y-120127262D01*
X128168803Y-120114144D01*
X128341730Y-120037151D01*
X128425545Y-119976256D01*
X128494870Y-119925889D01*
X128500598Y-119919528D01*
X128621533Y-119785216D01*
X128716179Y-119621284D01*
X128774674Y-119441256D01*
X128794460Y-119253000D01*
X128774674Y-119064744D01*
X128716179Y-118884716D01*
X128716179Y-118884715D01*
X128621533Y-118720783D01*
X128494870Y-118580110D01*
X128341730Y-118468848D01*
X128168802Y-118391855D01*
X127983648Y-118352500D01*
X127983646Y-118352500D01*
X127794354Y-118352500D01*
X127794352Y-118352500D01*
X127609197Y-118391855D01*
X127436272Y-118468847D01*
X127334176Y-118543024D01*
X127283129Y-118580112D01*
X127277401Y-118586473D01*
X127235688Y-118616780D01*
X127185253Y-118627500D01*
X119666939Y-118627500D01*
X119646431Y-118625235D01*
X119576308Y-118627439D01*
X119572414Y-118627500D01*
X119544845Y-118627500D01*
X119540866Y-118628002D01*
X119529236Y-118628917D01*
X119485567Y-118630289D01*
X119466323Y-118635880D01*
X119447279Y-118639824D01*
X119427403Y-118642335D01*
X119386795Y-118658413D01*
X119375749Y-118662194D01*
X119366902Y-118664765D01*
X119333803Y-118674382D01*
X119316550Y-118684585D01*
X119299087Y-118693139D01*
X119280463Y-118700513D01*
X119245129Y-118726183D01*
X119235372Y-118732592D01*
X119197776Y-118754827D01*
X119183605Y-118768998D01*
X119168817Y-118781628D01*
X119152608Y-118793405D01*
X119124767Y-118827058D01*
X119116906Y-118835696D01*
X115230708Y-122721894D01*
X115214610Y-122734791D01*
X115166596Y-122785920D01*
X115163891Y-122788712D01*
X115144374Y-122808229D01*
X115141915Y-122811400D01*
X115134342Y-122820267D01*
X115104435Y-122852115D01*
X115094785Y-122869669D01*
X115084109Y-122885923D01*
X115071826Y-122901758D01*
X115054475Y-122941853D01*
X115049338Y-122952339D01*
X115028302Y-122990602D01*
X115023321Y-123010004D01*
X115017020Y-123028406D01*
X115009061Y-123046797D01*
X115002228Y-123089937D01*
X114999860Y-123101369D01*
X114989000Y-123143673D01*
X114989000Y-123163711D01*
X114987473Y-123183110D01*
X114984340Y-123202889D01*
X114988450Y-123246370D01*
X114989000Y-123258039D01*
X114989000Y-126453756D01*
X114986735Y-126474262D01*
X114988939Y-126544373D01*
X114989000Y-126548268D01*
X114989000Y-126575849D01*
X114989503Y-126579834D01*
X114990418Y-126591467D01*
X114991790Y-126635126D01*
X114997379Y-126654360D01*
X115001325Y-126673416D01*
X115003835Y-126693292D01*
X115019914Y-126733904D01*
X115023697Y-126744951D01*
X115035882Y-126786891D01*
X115046080Y-126804135D01*
X115054636Y-126821600D01*
X115062014Y-126840232D01*
X115062015Y-126840233D01*
X115087680Y-126875559D01*
X115094093Y-126885322D01*
X115116326Y-126922916D01*
X115116329Y-126922919D01*
X115116330Y-126922920D01*
X115130495Y-126937085D01*
X115143127Y-126951875D01*
X115154906Y-126968087D01*
X115188558Y-126995926D01*
X115197199Y-127003789D01*
X116212197Y-128018787D01*
X116225098Y-128034889D01*
X116227212Y-128036874D01*
X116227214Y-128036877D01*
X116274561Y-128081339D01*
X116276240Y-128082916D01*
X116279036Y-128085626D01*
X116298530Y-128105120D01*
X116301704Y-128107582D01*
X116310568Y-128115153D01*
X116342418Y-128145062D01*
X116352914Y-128150832D01*
X116359974Y-128154714D01*
X116376231Y-128165392D01*
X116392064Y-128177674D01*
X116408185Y-128184649D01*
X116432156Y-128195023D01*
X116442643Y-128200160D01*
X116480908Y-128221197D01*
X116500316Y-128226180D01*
X116518710Y-128232478D01*
X116537105Y-128240438D01*
X116580254Y-128247271D01*
X116591680Y-128249638D01*
X116607222Y-128253629D01*
X116633980Y-128260500D01*
X116633981Y-128260500D01*
X116654016Y-128260500D01*
X116673413Y-128262026D01*
X116693196Y-128265160D01*
X116736674Y-128261050D01*
X116748344Y-128260500D01*
X117406253Y-128260500D01*
X117456688Y-128271220D01*
X117498401Y-128301526D01*
X117504129Y-128307888D01*
X117657270Y-128419151D01*
X117657271Y-128419151D01*
X117657272Y-128419152D01*
X117830197Y-128496144D01*
X118015352Y-128535500D01*
X118015354Y-128535500D01*
X118204646Y-128535500D01*
X118204648Y-128535500D01*
X118328083Y-128509262D01*
X118389803Y-128496144D01*
X118562730Y-128419151D01*
X118715871Y-128307888D01*
X118842533Y-128167216D01*
X118937179Y-128003284D01*
X118995674Y-127823256D01*
X119015460Y-127635000D01*
X118995674Y-127446744D01*
X118937179Y-127266716D01*
X118937179Y-127266715D01*
X118842533Y-127102783D01*
X118770220Y-127022472D01*
X118742938Y-126972846D01*
X118740566Y-126916265D01*
X118763600Y-126864530D01*
X118807235Y-126828432D01*
X118862370Y-126815500D01*
X121222997Y-126815500D01*
X121273432Y-126826220D01*
X121315147Y-126856528D01*
X121332129Y-126875389D01*
X121485269Y-126986651D01*
X121658197Y-127063644D01*
X121843352Y-127103000D01*
X121843354Y-127103000D01*
X122032646Y-127103000D01*
X122032648Y-127103000D01*
X122156083Y-127076762D01*
X122217803Y-127063644D01*
X122390730Y-126986651D01*
X122478454Y-126922916D01*
X122543870Y-126875389D01*
X122597795Y-126815500D01*
X122670533Y-126734716D01*
X122765179Y-126570784D01*
X122823674Y-126390756D01*
X122843460Y-126202500D01*
X122823674Y-126014244D01*
X122765179Y-125834216D01*
X122765179Y-125834215D01*
X122670533Y-125670283D01*
X122652694Y-125650471D01*
X122624527Y-125597497D01*
X122624528Y-125537500D01*
X122652694Y-125484527D01*
X122670533Y-125464716D01*
X122765179Y-125300784D01*
X122823674Y-125120756D01*
X122843460Y-124932500D01*
X122823674Y-124744244D01*
X122765179Y-124564216D01*
X122765179Y-124564215D01*
X122670533Y-124400283D01*
X122543870Y-124259610D01*
X122390730Y-124148348D01*
X122217802Y-124071355D01*
X122032648Y-124032000D01*
X122032646Y-124032000D01*
X121843354Y-124032000D01*
X121843352Y-124032000D01*
X121658197Y-124071355D01*
X121485272Y-124148347D01*
X121430683Y-124188007D01*
X121332129Y-124259612D01*
X121332126Y-124259614D01*
X121321586Y-124267273D01*
X121320576Y-124265883D01*
X121295943Y-124283780D01*
X121245508Y-124294500D01*
X117043247Y-124294500D01*
X116992812Y-124283780D01*
X116951098Y-124253473D01*
X116945371Y-124247112D01*
X116923331Y-124231099D01*
X116886328Y-124188229D01*
X116872245Y-124133377D01*
X116884020Y-124077983D01*
X116919198Y-124033603D01*
X116970436Y-124009492D01*
X117000303Y-124003144D01*
X117000304Y-124003143D01*
X117000306Y-124003143D01*
X117086766Y-123964647D01*
X117173230Y-123926151D01*
X117326371Y-123814888D01*
X117326848Y-123814357D01*
X117328644Y-123813235D01*
X117336914Y-123807227D01*
X117337333Y-123807804D01*
X117384815Y-123778132D01*
X117453176Y-123778130D01*
X117500665Y-123807804D01*
X117501085Y-123807228D01*
X117509333Y-123813221D01*
X117511149Y-123814355D01*
X117511154Y-123814361D01*
X117511630Y-123814889D01*
X117664769Y-123926151D01*
X117837697Y-124003144D01*
X118022852Y-124042500D01*
X118022854Y-124042500D01*
X118212146Y-124042500D01*
X118212148Y-124042500D01*
X118367442Y-124009491D01*
X118397303Y-124003144D01*
X118570230Y-123926151D01*
X118723371Y-123814888D01*
X118729098Y-123808526D01*
X118770812Y-123778220D01*
X118821247Y-123767500D01*
X131721548Y-123767500D01*
X131769001Y-123776939D01*
X131809229Y-123803819D01*
X140248181Y-132242772D01*
X140275061Y-132283000D01*
X140284500Y-132330453D01*
X140284500Y-138287800D01*
X140266227Y-138352590D01*
X140216795Y-138398285D01*
X140150771Y-138411418D01*
X140087615Y-138388118D01*
X139974930Y-138306248D01*
X139802002Y-138229255D01*
X139616848Y-138189900D01*
X139616846Y-138189900D01*
X139427554Y-138189900D01*
X139427552Y-138189900D01*
X139242397Y-138229255D01*
X139069472Y-138306247D01*
X138967376Y-138380424D01*
X138916329Y-138417512D01*
X138910601Y-138423873D01*
X138868888Y-138454180D01*
X138818453Y-138464900D01*
X133966425Y-138464900D01*
X133928107Y-138458831D01*
X133893540Y-138441218D01*
X133742730Y-138331648D01*
X133569802Y-138254655D01*
X133384648Y-138215300D01*
X133384646Y-138215300D01*
X133195354Y-138215300D01*
X133195352Y-138215300D01*
X133010197Y-138254655D01*
X132837269Y-138331648D01*
X132684129Y-138442910D01*
X132557466Y-138583583D01*
X132462820Y-138747515D01*
X132404326Y-138927542D01*
X132395487Y-139011641D01*
X132384540Y-139115800D01*
X132391961Y-139186404D01*
X132404326Y-139304057D01*
X132462820Y-139484084D01*
X132557466Y-139648016D01*
X132684129Y-139788689D01*
X132837269Y-139899951D01*
X133010197Y-139976944D01*
X133195352Y-140016300D01*
X133195354Y-140016300D01*
X133384646Y-140016300D01*
X133384648Y-140016300D01*
X133508083Y-139990062D01*
X133569803Y-139976944D01*
X133742730Y-139899951D01*
X133764599Y-139884062D01*
X133895870Y-139788689D01*
X133924468Y-139756928D01*
X133966183Y-139726620D01*
X134016618Y-139715900D01*
X138818453Y-139715900D01*
X138868888Y-139726620D01*
X138910601Y-139756926D01*
X138916329Y-139763288D01*
X139005687Y-139828210D01*
X139056855Y-139865386D01*
X139094454Y-139909409D01*
X139107969Y-139965704D01*
X139094454Y-140021998D01*
X139056855Y-140066022D01*
X138915175Y-140168959D01*
X138788513Y-140309630D01*
X138693867Y-140473562D01*
X138635373Y-140653589D01*
X138615587Y-140841847D01*
X138635373Y-141030104D01*
X138693867Y-141210131D01*
X138788513Y-141374063D01*
X138915176Y-141514736D01*
X139068316Y-141625998D01*
X139241244Y-141702991D01*
X139426399Y-141742347D01*
X139426401Y-141742347D01*
X139485594Y-141742347D01*
X139533047Y-141751786D01*
X139573275Y-141778666D01*
X139636181Y-141841572D01*
X139663061Y-141881800D01*
X139672500Y-141929253D01*
X139672500Y-142510900D01*
X139655887Y-142572900D01*
X139610500Y-142618287D01*
X139548500Y-142634900D01*
X139478352Y-142634900D01*
X139293197Y-142674255D01*
X139120272Y-142751247D01*
X139050191Y-142802164D01*
X138967129Y-142862512D01*
X138961401Y-142868873D01*
X138919688Y-142899180D01*
X138869253Y-142909900D01*
X125927341Y-142909900D01*
X125906837Y-142907636D01*
X125836745Y-142909839D01*
X125832851Y-142909900D01*
X125805248Y-142909900D01*
X125801253Y-142910404D01*
X125789629Y-142911318D01*
X125745968Y-142912690D01*
X125726728Y-142918280D01*
X125707681Y-142922225D01*
X125687809Y-142924735D01*
X125647199Y-142940813D01*
X125636154Y-142944594D01*
X125594211Y-142956780D01*
X125576969Y-142966978D01*
X125559497Y-142975538D01*
X125540866Y-142982914D01*
X125505538Y-143008581D01*
X125495780Y-143014991D01*
X125458179Y-143037229D01*
X125444010Y-143051398D01*
X125429222Y-143064028D01*
X125413013Y-143075805D01*
X125385172Y-143109458D01*
X125377311Y-143118096D01*
X123585646Y-144909761D01*
X123530059Y-144941855D01*
X123465873Y-144941855D01*
X123365408Y-144914936D01*
X123129999Y-144894340D01*
X122894592Y-144914936D01*
X122666336Y-144976097D01*
X122452170Y-145075965D01*
X122258598Y-145211505D01*
X122091505Y-145378598D01*
X121961575Y-145564159D01*
X121917257Y-145603025D01*
X121860000Y-145617036D01*
X121802743Y-145603025D01*
X121758425Y-145564159D01*
X121628494Y-145378598D01*
X121461404Y-145211508D01*
X121461401Y-145211505D01*
X121267830Y-145075965D01*
X121053663Y-144976097D01*
X120983406Y-144957272D01*
X120825407Y-144914936D01*
X120590000Y-144894340D01*
X120354592Y-144914936D01*
X120126336Y-144976097D01*
X119912170Y-145075965D01*
X119718598Y-145211505D01*
X119551505Y-145378598D01*
X119415965Y-145572170D01*
X119316097Y-145786336D01*
X119254936Y-146014592D01*
X119234340Y-146250000D01*
X119254936Y-146485407D01*
X119288688Y-146611370D01*
X119316097Y-146713663D01*
X119415965Y-146927830D01*
X119551505Y-147121401D01*
X119718599Y-147288495D01*
X119904160Y-147418426D01*
X119943024Y-147462743D01*
X119957035Y-147520000D01*
X119943024Y-147577257D01*
X119904158Y-147621575D01*
X119720012Y-147750516D01*
X119718595Y-147751508D01*
X119551505Y-147918598D01*
X119415965Y-148112170D01*
X119316097Y-148326336D01*
X119254936Y-148554592D01*
X119234340Y-148790000D01*
X119254936Y-149025407D01*
X119266525Y-149068656D01*
X119316097Y-149253663D01*
X119415965Y-149467830D01*
X119551505Y-149661401D01*
X119718599Y-149828495D01*
X119912170Y-149964035D01*
X120126337Y-150063903D01*
X120338727Y-150120812D01*
X120354592Y-150125063D01*
X120589999Y-150145659D01*
X120589999Y-150145658D01*
X120590000Y-150145659D01*
X120825408Y-150125063D01*
X120925874Y-150098143D01*
X120990059Y-150098143D01*
X121045647Y-150130237D01*
X123357728Y-152442319D01*
X123387978Y-152491682D01*
X123392520Y-152549398D01*
X123370365Y-152602885D01*
X123326342Y-152640485D01*
X123270047Y-152654000D01*
X100454000Y-152654000D01*
X100392000Y-152637387D01*
X100346613Y-152592000D01*
X100330000Y-152530000D01*
X100330000Y-150500000D01*
X109903742Y-150500000D01*
X109930770Y-150611410D01*
X110018039Y-150802505D01*
X110139892Y-150973621D01*
X110291933Y-151118592D01*
X110468655Y-151232166D01*
X110663685Y-151310244D01*
X110869962Y-151350000D01*
X111000000Y-151350000D01*
X111000000Y-150500000D01*
X111500000Y-150500000D01*
X111500000Y-151350000D01*
X111577399Y-151350000D01*
X111734125Y-151335034D01*
X111935687Y-151275850D01*
X112122412Y-151179587D01*
X112287538Y-151049730D01*
X112425111Y-150890963D01*
X112530146Y-150709036D01*
X112598856Y-150510511D01*
X112600368Y-150500000D01*
X111500000Y-150500000D01*
X111000000Y-150500000D01*
X109903742Y-150500000D01*
X100330000Y-150500000D01*
X100330000Y-148650008D01*
X109874500Y-148650008D01*
X109885000Y-148752796D01*
X109940186Y-148919334D01*
X110032288Y-149068657D01*
X110156342Y-149192711D01*
X110220191Y-149232093D01*
X110261610Y-149274146D01*
X110278894Y-149330583D01*
X110268128Y-149388618D01*
X110231750Y-149435100D01*
X110212462Y-149450269D01*
X110074888Y-149609036D01*
X109969853Y-149790963D01*
X109901143Y-149989488D01*
X109899631Y-149999999D01*
X109899632Y-150000000D01*
X112596257Y-150000000D01*
X112569229Y-149888589D01*
X112481960Y-149697494D01*
X112360107Y-149526377D01*
X112257478Y-149428520D01*
X112226667Y-149381572D01*
X112219724Y-149325847D01*
X112238074Y-149272774D01*
X112277951Y-149233238D01*
X112343656Y-149192712D01*
X112467712Y-149068656D01*
X112559814Y-148919334D01*
X112614999Y-148752797D01*
X112625500Y-148650009D01*
X112625499Y-147849992D01*
X112614999Y-147747203D01*
X112559814Y-147580666D01*
X112477485Y-147447189D01*
X112467711Y-147431342D01*
X112343657Y-147307288D01*
X112194334Y-147215186D01*
X112027797Y-147160000D01*
X111925009Y-147149500D01*
X110574991Y-147149500D01*
X110472203Y-147160000D01*
X110305665Y-147215186D01*
X110156342Y-147307288D01*
X110032288Y-147431342D01*
X109940186Y-147580665D01*
X109885000Y-147747202D01*
X109874500Y-147849990D01*
X109874500Y-148650008D01*
X100330000Y-148650008D01*
X100330000Y-144352745D01*
X108950831Y-144352745D01*
X109122546Y-144469818D01*
X109358860Y-144583621D01*
X109609496Y-144660933D01*
X109868856Y-144700025D01*
X110131144Y-144700025D01*
X110390503Y-144660933D01*
X110641139Y-144583621D01*
X110877456Y-144469817D01*
X111049167Y-144352745D01*
X110000001Y-143303578D01*
X110000000Y-143303578D01*
X108950831Y-144352745D01*
X100330000Y-144352745D01*
X100330000Y-142950024D01*
X108245092Y-142950024D01*
X108264693Y-143211577D01*
X108323059Y-143467295D01*
X108418882Y-143711449D01*
X108550027Y-143938598D01*
X108597873Y-143998596D01*
X108597874Y-143998596D01*
X109646446Y-142950026D01*
X110353553Y-142950026D01*
X111402124Y-143998596D01*
X111449972Y-143938597D01*
X111581117Y-143711448D01*
X111676940Y-143467295D01*
X111735306Y-143211577D01*
X111754907Y-142950024D01*
X111735306Y-142688472D01*
X111676940Y-142432754D01*
X111581117Y-142188600D01*
X111449972Y-141961451D01*
X111402125Y-141901452D01*
X110353553Y-142950025D01*
X110353553Y-142950026D01*
X109646446Y-142950026D01*
X109646446Y-142950025D01*
X108597873Y-141901452D01*
X108550028Y-141961449D01*
X108418882Y-142188601D01*
X108323059Y-142432754D01*
X108264693Y-142688472D01*
X108245092Y-142950024D01*
X100330000Y-142950024D01*
X100330000Y-141547303D01*
X108950832Y-141547303D01*
X110000000Y-142596471D01*
X110000001Y-142596471D01*
X111049167Y-141547303D01*
X110877451Y-141430230D01*
X110641139Y-141316428D01*
X110390503Y-141239116D01*
X110131144Y-141200025D01*
X109868856Y-141200025D01*
X109609496Y-141239116D01*
X109358860Y-141316428D01*
X109122545Y-141430231D01*
X108950832Y-141547303D01*
X100330000Y-141547303D01*
X100330000Y-138250000D01*
X108244591Y-138250000D01*
X108264197Y-138511627D01*
X108322580Y-138767418D01*
X108418431Y-139011641D01*
X108549613Y-139238856D01*
X108572276Y-139267274D01*
X108713195Y-139443981D01*
X108713197Y-139443983D01*
X108713198Y-139443984D01*
X108905514Y-139622428D01*
X108905520Y-139622432D01*
X108905521Y-139622433D01*
X109122296Y-139770228D01*
X109358677Y-139884063D01*
X109609385Y-139961396D01*
X109868818Y-140000500D01*
X110131182Y-140000500D01*
X110390615Y-139961396D01*
X110641323Y-139884063D01*
X110877704Y-139770228D01*
X111094479Y-139622433D01*
X111094482Y-139622429D01*
X111094485Y-139622428D01*
X111208360Y-139516767D01*
X111286805Y-139443981D01*
X111450386Y-139238857D01*
X111581568Y-139011643D01*
X111677420Y-138767416D01*
X111735802Y-138511630D01*
X111755408Y-138250000D01*
X111735802Y-137988370D01*
X111677420Y-137732584D01*
X111581568Y-137488357D01*
X111450386Y-137261143D01*
X111286805Y-137056019D01*
X111286801Y-137056015D01*
X111094485Y-136877571D01*
X111077170Y-136865766D01*
X110877704Y-136729772D01*
X110641323Y-136615937D01*
X110390615Y-136538604D01*
X110131182Y-136499500D01*
X109868818Y-136499500D01*
X109609385Y-136538604D01*
X109358677Y-136615937D01*
X109122296Y-136729772D01*
X109052922Y-136777070D01*
X108905514Y-136877571D01*
X108713198Y-137056015D01*
X108549613Y-137261143D01*
X108418431Y-137488358D01*
X108322580Y-137732581D01*
X108264197Y-137988372D01*
X108244591Y-138250000D01*
X100330000Y-138250000D01*
X100330000Y-134647844D01*
X108249500Y-134647844D01*
X108255909Y-134707459D01*
X108266757Y-134736544D01*
X108306204Y-134842306D01*
X108392454Y-134957521D01*
X108507669Y-135043771D01*
X108642517Y-135094066D01*
X108702127Y-135100475D01*
X111297872Y-135100474D01*
X111357483Y-135094066D01*
X111492331Y-135043771D01*
X111607546Y-134957521D01*
X111693796Y-134842306D01*
X111744091Y-134707458D01*
X111750500Y-134647848D01*
X111750499Y-132452103D01*
X111744091Y-132392492D01*
X111693796Y-132257644D01*
X111607546Y-132142429D01*
X111492331Y-132056179D01*
X111357483Y-132005884D01*
X111297873Y-131999475D01*
X111297869Y-131999475D01*
X108702130Y-131999475D01*
X108642515Y-132005884D01*
X108507669Y-132056179D01*
X108392454Y-132142429D01*
X108306204Y-132257643D01*
X108255909Y-132392491D01*
X108249500Y-132452105D01*
X108249500Y-134647844D01*
X100330000Y-134647844D01*
X100330000Y-115188999D01*
X106815940Y-115188999D01*
X106835726Y-115377257D01*
X106894220Y-115557284D01*
X106988866Y-115721216D01*
X107115529Y-115861889D01*
X107268669Y-115973151D01*
X107441597Y-116050144D01*
X107626752Y-116089500D01*
X107626754Y-116089500D01*
X107816046Y-116089500D01*
X107816048Y-116089500D01*
X107939484Y-116063262D01*
X108001203Y-116050144D01*
X108174130Y-115973151D01*
X108327271Y-115861888D01*
X108453933Y-115721216D01*
X108548579Y-115557284D01*
X108607074Y-115377256D01*
X108624722Y-115209341D01*
X108636120Y-115168927D01*
X108660357Y-115134632D01*
X109341171Y-114453819D01*
X109381400Y-114426939D01*
X109428853Y-114417500D01*
X111691253Y-114417500D01*
X111741688Y-114428220D01*
X111783401Y-114458526D01*
X111789129Y-114464888D01*
X111942270Y-114576151D01*
X111942271Y-114576151D01*
X111942272Y-114576152D01*
X112115197Y-114653144D01*
X112300352Y-114692500D01*
X112300354Y-114692500D01*
X112489646Y-114692500D01*
X112489648Y-114692500D01*
X112613084Y-114666262D01*
X112674803Y-114653144D01*
X112847730Y-114576151D01*
X113000871Y-114464888D01*
X113127533Y-114324216D01*
X113222179Y-114160284D01*
X113280674Y-113980256D01*
X113300460Y-113792000D01*
X113280674Y-113603744D01*
X113222179Y-113423716D01*
X113222179Y-113423715D01*
X113127533Y-113259783D01*
X113000870Y-113119110D01*
X112847730Y-113007848D01*
X112674802Y-112930855D01*
X112489648Y-112891500D01*
X112489646Y-112891500D01*
X112300354Y-112891500D01*
X112300352Y-112891500D01*
X112115197Y-112930855D01*
X111942272Y-113007847D01*
X111840176Y-113082024D01*
X111789129Y-113119112D01*
X111783401Y-113125473D01*
X111741688Y-113155780D01*
X111691253Y-113166500D01*
X109201140Y-113166500D01*
X109180636Y-113164236D01*
X109110544Y-113166439D01*
X109106650Y-113166500D01*
X109079048Y-113166500D01*
X109075053Y-113167004D01*
X109063429Y-113167918D01*
X109019772Y-113169290D01*
X109000535Y-113174879D01*
X108981494Y-113178822D01*
X108961608Y-113181335D01*
X108920982Y-113197419D01*
X108909937Y-113201200D01*
X108868013Y-113213381D01*
X108850765Y-113223581D01*
X108833303Y-113232135D01*
X108821315Y-113236881D01*
X108814665Y-113239515D01*
X108779326Y-113265189D01*
X108769568Y-113271599D01*
X108731979Y-113293829D01*
X108717810Y-113307998D01*
X108703022Y-113320628D01*
X108686813Y-113332405D01*
X108658972Y-113366058D01*
X108651111Y-113374696D01*
X107773628Y-114252181D01*
X107733400Y-114279061D01*
X107685947Y-114288500D01*
X107626752Y-114288500D01*
X107441597Y-114327855D01*
X107268669Y-114404848D01*
X107115529Y-114516110D01*
X106988866Y-114656783D01*
X106894220Y-114820715D01*
X106835726Y-115000742D01*
X106815940Y-115188999D01*
X100330000Y-115188999D01*
X100330000Y-100581000D01*
X100346613Y-100519000D01*
X100392000Y-100473613D01*
X100454000Y-100457000D01*
X176787301Y-100457000D01*
X176849214Y-100473563D01*
G37*
%TD.AperFunction*%
%TA.AperFunction,Conductor*%
G36*
X130938000Y-148556613D02*
G01*
X130983387Y-148602000D01*
X131000000Y-148664000D01*
X131000000Y-150120635D01*
X131213492Y-150063430D01*
X131427576Y-149963600D01*
X131621081Y-149828106D01*
X131788109Y-149661078D01*
X131918119Y-149475405D01*
X131962437Y-149436539D01*
X132019694Y-149422528D01*
X132076951Y-149436539D01*
X132121267Y-149475402D01*
X132251505Y-149661401D01*
X132418599Y-149828495D01*
X132612170Y-149964035D01*
X132826337Y-150063903D01*
X133038727Y-150120812D01*
X133054592Y-150125063D01*
X133289999Y-150145659D01*
X133289999Y-150145658D01*
X133290000Y-150145659D01*
X133525408Y-150125063D01*
X133753663Y-150063903D01*
X133967830Y-149964035D01*
X134161401Y-149828495D01*
X134328495Y-149661401D01*
X134458732Y-149475402D01*
X134503048Y-149436539D01*
X134560305Y-149422528D01*
X134617562Y-149436539D01*
X134661880Y-149475404D01*
X134791893Y-149661081D01*
X134958918Y-149828106D01*
X135152423Y-149963600D01*
X135366507Y-150063430D01*
X135579999Y-150120635D01*
X135580000Y-150120636D01*
X135580000Y-148664000D01*
X135596613Y-148602000D01*
X135642000Y-148556613D01*
X135704000Y-148540000D01*
X135956000Y-148540000D01*
X136018000Y-148556613D01*
X136063387Y-148602000D01*
X136080000Y-148664000D01*
X136080000Y-150120635D01*
X136293492Y-150063430D01*
X136507576Y-149963600D01*
X136701081Y-149828106D01*
X136868109Y-149661078D01*
X136998119Y-149475405D01*
X137042437Y-149436539D01*
X137099694Y-149422528D01*
X137156951Y-149436539D01*
X137201267Y-149475402D01*
X137331505Y-149661401D01*
X137498599Y-149828495D01*
X137692170Y-149964035D01*
X137906337Y-150063903D01*
X138118727Y-150120812D01*
X138134592Y-150125063D01*
X138369999Y-150145659D01*
X138369999Y-150145658D01*
X138370000Y-150145659D01*
X138605408Y-150125063D01*
X138777648Y-150078911D01*
X138835520Y-150077397D01*
X138887774Y-150102321D01*
X138923018Y-150148251D01*
X138933569Y-150205176D01*
X138917126Y-150260687D01*
X138822020Y-150425415D01*
X138763526Y-150605442D01*
X138745879Y-150773350D01*
X138734479Y-150813771D01*
X138710239Y-150848069D01*
X138320928Y-151237381D01*
X138280700Y-151264261D01*
X138233247Y-151273700D01*
X124646048Y-151273700D01*
X124598595Y-151264261D01*
X124558367Y-151237381D01*
X123576504Y-150255517D01*
X123545924Y-150205123D01*
X123542069Y-150146304D01*
X123565809Y-150092349D01*
X123611777Y-150055456D01*
X123807830Y-149964035D01*
X124001401Y-149828495D01*
X124168495Y-149661401D01*
X124298426Y-149475839D01*
X124342743Y-149436975D01*
X124400000Y-149422964D01*
X124457257Y-149436975D01*
X124501573Y-149475839D01*
X124631505Y-149661401D01*
X124798599Y-149828495D01*
X124992170Y-149964035D01*
X125206337Y-150063903D01*
X125418727Y-150120812D01*
X125434592Y-150125063D01*
X125669999Y-150145659D01*
X125669999Y-150145658D01*
X125670000Y-150145659D01*
X125905408Y-150125063D01*
X126133663Y-150063903D01*
X126347830Y-149964035D01*
X126541401Y-149828495D01*
X126708495Y-149661401D01*
X126838426Y-149475839D01*
X126882743Y-149436975D01*
X126940000Y-149422964D01*
X126997257Y-149436975D01*
X127041573Y-149475839D01*
X127171505Y-149661401D01*
X127338599Y-149828495D01*
X127532170Y-149964035D01*
X127746337Y-150063903D01*
X127958727Y-150120812D01*
X127974592Y-150125063D01*
X128209999Y-150145659D01*
X128209999Y-150145658D01*
X128210000Y-150145659D01*
X128445408Y-150125063D01*
X128673663Y-150063903D01*
X128887830Y-149964035D01*
X129081401Y-149828495D01*
X129248495Y-149661401D01*
X129378732Y-149475402D01*
X129423048Y-149436539D01*
X129480305Y-149422528D01*
X129537562Y-149436539D01*
X129581880Y-149475404D01*
X129711893Y-149661081D01*
X129878918Y-149828106D01*
X130072423Y-149963600D01*
X130286507Y-150063430D01*
X130499999Y-150120635D01*
X130500000Y-150120636D01*
X130500000Y-148664000D01*
X130516613Y-148602000D01*
X130562000Y-148556613D01*
X130624000Y-148540000D01*
X130876000Y-148540000D01*
X130938000Y-148556613D01*
G37*
%TD.AperFunction*%
%TA.AperFunction,Conductor*%
G36*
X154649898Y-131100939D02*
G01*
X154690126Y-131127819D01*
X156925426Y-133363119D01*
X156955676Y-133412482D01*
X156960218Y-133470198D01*
X156938063Y-133523685D01*
X156894040Y-133561285D01*
X156837745Y-133574800D01*
X153150489Y-133574800D01*
X153094194Y-133561285D01*
X153050171Y-133523686D01*
X153028016Y-133470198D01*
X153032558Y-133412482D01*
X153056383Y-133339155D01*
X153082474Y-133258856D01*
X153102260Y-133070600D01*
X153082474Y-132882344D01*
X153023979Y-132702316D01*
X153023979Y-132702315D01*
X152929333Y-132538383D01*
X152802670Y-132397710D01*
X152649530Y-132286448D01*
X152476602Y-132209455D01*
X152291448Y-132170100D01*
X152291446Y-132170100D01*
X152102154Y-132170100D01*
X152102152Y-132170100D01*
X151916997Y-132209455D01*
X151773474Y-132273357D01*
X151710077Y-132283399D01*
X151662572Y-132265164D01*
X151662268Y-132265849D01*
X151477435Y-132183555D01*
X151292281Y-132144200D01*
X151292279Y-132144200D01*
X151102987Y-132144200D01*
X151102985Y-132144200D01*
X150917830Y-132183555D01*
X150748317Y-132259028D01*
X150697881Y-132269749D01*
X150647445Y-132259028D01*
X150477932Y-132183555D01*
X150292778Y-132144200D01*
X150292776Y-132144200D01*
X150103484Y-132144200D01*
X150103482Y-132144200D01*
X149918327Y-132183555D01*
X149745399Y-132260548D01*
X149592259Y-132371810D01*
X149465596Y-132512483D01*
X149370950Y-132676415D01*
X149312456Y-132856442D01*
X149292670Y-133044700D01*
X149308119Y-133191687D01*
X149299769Y-133251099D01*
X149264504Y-133299637D01*
X149210579Y-133325938D01*
X149148397Y-133339155D01*
X148975469Y-133416148D01*
X148822329Y-133527410D01*
X148695666Y-133668083D01*
X148601020Y-133832015D01*
X148542526Y-134012042D01*
X148533845Y-134094639D01*
X148510842Y-134154563D01*
X148460959Y-134194957D01*
X148397562Y-134204998D01*
X148337638Y-134181995D01*
X148280727Y-134140647D01*
X148107802Y-134063655D01*
X147922648Y-134024300D01*
X147922646Y-134024300D01*
X147733354Y-134024300D01*
X147733352Y-134024300D01*
X147548197Y-134063655D01*
X147375269Y-134140648D01*
X147222129Y-134251910D01*
X147095466Y-134392583D01*
X147000820Y-134556515D01*
X146942326Y-134736542D01*
X146922540Y-134924800D01*
X146942326Y-135113057D01*
X147000820Y-135293084D01*
X147095466Y-135457016D01*
X147222129Y-135597689D01*
X147375269Y-135708951D01*
X147548197Y-135785944D01*
X147733352Y-135825300D01*
X147733354Y-135825300D01*
X147922646Y-135825300D01*
X147922648Y-135825300D01*
X148046083Y-135799062D01*
X148107803Y-135785944D01*
X148280730Y-135708951D01*
X148433871Y-135597688D01*
X148439598Y-135591326D01*
X148481312Y-135561020D01*
X148531747Y-135550300D01*
X156737347Y-135550300D01*
X156793642Y-135563815D01*
X156837665Y-135601415D01*
X156859820Y-135654902D01*
X156855278Y-135712618D01*
X156825028Y-135761981D01*
X148199749Y-144387258D01*
X148142906Y-144419681D01*
X148077473Y-144418653D01*
X148021676Y-144384461D01*
X147991054Y-144326627D01*
X147994137Y-144261259D01*
X147997865Y-144249786D01*
X148053274Y-144079256D01*
X148073060Y-143891000D01*
X148053274Y-143702744D01*
X147994779Y-143522716D01*
X147994779Y-143522715D01*
X147900133Y-143358783D01*
X147773470Y-143218110D01*
X147620330Y-143106848D01*
X147447402Y-143029855D01*
X147262248Y-142990500D01*
X147262246Y-142990500D01*
X147072954Y-142990500D01*
X147072952Y-142990500D01*
X146887797Y-143029855D01*
X146714872Y-143106846D01*
X146627745Y-143170148D01*
X146580641Y-143191119D01*
X146529079Y-143191119D01*
X146481975Y-143170147D01*
X146324930Y-143056048D01*
X146152002Y-142979055D01*
X145966848Y-142939700D01*
X145966846Y-142939700D01*
X145777554Y-142939700D01*
X145777552Y-142939700D01*
X145592397Y-142979055D01*
X145419469Y-143056048D01*
X145266329Y-143167310D01*
X145139666Y-143307983D01*
X145045020Y-143471915D01*
X144986526Y-143651942D01*
X144968879Y-143819849D01*
X144957479Y-143860270D01*
X144933239Y-143894568D01*
X144358781Y-144469027D01*
X144309418Y-144499277D01*
X144251702Y-144503819D01*
X144198215Y-144481664D01*
X144160615Y-144437641D01*
X144147100Y-144381346D01*
X144147100Y-131460368D01*
X144153169Y-131422050D01*
X144167074Y-131379256D01*
X144185647Y-131202538D01*
X144206167Y-131146160D01*
X144250754Y-131106015D01*
X144308968Y-131091500D01*
X154602445Y-131091500D01*
X154649898Y-131100939D01*
G37*
%TD.AperFunction*%
%TA.AperFunction,Conductor*%
G36*
X158333985Y-138980229D02*
G01*
X158371585Y-139024252D01*
X158385100Y-139080547D01*
X158385100Y-141033948D01*
X158375661Y-141081401D01*
X158348781Y-141121629D01*
X157938628Y-141531781D01*
X157898400Y-141558661D01*
X157850947Y-141568100D01*
X157791752Y-141568100D01*
X157606597Y-141607455D01*
X157433669Y-141684448D01*
X157280529Y-141795710D01*
X157153866Y-141936383D01*
X157059220Y-142100315D01*
X157000726Y-142280342D01*
X156980940Y-142468599D01*
X157000726Y-142656859D01*
X157006922Y-142675926D01*
X157011661Y-142732358D01*
X156990813Y-142785012D01*
X156948728Y-142822905D01*
X156894183Y-142838134D01*
X156838555Y-142827523D01*
X156781599Y-142802164D01*
X156781598Y-142802163D01*
X156781594Y-142802162D01*
X156596444Y-142762808D01*
X156596442Y-142762808D01*
X156407150Y-142762808D01*
X156407148Y-142762808D01*
X156221993Y-142802163D01*
X156049065Y-142879156D01*
X155922147Y-142971367D01*
X155875043Y-142992339D01*
X155823481Y-142992339D01*
X155776377Y-142971367D01*
X155637479Y-142870452D01*
X155464551Y-142793459D01*
X155279397Y-142754104D01*
X155279395Y-142754104D01*
X155090103Y-142754104D01*
X155090101Y-142754104D01*
X154904946Y-142793459D01*
X154732018Y-142870452D01*
X154578878Y-142981714D01*
X154451650Y-143123016D01*
X154402723Y-143156267D01*
X154343959Y-143163066D01*
X154288731Y-143141866D01*
X154249611Y-143097493D01*
X154235500Y-143040044D01*
X154235500Y-142982147D01*
X154244939Y-142934694D01*
X154271819Y-142894466D01*
X158173419Y-138992866D01*
X158222782Y-138962616D01*
X158280498Y-138958074D01*
X158333985Y-138980229D01*
G37*
%TD.AperFunction*%
%TD*%
M02*
