M48
; DRILL file {KiCad 7.0.1-0} date 2025 March 27, Thursday 13:04:47
; FORMAT={-:-/ absolute / inch / decimal}
; #@! TF.CreationDate,2025-03-27T13:04:47+02:00
; #@! TF.GenerationSoftware,Kicad,Pcbnew,7.0.1-0
; #@! TF.FileFunction,Plated,1,2,PTH
FMAT,2
INCH
; #@! TA.AperFunction,Plated,PTH,ViaDrill
T1C0.0157
; #@! TA.AperFunction,Plated,PTH,ComponentDrill
T2C0.0295
; #@! TA.AperFunction,Plated,PTH,ComponentDrill
T3C0.0394
; #@! TA.AperFunction,Plated,PTH,ComponentDrill
T4C0.0669
%
G90
G05
T1
X4.241Y-4.535
X4.286Y-4.365
X4.425Y-4.48
X4.545Y-4.63
X4.5803Y-4.9181
X4.5803Y-4.9681
X4.5953Y-4.8481
X4.65Y-5.025
X4.6503Y-4.8481
X4.8007Y-4.9186
X4.8007Y-4.9686
X4.857Y-4.992
X4.94Y-4.53
X5.035Y-4.695
X5.2476Y-5.477
X5.348Y-4.265
X5.348Y-4.829
X5.385Y-4.395
X5.398Y-5.601
X5.447Y-4.639
X5.447Y-4.826
X5.493Y-5.545
X5.493Y-5.476
X5.495Y-5.651
X5.498Y-5.9368
X5.5703Y-5.9368
X5.596Y-5.166
X5.641Y-5.165
X5.679Y-5.248
X5.697Y-5.954
X5.743Y-5.663
X5.794Y-5.665
X5.798Y-5.985
X5.82Y-5.312
X5.837Y-5.504
X5.883Y-5.2835
X5.9133Y-5.238
X5.9527Y-5.238
X5.992Y-5.239
X6.047Y-5.238
X6.1096Y-5.6557
X6.1615Y-5.656
X6.208Y-5.497
X6.213Y-5.341
X6.214Y-5.385
X6.216Y-5.609
X6.308Y-5.44
X6.402Y-4.64
X6.419Y-5.274
X6.445Y-5.815
X6.479Y-5.273
X6.621Y-4.85
X6.681Y-5.549
X6.7215Y-5.66
X6.725Y-5.475
X6.7272Y-4.7574
X6.769Y-4.4384
X6.865Y-5.805
X6.881Y-4.716
T2
X4.3799Y-5.8366
X4.3799Y-5.9154
T3
X4.7476Y-5.7579
X4.7476Y-5.8579
X4.8476Y-5.7579
X4.8476Y-5.8579
X4.9476Y-5.7579
X4.9476Y-5.8579
X5.0476Y-5.7579
X5.0476Y-5.8579
X5.1476Y-5.7579
X5.1476Y-5.8579
X5.2476Y-5.7579
X5.2476Y-5.8579
X5.3476Y-5.7579
X5.3476Y-5.8579
X5.4476Y-5.7579
X5.4476Y-5.8579
X5.5476Y-5.7579
X5.5476Y-5.8579
X5.6476Y-5.7579
X5.6476Y-5.8579
X5.7476Y-5.7579
X5.7476Y-5.8579
X5.8476Y-5.7579
X5.8476Y-5.8579
X5.9476Y-5.7579
X5.9476Y-5.8579
X6.0476Y-5.7579
X6.0476Y-5.8579
X6.1476Y-5.7579
X6.1476Y-5.8579
X6.2476Y-5.7579
X6.2476Y-5.8579
T4
X4.3307Y-5.2579
X4.3307Y-5.4429
X4.3307Y-5.628
T0
M30
